
<svg xmlns="http://www.w3.org/2000/svg" id="Layer_1" data-name="Layer 1" viewBox="0 0 600 565">
    <defs></defs>
  <path fill="#1B2265" d="m484.74,78.07C435.4,28.72,369.79,1.55,300,1.55S164.6,28.72,115.26,78.07c-49.35,49.35-76.52,114.96-76.52,184.74s27.18,135.4,76.52,184.74c49.35,49.35,114.96,76.52,184.74,76.52s135.4-27.18,184.74-76.52c49.35-49.35,76.52-114.96,76.52-184.74s-27.18-135.4-76.52-184.74Z"></path>
  <circle fill="#E77005" cx="300" cy="262.62" r="236.24"></circle>
  <path fill="#FFFFFF" d="m543.71,262.64c0-134.38-109.33-243.71-243.71-243.71S56.29,128.26,56.29,262.64s109.33,243.71,243.71,243.71c60.49,0,115.9-22.16,158.55-58.78l.12.06s.08-.16.12-.26c51.96-44.73,84.92-110.95,84.92-184.72Zm-22.64-59.63c-20.28-20.66-58.2-49.16-122.14-64.75l-.15-39.86-.04-11.88,22.24-17.85-.53-.66c48.73,30.27,85.31,78.31,100.62,135Zm-78.77,110.33c26.72,58.68,9.22,112.18,4.22,125.09-37.97,31.7-86.32,51.35-139.14,53.03v-148.45l2.52-2.22,29.72-26.17,39.49-13.58,5.62-1.93,2.71-5.29,16.65-32.47c13.88,13.52,27.6,28.67,38.21,51.98Zm-283.75,0c10.47-22.99,23.96-38.04,37.65-51.43l16.37,31.92,2.71,5.29,5.62,1.93,39.52,13.59,30.03,26.2,2.18,1.9v148.72c-52.23-1.66-100.11-20.89-137.88-51.98-4.32-10.65-23.84-65.43,3.81-126.15Zm211.6-222.8l-18.2,14.1-15.04-15.92-10.29-10.89-10.73,10.45-8.51,8.29v-62.78c36.1,1.15,70.11,10.69,100.14,26.74l-37.37,29.99Zm-77.53,6.05l-8.52-8.3-10.73-10.45-10.29,10.89-15.04,15.92-23.04-17.85-10.74-8.32-22.12-17.75c30.12-16.15,64.25-25.76,100.48-26.91v62.78Zm-114.14-27.92l22.77,18.28-.04,11.45-.15,40.4c-42.67,11.37-73.07,29.1-93.45,44.97-13.4,10.44-23.65,20.86-31.3,29.95,13.31-60.92,50.94-112.84,102.17-145.05Zm-107.45,193.96c0-5.51.21-10.97.59-16.39,3.33-6.25,16.7-28.96,45.77-51.4,17.98-13.88,44.28-29.27,80.7-39.91l-27.15,41.38-4.71,7.18,3.92,7.64,19,37.05c-15.26,14.67-31.68,31.89-44.04,59.03-20.4,44.8-17.48,86.12-11.82,112.19-38.58-41-62.26-96.17-62.26-156.78Zm384.68,44.59c-12.51-27.48-29.18-44.79-44.61-59.58l18.71-36.5,3.92-7.64-4.71-7.18-27.53-41.97c26.76,7.1,53.64,17.87,77.99,33.96,31.14,20.58,45.02,41.35,47.66,45.6,1.18,9.41,1.8,19,1.8,28.72,0,60.02-23.23,114.71-61.15,155.59,5.49-26.13,8.01-66.88-12.08-111Z"></path>
  <g>
    <path fill="#1B2265" d="m447.74,563.02c.64-4.38,1.28-8.76,1.91-13.14,2.94-20.17,5.87-40.34,8.81-60.51.8-5.38,1.6-10.76,2.4-16.14,35.25,5.15,70.3,12.07,105.02,20.76,1.91-1.88,3.84-3.76,5.77-5.63,3.56-3.45,7.15-6.89,10.77-10.31,5.63-5.32,11.32-10.59,17.08-15.82-8.34-2.28-16.7-4.46-25.08-6.55-2.7-.67-5.4-1.33-8.1-1.98,2.75-11.41,5.49-22.82,8.24-34.22,1.04-4.3,2.07-8.61,3.11-12.91-189.87-45.7-388.42-42.73-577.17,8.9,5.07,5.14,10.09,10.32,15.06,15.52,1.02,1.07,2.04,2.14,3.06,3.21,4.36,16.66,8.72,33.31,13.08,49.97,1.12,4.28,2.24,8.56,3.36,12.85,37.55-9.85,75.5-17.63,113.69-23.33.8,5.38,1.6,10.76,2.4,16.14,3,20.16,6,40.32,9,60.49.65,4.38,1.3,8.76,1.95,13.14,94.68-14.08,190.92-14.23,285.63-.43Z"></path>
    <g>
      <path fill="#FFFFFF" d="m186.78,533.96c-1.92-16.05-3.84-32.1-5.76-48.14-5.19.62-10.37,1.28-15.55,1.98,2.72,20.2,5.44,40.4,8.17,60.6,9.47-1.28,18.95-2.41,28.44-3.41,1.93-4.45,3.89-8.9,5.88-13.33-7.06.7-14.12,1.46-21.17,2.31Z"></path>
      <path fill="#FFFFFF" d="m78.68,472.97c4.16-.89,7.14-2.55,8.98-5.01,1.84-2.46,2.39-5.53,1.64-9.25-.92-4.54-1.83-9.08-2.75-13.62-2.43-1.38-4.87-2.75-7.31-4.12,1.7-2.23,3.41-4.45,5.13-6.67-.84-4.14-1.67-8.28-2.51-12.42-.75-3.71-2.5-6.32-5.27-7.84-2.77-1.51-6.36-1.81-10.75-.87-12.66,2.72-25.28,5.65-37.86,8.8,1.7,1.82,3.4,3.65,5.09,5.48,4.37,17.67,8.73,35.34,13.1,53.01,10.81-2.67,21.64-5.17,32.51-7.5Zm-27.68-43.5c4-.92,8-1.83,12-2.71,1.66-.37,2.65.16,2.96,1.59.46,2.14.93,4.27,1.39,6.4.31,1.42-.36,2.31-2.01,2.68-3.96.87-7.92,1.77-11.88,2.68-.82-3.55-1.64-7.09-2.46-10.64Zm5.32,22.98c3.91-.91,7.83-1.79,11.75-2.65,1.63-.36,2.6.17,2.91,1.6.56,2.56,1.12,5.12,1.67,7.68.31,1.42-.34,2.31-1.96,2.66-3.88.85-7.75,1.72-11.62,2.62-.92-3.97-1.84-7.94-2.76-11.92Z"></path>
      <path fill="#FFFFFF" d="m134.68,462.48c5.47-.88,10.95-1.71,16.43-2.51-8.4-19.38-17.1-38.68-26.11-57.88-9.28,1.49-18.55,3.09-27.8,4.81,1.58,1.93,3.16,3.85,4.73,5.79-1.86,18.84-3.47,37.67-4.82,56.49,5.45-1.07,10.9-2.1,16.36-3.09.15-4.32.3-8.64.48-12.95,5.33-.95,10.66-1.86,16-2.73,1.59,4.02,3.17,8.04,4.74,12.07Zm-20.2-22.3c.34-7.89.72-15.79,1.13-23.69.2-.04.4-.07.6-.1,3.01,7.31,5.98,14.64,8.92,21.98-3.56.59-7.11,1.19-10.66,1.82Z"></path>
      <path fill="#FFFFFF" d="m200.92,442.53c-.35-3.65-.71-7.3-1.06-10.96-.67-7.01-5.05-10.94-13.17-11.65-5.93-.5-11.88-.96-17.85-1.37-1.51-.11-2.34-.83-2.51-2.15-.23-1.85-.46-3.7-.7-5.55-.18-1.44.57-2.27,2.26-2.48,3.21-.39,6.42-.78,9.63-1.14,1.69-.19,2.62.44,2.78,1.88.16,1.42.32,2.83.48,4.25,5.55-.62,11.1-1.2,16.65-1.74-.24-2.43-.47-4.87-.71-7.3-.37-3.77-1.84-6.55-4.43-8.34-2.59-1.79-6.12-2.46-10.56-1.97-7.01.77-14.01,1.6-21.01,2.49-4.44.58-7.71,2.04-9.82,4.39-2.11,2.36-2.88,5.4-2.36,9.15.45,3.23.91,6.46,1.36,9.69.99,6.99,5.54,10.68,13.61,11.21,5.91.38,11.8.81,17.68,1.28,1.49.13,2.3.85,2.45,2.19.25,2.26.5,4.52.76,6.77.15,1.45-.58,2.26-2.21,2.45-3.27.37-6.54.76-9.81,1.16-1.64.19-2.54-.42-2.72-1.86-.21-1.68-.42-3.35-.63-5.03-5.43.68-10.85,1.4-16.27,2.16.38,2.68.75,5.37,1.13,8.05.53,3.74,2.07,6.47,4.61,8.18,2.55,1.71,5.9,2.28,10.1,1.74,6.78-.87,13.57-1.67,20.36-2.41,4.21-.47,7.33-1.8,9.4-4.06,2.07-2.25,2.92-5.26,2.57-9.03Z"></path>
      <path fill="#FFFFFF" d="m361.17,528.32c.22-4.07.44-8.14.67-12.21,4.57.25,9.15.53,13.72.84,2.72-4.05,5.48-8.08,8.26-12.11-7.09-.53-14.19-.99-21.29-1.38.2-3.64.4-7.27.59-10.91,6.24.34,12.48.74,18.71,1.19,2.8-4.03,5.63-8.05,8.49-12.06-15.14-1.21-30.3-2.09-45.46-2.64,1.03,2.22,2.04,4.45,3.06,6.67-.72,18.19-1.44,36.37-2.16,54.56,10.86.43,21.72,1.04,32.57,1.83,2.68-4.04,5.4-8.07,8.14-12.09-8.42-.67-16.86-1.24-25.29-1.7Z"></path>
      <path fill="#FFFFFF" d="m276.58,478.77c-5.53.16-11.06.35-16.59.6,5.98,20.14,11.67,40.33,17.07,60.57,5.06-.15,10.12-.26,15.19-.33,2.46-11.63,5-23.24,7.64-34.85,2.82,11.57,5.54,23.16,8.17,34.75,5.06,0,10.12.06,15.19.14,5.17-20.3,10.63-40.56,16.4-60.77-5.53-.18-11.06-.3-16.59-.39-2.89,12.68-5.68,25.37-8.37,38.08-2.58-12.75-5.26-25.48-8.03-38.21-4.58,0-9.17.03-13.75.09-2.59,12.76-5.08,25.53-7.46,38.31-2.85-12.67-5.8-25.33-8.85-37.97Z"></path>
      <path fill="#FFFFFF" d="m225.06,414.19c-.57-7.84-1.14-15.68-1.71-23.52-6.85.5-13.7,1.06-20.54,1.68,1.39,2.07,2.78,4.14,4.16,6.21,1.59,18.13,3.18,36.26,4.76,54.39,5.35-.47,10.7-.9,16.05-1.29-.6-8.28-1.2-16.55-1.8-24.83,1.96-.14,3.91-.28,5.87-.41,4.41,8.02,8.73,16.07,12.97,24.14,5.84-.33,11.69-.62,17.53-.85-5.17-10.31-10.47-20.59-15.92-30.82,4.35-10.12,8.83-20.21,13.43-30.28-6.18.25-12.35.55-18.52.9-3.53,8.08-6.98,16.17-10.35,24.28-1.98.13-3.96.27-5.94.42Z"></path>
      <path fill="#FFFFFF" d="m393.63,481.96c.92,2.27,1.84,4.54,2.75,6.81-1.56,18.13-3.12,36.27-4.68,54.4,4.9.42,9.8.88,14.69,1.38,1.06-10.49,2.12-20.98,3.18-31.46,4.45,11.04,8.73,22.12,12.83,33.21,4.59.54,9.18,1.11,13.77,1.72,2.66-20.21,5.32-40.42,7.98-60.63-5.18-.68-10.37-1.33-15.56-1.93-1.22,10.47-2.44,20.94-3.66,31.41-4.27-11.11-8.72-22.2-13.33-33.26-5.98-.6-11.97-1.15-17.96-1.64Z"></path>
      <path fill="#FFFFFF" d="m404.58,453.26c4.21.38,7.55-.32,10.02-2.12,2.47-1.8,3.92-4.58,4.31-8.34.48-4.61.95-9.21,1.43-13.82-1.9-2.04-3.81-4.08-5.73-6.1,2.28-1.62,4.56-3.24,6.86-4.84.43-4.2.87-8.4,1.3-12.6.39-3.77-.5-6.78-2.69-9.05-2.18-2.26-5.51-3.61-9.96-4.02-12.83-1.17-25.68-2.12-38.54-2.85,1.07,2.25,2.14,4.5,3.21,6.75-1.09,18.17-2.18,36.33-3.28,54.5,11.03.66,22.06,1.5,33.08,2.5Zm-13.39-49.76c4.07.3,8.13.63,12.19.98,1.69.15,2.48.94,2.35,2.39-.19,2.18-.38,4.35-.58,6.53-.12,1.45-1.03,2.1-2.71,1.96-4.02-.35-8.05-.67-12.08-.97.27-3.63.54-7.26.82-10.89Zm-1.76,23.52c3.98.3,7.96.62,11.94.96,1.66.14,2.42.94,2.29,2.39-.23,2.61-.46,5.22-.69,7.83-.13,1.46-1.01,2.09-2.65,1.96-3.93-.34-7.87-.66-11.81-.95.3-4.07.61-8.13.92-12.2Z"></path>
      <path fill="#FFFFFF" d="m365.4,389.17c-16.29-.84-32.59-1.33-48.9-1.48-.04,4.22-.07,8.45-.11,12.67,5.26.05,10.53.13,15.79.25-.37,16.16-.73,32.32-1.1,48.47,5.36.12,10.72.28,16.08.48.61-16.15,1.21-32.3,1.82-48.45,5.26.2,10.52.43,15.77.7.22-4.21.43-8.43.65-12.65Z"></path>
      <path fill="#FFFFFF" d="m285.5,436.34c-.08-4.08-.15-8.15-.23-12.23,4.99-.09,9.97-.16,14.96-.18,2.64-4.24,5.3-8.46,8-12.68-7.73-.01-15.47.05-23.2.2-.07-3.64-.14-7.28-.21-10.92,6.79-.13,13.58-.2,20.37-.21,2.71-4.22,5.45-8.44,8.23-12.65-16.48-.1-32.96.15-49.43.76,1.28,2.14,2.56,4.28,3.82,6.42.62,18.19,1.23,36.38,1.85,54.57,11.86-.4,23.72-.61,35.58-.62,2.6-4.22,5.22-8.44,7.88-12.65-9.21-.05-18.41,0-27.62.18Z"></path>
      <path fill="#FFFFFF" d="m245.3,541.81c3.86-.24,6.77-1.41,8.76-3.56,1.98-2.15,2.88-5.1,2.7-8.89-.63-12.8-1.27-25.6-1.9-38.39-.19-3.79-1.42-6.63-3.74-8.56-2.31-1.92-5.53-2.77-9.64-2.51-6.47.4-12.95.86-19.41,1.37-4.1.33-7.17,1.63-9.19,3.85-2.03,2.23-2.84,5.24-2.5,9,1.18,12.76,2.36,25.52,3.54,38.28.35,3.76,1.66,6.58,3.93,8.41,2.26,1.84,5.32,2.6,9.18,2.29,6.09-.49,12.18-.92,18.27-1.3Zm-19.24-45.95c-.11-1.45.61-2.24,2.17-2.36,2.96-.22,5.92-.43,8.89-.63,1.56-.11,2.39.57,2.48,2.03.69,10.75,1.38,21.5,2.07,32.26.09,1.46-.61,2.23-2.12,2.33-2.86.19-5.72.39-8.58.61-1.51.12-2.31-.55-2.42-2.01-.83-10.74-1.66-21.48-2.5-32.23Z"></path>
      <path fill="#FFFFFF" d="m461.02,459.88c5.48.79,10.96,1.62,16.43,2.49-2.26-21-4.83-42.01-7.71-63.02-9.3-1.34-18.61-2.56-27.93-3.67.94,2.31,1.87,4.62,2.79,6.93-7.37,17.43-14.49,34.94-21.37,52.5,5.5.6,11,1.23,16.49,1.91,1.42-4.08,2.86-8.16,4.3-12.23,5.36.68,10.71,1.4,16.07,2.15.32,4.31.63,8.62.94,12.93Zm-12.64-27.3c2.67-7.44,5.38-14.86,8.12-22.28.2.03.4.05.61.08.69,7.88,1.35,15.76,1.97,23.63-3.57-.49-7.13-.97-10.7-1.43Z"></path>
      <path fill="#FFFFFF" d="m233.97,474.27c4.44-.3,8.89-.58,13.34-.83-.2-3.63-.41-7.27-.61-10.9-4.49.25-8.99.53-13.48.84.25,3.63.5,7.26.74,10.89Z"></path>
      <path fill="#FFFFFF" d="m228.25,474.67c-.27-3.63-.54-7.26-.8-10.89-4.49.33-8.98.69-13.46,1.08.31,3.62.63,7.25.94,10.88,4.44-.39,8.88-.74,13.33-1.07Z"></path>
      <path fill="#FFFFFF" d="m548.51,463.17c3.57-15.76,7.13-31.53,10.7-47.29-5.56-1.26-11.12-2.48-16.7-3.65t0,0c-1.43-.3-2.86-.6-4.29-.9.89,2.9,1.77,5.81,2.64,8.72-3.65,17.34-7.3,34.68-10.95,52.02,10.23,2.16,20.44,4.46,30.62,6.91,3.53-3.49,7.1-6.97,10.69-10.43-7.55-1.88-15.12-3.67-22.7-5.39Z"></path>
      <path fill="#FFFFFF" d="m502.87,453.86c2.89-15.9,5.79-31.8,8.68-47.7-5.6-1.02-11.2-1.99-16.8-2.93,0,0,0,0,0,0-1.41-.24-2.82-.47-4.22-.7.99,2.8,1.97,5.61,2.94,8.42-2.92,17.53-5.84,35.07-8.76,52.6,10.29,1.72,20.57,3.58,30.82,5.59,3.38-3.64,6.78-7.26,10.22-10.87-7.61-1.55-15.23-3.02-22.86-4.41Z"></path>
    </g>
  </g>
  <polygon fill="#1B2265" points="374.31 287.11 416.71 204.42 384.24 154.93 384.03 98.46 350.41 124.5 326.18 98.87 300 124.39 273.82 98.87 249.59 124.5 215.97 98.46 215.76 154.93 183.29 204.42 225.69 287.11 267.94 301.64 300.15 329.73 332.06 301.64 374.31 287.11"></polygon>
  <path fill="#FFFFFF" d="m244.18,159.86c-3.55,5.05-5.82,9.87-7.28,13.7-7.75-5.18-10.57-14.57-6.3-20.98,4.28-6.41,13.77-7.7,22.3-2.84-2.53,2.4-5.94,6.15-8.73,10.12Zm74,119l-18.02-2.15h0s-17.86,2.15-17.86,2.15c-1.72.2-3.09,1.41-3.36,2.99l-.8,4.48c-.21,1.15.51,2.28,1.7,2.68,6.43,2.16,13.58,3.27,20.33,3.28h0c6.79,0,14.02-1.11,20.49-3.28,1.19-.4,1.91-1.53,1.7-2.68l-.8-4.48c-.28-1.57-1.65-2.78-3.36-2.99Zm39.9-99.76l-8.78,20.21c.07,1.14.11,2.27.11,3.42l.05,10.48c.04,8.07-1.45,16.02-4.32,23.47l-3.77,8.05c-.65,1.19-1.35,2.36-2.09,3.51l-3.97,6.2-4.31,6.71c-1.98,3.09-5.81,9.06-7.82,12.2-.6.93-1.62,1.47-2.68,1.47-.32,0-.64-.05-.95-.15l-14.4-4.66c-1.05-.33-1.77-1.3-1.77-2.4l-.05-10.16c0-1.86,1.03-3.55,2.68-4.4l4.25-2.4c3.46-1.76,6.38-4.43,8.44-7.72.29-.46-.05-1.05-.58-1.05-.02,0-.05,0-.06,0l-17.9,1.54h0s-17.76-1.54-17.76-1.54c-.02,0-.04,0-.06,0-.53,0-.87.59-.58,1.05,2.06,3.29,4.99,5.96,8.44,7.72l4.13,2.4c1.65.84,2.69,2.54,2.68,4.4l-.05,10.16c0,1.1-.72,2.07-1.77,2.4l-14.28,4.66c-.31.1-.64.15-.95.15-1.06,0-2.08-.54-2.68-1.47-2.02-3.14-5.85-9.11-7.82-12.2l-4.31-6.71-3.97-6.2c-.74-1.15-1.44-2.32-2.09-3.51l-3.77-8.05c-2.88-7.45-4.36-15.41-4.32-23.47l.05-10.48c0-1.14.04-2.28.11-3.42l-8.78-20.21,13.19.1c3.54-9.12,7.27-16.61,14.68-23.31l29.89,8.55,30.07-8.55c7.41,6.7,11.14,14.19,14.68,23.31l13.19-.1Zm-10.51-29.36c2.53,2.4,5.94,6.15,8.73,10.12,3.55,5.05,5.82,9.87,7.28,13.7,7.75-5.18,10.57-14.57,6.3-20.98-4.28-6.41-13.77-7.7-22.3-2.84Zm-33.61,56.9c1.81.34,3.49.5,5.07.5,15.73,0,20.26-15.58,20.26-15.58l-4.29.84c-8.35,1.64-15.84,6.71-21.04,14.24Zm-48.37-14.24l-4.29-.84s4.53,15.58,20.26,15.58c1.58,0,3.26-.16,5.07-.5-5.2-7.52-12.69-12.59-21.04-14.24Z"></path>
</svg>