<?xml version="1.0" encoding="UTF-8"?>
<svg xmlns="http://www.w3.org/2000/svg" xmlns:xlink="http://www.w3.org/1999/xlink" version="1.1" id="Layer_1" x="0px" y="0px" viewBox="0 0 542.053 75.333" style="enable-background:new 0 0 542.053 75.333;" xml:space="preserve">
<g>
	<path style="fill:#212240;" d="M43.021,62.443c-4.037,1.85-8.579,3.027-12.616,3.027c-14.381,0-27.333-11.774-27.333-28.427   c0-13.793,9.84-24.726,22.792-26.745c9.84-1.346,18.418,1.093,25.062,8.074c2.523,2.859-2.018,6.308-4.373,3.785   c-5.719-6.056-12.363-6.981-19.764-6.14c-10.345,1.598-17.662,8.915-17.662,21.11c0,12.784,9.84,22.54,21.446,22.54   c3.112,0,6.56-0.841,9.756-2.439c2.607-1.346,5.13-3.364,6.896-5.635c1.934-2.86,7.065,0.253,4.878,3.364   C49.833,58.154,46.638,60.677,43.021,62.443z"></path>
	<path style="fill:#212240;" d="M79.35,45.791v16.316c0,3.868-6.14,3.868-6.14,0.083V13.915c0-1.766,1.262-2.943,3.112-2.943h19.933   c14.55,0,21.952,8.242,21.952,18.082c0,8.494-4.626,14.634-14.971,16.4l13.625,14.718c3.196,3.196-1.429,6.896-4.205,4.037   L95.666,45.791H79.35z M79.35,40.492h16.989c11.018,0,15.812-5.131,15.643-11.438c-0.084-6.896-5.887-12.447-15.643-12.447H79.35   V40.492z"></path>
	<path style="fill:#212240;" d="M144.612,58.995h33.221c3.533,0,4.037,5.551,0,5.551h-35.407c-2.355,0-3.869-1.682-3.869-3.7V14.673   c0-1.935,1.514-3.617,3.869-3.617h35.492c3.616,0,3.449,5.383-0.084,5.383h-33.221v18.923h31.623c3.364,0,3.533,5.383,0,5.383   h-31.623V58.995z"></path>
	<path style="fill:#212240;" d="M204.07,51.258c2.187,6.981,11.523,8.494,18.25,8.494c7.149,0,18.25-2.187,18.25-10.681   c0-7.317-8.83-7.906-18.082-8.663c-11.607-0.925-24.054-2.018-24.054-14.55c0-11.102,12.784-16.064,23.045-16.064   c8.83,0,19.848,2.103,23.38,11.69c1.262,3.364-4.457,4.878-5.719,2.018c-2.523-6.392-11.523-7.485-17.578-7.485   c-5.635,0-16.568,2.271-16.568,9.925c0,7.317,8.411,8.074,18.167,8.83c11.522,1.009,23.885,1.598,23.885,14.214   c0,12.868-14.381,16.821-24.726,16.821c-8.578,0-21.699-2.944-24.474-13.036C196.837,49.071,203.397,47.809,204.07,51.258z"></path>
	<path style="fill:#212240;" d="M304.235,10.972c4.122,0,4.122,5.803,0,5.803H285.48c0,15.139,0.084,30.529,0.084,45.668   c0,2.103-1.766,3.112-3.196,3.112c-1.43,0-3.027-1.009-3.027-3.112V16.775h-18.672c-3.952,0-3.952-5.803,0-5.803H304.235z"></path>
	<path style="fill:#212240;" d="M358.9,62.443c-4.037,1.85-8.578,3.027-12.616,3.027c-14.381,0-27.333-11.774-27.333-28.427   c0-13.793,9.84-24.726,22.792-26.745c9.84-1.346,18.418,1.093,25.062,8.074c2.523,2.859-2.018,6.308-4.373,3.785   c-5.719-6.056-12.363-6.981-19.764-6.14c-10.345,1.598-17.662,8.915-17.662,21.11c0,12.784,9.84,22.54,21.446,22.54   c3.112,0,6.56-0.841,9.756-2.439c2.607-1.346,5.13-3.364,6.896-5.635c1.934-2.86,7.065,0.253,4.878,3.364   C365.712,58.154,362.516,60.677,358.9,62.443z"></path>
	<path style="fill:#212240;" d="M384.968,36.875c0-13.204,8.915-24.474,22.288-26.576c3.112-0.42,5.971-0.337,8.915,0   c12.951,2.018,22.958,12.784,22.958,26.576c0,17.494-12.615,28.595-26.912,28.595C397.079,65.471,384.968,54.705,384.968,36.875z    M391.277,37.128c0,13.793,9.082,22.54,20.941,22.54c11.354,0,20.689-8.41,20.689-22.54c0-10.849-7.148-19.512-17.493-21.194   c-2.522-0.336-4.961-0.336-7.317,0C397.921,17.532,391.277,25.69,391.277,37.128z"></path>
	<path style="fill:#212240;" d="M507.756,12.317c1.934-3.027,5.802-2.018,5.802,1.514v48.444c0,4.037-6.139,4.037-6.139,0V24.008   l-17.157,26.829c-1.346,2.439-4.542,2.439-5.804,0l-17.157-26.745v38.183c0,4.037-6.139,4.037-6.139,0V13.831   c0-3.616,4.037-4.541,5.72-1.514l20.521,31.96L507.756,12.317z"></path>
	<g>
		<path style="fill:#212240;" d="M533.326,15.246c0,3.347-2.628,5.975-6.048,5.975c-3.383,0-6.083-2.628-6.083-5.975    c0-3.276,2.7-5.903,6.083-5.903C530.698,9.343,533.326,11.971,533.326,15.246z M522.706,15.246c0,2.627,1.944,4.715,4.607,4.715    c2.592,0,4.5-2.088,4.5-4.68c0-2.627-1.908-4.751-4.536-4.751C524.651,10.531,522.706,12.655,522.706,15.246z M526.342,18.342    h-1.368v-5.903c0.54-0.108,1.296-0.18,2.269-0.18c1.115,0,1.619,0.18,2.052,0.432c0.323,0.252,0.575,0.72,0.575,1.295    c0,0.648-0.504,1.152-1.224,1.368v0.072c0.576,0.216,0.9,0.648,1.08,1.44c0.18,0.9,0.288,1.26,0.432,1.476h-1.476    c-0.18-0.216-0.288-0.756-0.468-1.439c-0.108-0.648-0.468-0.936-1.224-0.936h-0.648V18.342z M526.378,14.994h0.647    c0.756,0,1.368-0.252,1.368-0.864c0-0.54-0.396-0.9-1.26-0.9c-0.36,0-0.612,0.036-0.756,0.072V14.994z"></path>
	</g>
</g>
</svg>
