<?xml version="1.0" encoding="UTF-8"?>
<svg xmlns="http://www.w3.org/2000/svg" xmlns:xlink="http://www.w3.org/1999/xlink" id="Layer_1" version="1.1" viewBox="0 0 515.8 146.33">
  <defs>
    <linearGradient id="linear-gradient" x1="-159.431" y1="373.133" x2="-158.431" y2="373.133" gradientTransform="translate(-32053.523 13904.701) rotate(90) scale(87.206 -87.206)" gradientUnits="userSpaceOnUse">
      <stop offset="0" stop-color="#00adef"></stop>
      <stop offset="1" stop-color="#1c63b7"></stop>
    </linearGradient>
    <linearGradient id="linear-gradient1" x1="-159.503" y1="373.082" x2="-158.503" y2="373.082" gradientTransform="translate(-33436.899 14307.468) rotate(90) scale(89.7 -89.7)" gradientUnits="userSpaceOnUse">
      <stop offset="0" stop-color="#00adef"></stop>
      <stop offset="1" stop-color="#1c63b7"></stop>
    </linearGradient>
    <linearGradient id="linear-gradient2" x1="-159.538" y1="373.045" x2="-158.538" y2="373.045" gradientTransform="translate(-33918.65 14516.756) rotate(90) scale(91 -91)" gradientUnits="userSpaceOnUse">
      <stop offset="0" stop-color="#00adef"></stop>
      <stop offset="1" stop-color="#1c63b7"></stop>
    </linearGradient>
    <linearGradient id="linear-gradient3" x1="-158.458" y1="373.837" x2="-157.458" y2="373.837" gradientTransform="translate(-23550.586 10048.37) rotate(90) scale(63.246 -63.246)" gradientUnits="userSpaceOnUse">
      <stop offset="0" stop-color="#00adef"></stop>
      <stop offset="1" stop-color="#1c63b7"></stop>
    </linearGradient>
    <linearGradient id="linear-gradient4" x1="-158.472" y1="373.814" x2="-157.473" y2="373.814" gradientTransform="translate(-23640.395 10087.655) rotate(90) scale(63.49 -63.49)" gradientUnits="userSpaceOnUse">
      <stop offset="0" stop-color="#00adef"></stop>
      <stop offset="1" stop-color="#1c63b7"></stop>
    </linearGradient>
    <linearGradient id="linear-gradient5" x1="-159.431" y1="373.133" x2="-158.431" y2="373.133" gradientTransform="translate(-32397.395 13904.782) rotate(90) scale(87.206 -87.206)" gradientUnits="userSpaceOnUse">
      <stop offset="0" stop-color="#00adef"></stop>
      <stop offset="1" stop-color="#1c63b7"></stop>
    </linearGradient>
    <linearGradient id="linear-gradient6" x1="-158.39" y1="373.887" x2="-157.39" y2="373.887" gradientTransform="translate(-23006.477 9854.533) rotate(90) scale(62.042 -62.042)" gradientUnits="userSpaceOnUse">
      <stop offset="0" stop-color="#00adef"></stop>
      <stop offset="1" stop-color="#1c63b7"></stop>
    </linearGradient>
    <linearGradient id="linear-gradient7" x1="-158.472" y1="373.83" x2="-157.472" y2="373.83" gradientTransform="translate(-23544.205 10087.655) rotate(90) scale(63.49 -63.49)" gradientUnits="userSpaceOnUse">
      <stop offset="0" stop-color="#00adef"></stop>
      <stop offset="1" stop-color="#1c63b7"></stop>
    </linearGradient>
    <linearGradient id="linear-gradient8" x1="-159.431" y1="373.133" x2="-158.431" y2="373.133" gradientTransform="translate(-32194.107 13904.782) rotate(90) scale(87.206 -87.206)" gradientUnits="userSpaceOnUse">
      <stop offset="0" stop-color="#00adef"></stop>
      <stop offset="1" stop-color="#1c63b7"></stop>
    </linearGradient>
    <linearGradient id="linear-gradient9" x1="-159.432" y1="373.133" x2="-158.432" y2="373.133" gradientTransform="translate(-32194.107 13904.782) rotate(90) scale(87.206 -87.206)" gradientUnits="userSpaceOnUse">
      <stop offset="0" stop-color="#00adef"></stop>
      <stop offset="1" stop-color="#1c63b7"></stop>
    </linearGradient>
    <linearGradient id="linear-gradient10" x1="-159.431" y1="373.133" x2="-158.431" y2="373.133" gradientTransform="translate(-32121.269 13904.782) rotate(90) scale(87.206 -87.206)" gradientUnits="userSpaceOnUse">
      <stop offset="0" stop-color="#00adef"></stop>
      <stop offset="1" stop-color="#1c63b7"></stop>
    </linearGradient>
    <linearGradient id="linear-gradient11" x1="-158.467" y1="373.831" x2="-157.467" y2="373.831" gradientTransform="translate(-23449.495 10073.459) rotate(90) scale(63.402 -63.402)" gradientUnits="userSpaceOnUse">
      <stop offset="0" stop-color="#00adef"></stop>
      <stop offset="1" stop-color="#1c63b7"></stop>
    </linearGradient>
  </defs>
  <g>
    <path d="M0,138.541v-28.839h4.357l8.501,26.041h.087l8.386-26.041h4.071v28.839h-2.555v-26.366h-.078l-8.468,26.366h-2.955l-8.712-26.366h-.073v26.366H0" style="fill: #5a5758;"></path>
    <path d="M31.482,138.541v-20.178h2.393v20.178h-2.393ZM31.206,112.735v-3.033h2.959v3.033h-2.959" style="fill: #5a5758;"></path>
    <path d="M37.754,120.284v-1.921h3.236v-4.149l2.402-1.039v5.188h4.071v1.921h-4.071v12.94c0,2.68.281,3.318,2.193,3.318.804,0,1.356-.041,1.878-.12v2.077c-.716.079-1.521.12-2.284.12-3.23,0-4.189-1.434-4.189-3.916v-14.42h-3.236" style="fill: #5a5758;"></path>
    <path d="M61.162,127.99c0,4.195,0,8.39,4.355,8.39,2,0,3.272-1.319,3.64-2.274.597-1.562.753-2.476.753-8.39,0-4.232-2.275-5.831-4.517-5.831-4.149,0-4.232,5.115-4.232,8.106ZM70.073,118.327h2.356c-.078,1.921-.123,2.918-.123,3.952v16.98c0,4.433-1.355,7.072-7.1,7.072-5.037,0-6.033-3.557-5.877-5.592h2.402c-.169,2.314,1.554,3.675,3.786,3.675,4.674,0,4.394-2.518,4.394-8.551h-.082c-1.039,1.719-2.955,2.44-4.871,2.44-5.785,0-6.19-4.995-6.19-9.471,0-4.673.042-4.714.598-6.874.202-.832,1.604-3.988,5.67-3.988,2.044,0,4.076,1.039,4.959,2.831l.078.087v-2.559" style="fill: #5a5758;"></path>
    <path d="M89.974,118.363v20.178h-2.082v-2.238h-.087c-1.397,1.72-2.831,2.635-5.064,2.635-4.153,0-5.312-3.033-5.312-6.31v-14.264h2.395v13.869c0,.56-.115,4.787,3.359,4.787,3.225,0,4.388-3.032,4.388-4.429v-14.228h2.404" style="fill: #5a5758;"></path>
    <path d="M93.21,120.284v-1.921h3.24v-4.149l2.393-1.039v5.188h4.068v1.921h-4.068v12.94c0,2.68.272,3.318,2.192,3.318.804,0,1.356-.041,1.876-.12v2.077c-.713.079-1.517.12-2.271.12-3.234,0-4.189-1.434-4.189-3.916v-14.42h-3.24" style="fill: #5a5758;"></path>
    <path d="M117.094,127.034c0-4.471-.712-7.149-4.553-7.149s-4.549,2.679-4.549,7.149h9.102ZM107.992,128.951v1.562c0,2.794.758,6.506,4.549,6.506,2.996,0,4.481-1.92,4.435-4.631h2.518c-.281,4.871-2.914,6.549-6.953,6.549-3.47,0-6.944-1.403-6.944-7.505v-4.954c0-5.836,2.436-8.51,6.944-8.51,6.953,0,6.953,4.995,6.953,10.983h-11.502" style="fill: #5a5758;"></path>
    <path d="M126.208,138.541h-2.399v-20.214h2.156v2.518h.087c.959-1.636,2.555-2.876,4.787-2.876,2.082,0,3.915,1.158,4.591,3.157,1.001-1.999,2.72-3.157,4.959-3.157,3.355,0,5.115,2.316,5.229,5.556v15.017h-2.395v-14.424c-.04-1.994-.761-4.232-3.115-4.232-3.033,0-4.2,3.037-4.2,5.67v12.986h-2.389v-14.424c-.043-1.994-.76-4.232-3.116-4.232-3.037,0-4.195,3.037-4.195,5.67v12.986" style="fill: #5a5758;"></path>
    <path d="M173.422,125.637h-5.827v-2.16h8.386v14.425c-2.56.795-5.229,1.2-7.949,1.2-9.38,0-8.708-9.388-8.708-14.985s-.672-14.976,8.708-14.976c5.519,0,8.349,2.357,8.229,7.945h-2.555c0-3.791-1.635-5.786-5.675-5.786-6.236,0-6.148,5.547-6.148,12.816s-.088,12.824,6.148,12.824c2.201,0,4.04-.316,5.389-.84v-10.463" style="fill: #5a5758;"></path>
    <path d="M192.569,127.034c0-4.471-.717-7.149-4.549-7.149s-4.559,2.679-4.559,7.149h9.108ZM183.461,128.951v1.562c0,2.794.757,6.506,4.559,6.506,2.992,0,4.471-1.92,4.435-4.631h2.513c-.28,4.871-2.919,6.549-6.948,6.549-3.48,0-6.953-1.403-6.953-7.505v-4.954c0-5.836,2.436-8.51,6.953-8.51,6.948,0,6.948,4.995,6.948,10.983h-11.506" style="fill: #5a5758;"></path>
    <path d="M200.875,120.284h-3.24v-1.921h3.24v-3.391c0-1.911.276-5.436,5.147-5.436.364,0,.768.087,1.361.165v1.995h-1.797c-2.316,0-2.316,2.081-2.316,3.24v3.428h4.076v1.921h-4.076v18.257h-2.395v-18.257" style="fill: #5a5758;"></path>
    <path d="M218.728,111.696h2.56v4.039h-2.56v-4.039ZM212.423,111.696h2.556v4.039h-2.556v-4.039ZM223.126,118.363v20.178h-2.083v-2.238h-.079c-1.391,1.72-2.831,2.635-5.068,2.635-4.159,0-5.312-3.033-5.312-6.31v-14.264h2.393v13.869c0,.56-.119,4.787,3.36,4.787,3.236,0,4.393-3.032,4.393-4.429v-14.228h2.395" style="fill: #5a5758;"></path>
    <path d="M228.168,138.541v-28.839h2.395v11.143h.083c1.152-1.682,2.711-2.876,4.867-2.876,4.991,0,5.513,3.712,5.513,6.35v14.222h-2.397v-14.097c0-2.362-.92-4.558-3.719-4.558-2.151,0-4.347,1.479-4.347,5.992v12.664h-2.395" style="fill: #5a5758;"></path>
    <path d="M246.714,138.541h2.398v-28.839h-2.398v28.839Z" style="fill: #5a5758;"></path>
    <path d="M263.727,109.702h2.399v17.577h.077l6.948-8.915h2.8l-7.146,8.994,7.624,11.184h-3.033l-7.192-10.987h-.077v10.987h-2.399v-28.839" style="fill: #5a5758;"></path>
    <path d="M281.74,121.084h.081c.997-1.921,3.116-3.116,5.552-3.116v2.435c-3.401-.276-5.633,1.756-5.633,5.151v12.986h-2.399v-20.178h2.399v2.721" style="fill: #5a5758;"></path>
    <path d="M300.566,128.234c-3.441.119-8.629-.276-8.629,4.632,0,2.278,1.157,4.153,3.631,4.153,2.756,0,4.999-2.472,4.999-5.109v-3.677ZM300.718,136.064h-.079c-1.277,1.917-3.239,2.873-5.707,2.873-3.599,0-5.552-2.436-5.552-5.952,0-7.068,7.109-6.35,11.185-6.668v-1.677c0-2.96-.887-4.756-4.076-4.756-2.196,0-3.961,1.079-3.961,3.473h-2.56c.203-3.873,3.204-5.39,6.714-5.39,2.04,0,6.273.202,6.273,5.353v10.142c0,1.443,0,2.72.237,5.077h-2.476v-2.477" style="fill: #5a5758;"></path>
    <path d="M310.419,138.541h-2.404v-20.178h2.404v2.482h.084c1.157-1.682,2.715-2.876,4.871-2.876,4.989,0,5.515,3.712,5.515,6.35v14.222h-2.4v-14.097c0-2.362-.917-4.558-3.721-4.558-2.145,0-4.348,1.479-4.348,5.992v12.664" style="fill: #5a5758;"></path>
    <path d="M325.845,109.702h2.403v17.577h.079l6.948-8.915h2.803l-7.16,8.994,7.633,11.184h-3.032l-7.192-10.987h-.079v10.987h-2.403v-28.839" style="fill: #5a5758;"></path>
    <path d="M352.298,127.034c0-4.471-.717-7.149-4.555-7.149s-4.557,2.679-4.557,7.149h9.112ZM343.186,128.951v1.562c0,2.794.757,6.506,4.557,6.506,2.997,0,4.472-1.92,4.431-4.631h2.523c-.285,4.871-2.923,6.549-6.953,6.549-3.473,0-6.947-1.403-6.947-7.505v-4.954c0-5.836,2.435-8.51,6.947-8.51,6.953,0,6.953,4.995,6.953,10.983h-11.51" style="fill: #5a5758;"></path>
    <path d="M361.444,138.541h-2.389v-20.178h2.389v2.482h.083c1.163-1.682,2.717-2.876,4.872-2.876,4.995,0,5.517,3.712,5.517,6.35v14.222h-2.397v-14.097c0-2.362-.915-4.558-3.709-4.558-2.164,0-4.365,1.479-4.365,5.992v12.664" style="fill: #5a5758;"></path>
    <path d="M382.177,135.504h.077l4.913-17.141h2.316l-5.992,20.178h-2.757l-5.989-20.178h2.597l4.835,17.141" style="fill: #5a5758;"></path>
    <path d="M403.323,127.034c0-4.471-.716-7.149-4.553-7.149s-4.555,2.679-4.555,7.149h9.108ZM394.215,128.951v1.562c0,2.794.753,6.506,4.555,6.506,2.991,0,4.472-1.92,4.433-4.631h2.509c-.275,4.871-2.912,6.549-6.942,6.549-3.479,0-6.953-1.403-6.953-7.505v-4.954c0-5.836,2.435-8.51,6.953-8.51,6.942,0,6.942,4.995,6.942,10.983h-11.497" style="fill: #5a5758;"></path>
    <path d="M412.616,121.084h.087c.997-1.921,3.116-3.116,5.552-3.116v2.435c-3.397-.276-5.639,1.756-5.639,5.151v12.986h-2.389v-20.178h2.389v2.721" style="fill: #5a5758;"></path>
    <path d="M426.523,138.937c-4.352,0-6.071-2.114-6.033-6.393h2.444c0,2.757.64,4.595,3.713,4.595,2.32,0,3.432-1.315,3.432-3.557,0-5.27-9.065-3.906-9.065-10.583,0-3.718,2.56-5.032,6.075-5.032,3.993,0,5.271,2.757,5.271,5.831h-2.361c-.116-2.555-.791-3.915-3.512-3.915-1.713,0-3.075,1.116-3.075,2.918,0,5.036,9.066,3.676,9.066,10.422,0,3.795-2.196,5.713-5.955,5.713" style="fill: #5a5758;"></path>
    <path d="M437.509,138.541v-20.178h2.393v20.178h-2.393ZM437.229,112.735v-3.033h2.953v3.033h-2.953" style="fill: #5a5758;"></path>
    <path d="M454.575,124.159c.123-2.514-.796-4.273-3.557-4.273-1.476,0-2.716.84-3.235,2.316-.321.919-.556,3.677-.556,6.351,0,3.634,0,8.468,3.717,8.468,3.147,0,3.547-1.994,3.667-4.429h2.404c.192,5.432-3.645,6.347-5.52,6.347-6.824,0-6.824-5.391-6.824-10.386,0-1.995.073-5.152.588-6.668,1.048-2.876,3.317-3.915,6.085-3.915,3.468,0,5.821,1.957,5.633,6.19h-2.403" style="fill: #5a5758;"></path>
    <path d="M461.122,138.541v-28.839h2.392v11.143h.084c1.157-1.682,2.716-2.876,4.871-2.876,4.999,0,5.515,3.712,5.515,6.35v14.222h-2.395v-14.097c0-2.362-.919-4.558-3.717-4.558-2.151,0-4.357,1.479-4.357,5.992v12.664h-2.392" style="fill: #5a5758;"></path>
    <path d="M489.854,127.034c0-4.471-.717-7.149-4.549-7.149s-4.555,2.679-4.555,7.149h9.104ZM480.751,128.951v1.562c0,2.794.755,6.506,4.555,6.506,2.988,0,4.472-1.92,4.431-4.631h2.512c-.275,4.871-2.912,6.549-6.942,6.549-3.479,0-6.952-1.403-6.952-7.505v-4.954c0-5.836,2.435-8.51,6.952-8.51,6.942,0,6.942,4.995,6.942,10.983h-11.497" style="fill: #5a5758;"></path>
    <path d="M499.161,121.084h.084c1-1.921,3.119-3.116,5.555-3.116v2.435c-3.396-.276-5.639,1.756-5.639,5.151v12.986h-2.389v-20.178h2.389v2.721" style="fill: #5a5758;"></path>
    <path d="M505.907,120.284v-1.921h3.24v-4.149l2.4-1.039v5.188h4.067v1.921h-4.067v12.94c0,2.68.275,3.318,2.191,3.318.796,0,1.361-.041,1.876-.12v2.077c-.717.079-1.512.12-2.271.12-3.24,0-4.196-1.434-4.196-3.916v-14.42h-3.24" style="fill: #5a5758;"></path>
  </g>
  <g>
    <path d="M495.761,1.36l-21.378,37.322h-.239V1.36h-18.234v87.206h18.234v-44.691h.239l20.898,44.691h20.533l-24.391-48.068,24.391-39.138h-20.053" style="fill: url(#linear-gradient);"></path>
    <path d="M.221,24.518c0,25.963,38.002,26.933,38.002,42.634,0,5.914-3.116,9.903-9.493,9.903-10.385,0-10.763-7.008-10.763-15.344H0v12.738c2.059,7.804,7.527,13.714,19.337,15.249h14.76c11.948-1.296,23.261-6.489,23.261-24.839,0-27.419-38.012-25.973-38.012-42.515,0-6.043,3.63-9.305,9.751-9.305,7.628,0,8.759,6.649,8.759,13.169h18.37C57.474,7.965,48.348-.003,29.977-.003,6.964-.003.218,10.868.218,24.517" style="fill: url(#linear-gradient1);"></path>
    <path d="M19.066,89.798c-7.134-.96-14.577-4.421-17.684-11.312C-.958,74.183.302,69.225.002,64.576c-.803-2.773.653-3.275,2.987-2.91h15.012c.12,4.936-.245,11.581,4.971,14.137,4.815,2.407,12.3,1.413,14.393-4.166,1.957-4.455.205-9.749-3.524-12.698-6.433-5.483-14.58-8.389-21.365-13.385C6.017,41.191.548,34.405.253,26.315-.567,17.791,2.648,8.089,10.66,3.972,17.931.042,26.547-.343,34.629.112c6.983.569,14.602,2.962,18.456,9.272,3.051,4.936,3.556,10.994,3.222,16.664-3.291.631-6.715.144-10.07.286h-8.504c.217-4.752-.555-11.495-6.058-12.856-4.513-1.23-10.596.544-11.769,5.601-1.554,4.547.684,9.511,4.476,12.2,8.588,6.479,19.644,9.405,27.031,17.536,4.576,4.962,6.511,11.851,5.953,18.505-.326,7.007-3.177,14.378-9.429,18.129-4.035,2.567-8.731,3.657-13.405,4.351" style="fill: url(#linear-gradient2);"></path>
    <path d="M75.931,30.437c-4.128,2.775-6.508,7.485-6.508,14.857h17.278c0-4.835.496-9.306,6.636-9.306,6.379,0,7.123,3.745,7.123,8.937v4.715c-16.388-.244-32.543.602-32.543,20.775,0,9.808,3.85,18.081,14.097,19.284h5.523c6.094-.68,10.404-3.676,13.676-9.145h.248l.754,8.097h16.396c-.377-3.741-.873-7.61-.873-11.357v-30.43c0-11.115-2.877-20.411-25.282-20.411-6.764,0-12.518,1.084-16.524,3.984M85.196,69.685c0-10.867,6.516-10.146,15.265-10.505,0,6.64,1.626,20.169-8.75,20.169-5.763,0-6.516-5.317-6.516-9.664" style="fill: url(#linear-gradient3);"></path>
    <path d="M81.598,89.798c-3.477-.659-6.943-2.02-9.273-4.808-2.822-3.292-4.105-7.66-4.359-11.944-.216-2.227-.119-4.492.103-6.708.59-3.146,1.333-6.438,3.435-8.965,2.283-3.19,5.948-5.129,9.674-6.174,4.013-1.161,8.216-1.479,12.399-1.606,2.269-.129,4.547-.027,6.82-.06-.141-3.639.523-7.451-1.067-10.858-1.748-2.575-5.149-2.856-8-2.475-3.094.71-4.485,3.931-4.476,6.844.704,2.722-1.517,2.489-3.472,2.356h-14.052c.021-4.937,1.161-10.181,4.8-13.733,3.009-2.554,6.74-4.089,10.621-4.667,2.883-.543,5.837-.602,8.766-.643,4.03.202,8.082.381,11.975,1.576,3.429.903,6.769,2.69,8.962,5.582,1.878,2.386,2.743,5.451,3.072,8.489.583,6.001.247,12.052.336,18.08v20.382c-.005,2.681,1.258,6.106.309,8.31-5.334-.098-10.696-.017-16.042-.044-.233-2.675-.431-5.361-.751-8.012-1.566,2.02-3.19,4.484-5.491,5.937-2.43,1.913-5.571,2.784-8.645,3.144-1.881-.004-3.764-.004-5.646-.002h0ZM90.798,79.132c3.539.749,7.362-1.625,8.376-5.057,1.262-3.38,1.344-7.079,1.329-10.653.008-2.303.325-5.288-2.97-4.052-3.179.041-6.49.207-9.269,1.895-2.926,2.524-3.134,6.691-2.933,10.263.094,2.938,1.205,6.586,4.378,7.409l.288.194" style="fill: url(#linear-gradient4);"></path>
    <path d="M132.663,88.651h18.676V1.446h-18.676v87.206Z" style="fill: url(#linear-gradient5);"></path>
    <path d="M196.928,27.657v42.271c0,5.436-1.039,9.42-6.884,9.42s-6.884-3.984-6.884-9.42V27.657h-18.334v48.912c0,7.588,6.176,12.258,13.73,13.13h5.791c5.284-.552,9.273-2.638,12.324-7.206h.257v6.158h18.988c-.387-3.989-.653-8.097-.653-12.083V27.657h-18.334" style="fill: url(#linear-gradient6);"></path>
    <path d="M178.262,89.798c-3.09-.56-6.171-1.528-8.687-3.479-3.18-2.353-5.032-6.371-4.779-10.35V27.533h18.4v43.866c.289,2.744.758,6.189,3.75,7.304,3.06,1.205,7.269.637,8.916-2.504,1.443-3.764.784-7.85.933-11.795V27.533h18.533v52.265c.228,2.489.263,5.011.547,7.514.783,2.271-2.083,1.195-3.428,1.419h-15.653v-6.133c-1.723,2.282-3.796,4.37-6.431,5.609-1.768.848-3.685,1.148-5.569,1.591" style="fill: url(#linear-gradient7);"></path>
    <path d="M315.699,1.44v87.206h32.241c7.729,0,26.937-.966,26.937-23.071,0-11.961-3.383-20.287-16.304-22.102v-.244c9.897-1.93,14.852-9.182,14.852-19.204,0-18.597-11.478-22.585-25.366-22.585h-32.359ZM333.933,14.849h11.23c6.157,0,10.505,4.706,10.505,11.111,0,8.456-5.552,11.112-9.54,11.112h-12.196V14.849ZM333.933,50.476h10.624c9.181,0,12.085,4.71,12.085,12.443,0,12.196-8.702,12.316-12.564,12.316h-10.145v-24.759" style="fill: url(#linear-gradient8);"></path>
    <path d="M315.592,88.731V1.4h35.732c5.936.463,12.481,1.598,16.722,6.11,4.661,4.745,5.668,11.869,5.387,18.292-.376,5.446-2.475,11.238-7.255,14.264-1.779,1.919-5.775,2.356-7.122,3.467,5.445.613,10.951,3.405,13.333,8.533,2.675,5.329,2.759,11.568,2.341,17.408-.641,5.225-2.779,10.622-7.141,13.792-4.968,4.199-11.824,5.193-18.173,5.464-11.274.007-22.551,0-33.826.003h0ZM333.992,74.998c4.246.271,8.534.071,12.8.133,3.652-.351,7.352-2.286,8.651-5.913,1.612-4.348,1.554-9.433-.335-13.689-2.145-4.039-7.079-5.169-11.328-4.931h-9.788v24.399h0ZM333.992,36.866c4.379.271,8.801.072,13.2.133,3.833-.566,7.156-3.461,7.896-7.304,1.484-4.822-.189-10.637-4.562-13.362-4.346-2.262-9.371-1.25-14.093-1.467-1.306,0-3.05-.438-2.44,1.479v20.521h0Z" style="fill: url(#linear-gradient9);"></path>
    <path d="M428.016,1.44l-21.378,37.322h-.239V1.44h-18.234v87.206h18.234v-44.691h.239l20.898,44.691h20.533l-24.391-48.068L448.069,1.44h-20.053" style="fill: url(#linear-gradient10);"></path>
    <path d="M245.661,68.899c-.119,2.775,0,5.436.847,7.371.964,1.934,2.785,2.895,6.167,2.895s6.277-2.174,6.277-6.282c0-12.922-29.951-10.023-29.951-29.469,0-13.161,13.04-17.145,24.031-17.145,11.6,0,22.103,5.551,21.139,18.717h-16.672c0-4.223-.477-6.759-1.692-7.849-1.084-1.084-2.536-1.332-4.347-1.332-3.74,0-5.8,2.422-5.8,6.525,0,9.664,29.953,9.177,29.953,28.743,0,10.63-8.694,18.6-22.829,18.6-14.853,0-24.751-3.741-23.785-20.773h16.661" style="fill: url(#linear-gradient11);"></path>
  </g>
</svg>
