<?xml version="1.0" encoding="utf-8"?>
<!-- Generator: Adobe Illustrator 21.1.0, SVG Export Plug-In . SVG Version: 6.00 Build 0)  -->
<svg version="1.1" id="Ebene_1" xmlns="http://www.w3.org/2000/svg" xmlns:xlink="http://www.w3.org/1999/xlink" x="0px" y="0px"
	 viewBox="0 0 277.3 91.4" style="enable-background:new 0 0 277.3 91.4;" xml:space="preserve">
<style type="text/css">
	.st0{fill:#D9272E;}
	.st1{fill-rule:evenodd;clip-rule:evenodd;fill:#D9272E;}
</style>
<g>
	<path class="st0" d="M35.5,36.2h47.6l-3.9,18.5H31.6l-7.8,36.7H0L17.8,7.8C18.6,4,22.6,0.1,28,0.1h62.8l-3.9,18.4l-47.6,0
		L35.5,36.2L35.5,36.2z"/>
	<path class="st1" d="M181.4,0.1L115,0c-5.5,0-9.4,3.9-10.3,8.1l-2.2,10.4h74.9L181.4,0.1L181.4,0.1z"/>
	<path class="st0" d="M190.7,72.8h40.9c7.1,0,11.7-3.4,13-8.3c1.6-6.1-1.7-9.9-9.1-9.9l-19.9,0l-6.6,0c-15.5,0-21.5-8.4-19.3-18.5
		l3.8-17.6C195.8,7.3,206.7,0,220.6,0h56.7l-3.9,18.4h-50.1c-7.1,0-10.9,4-12,7.9c-1.5,5.1,0.8,9.7,8.3,9.7H248
		c15,0,19.8,8.2,17.6,18.5l-3.9,18.2c-2.4,11.2-15.6,18.5-27.5,18.5H178l2.3-10.7C181.3,75.8,185.9,72.8,190.7,72.8L190.7,72.8z"/>
	<path class="st1" d="M173.8,36.1h-66.6c-5.5,0-9.3,3.9-10.2,8.1l-2.2,10.5l74.9-0.1L173.8,36.1L173.8,36.1z"/>
	<path class="st1" d="M166,72.8H99.8c-5.5,0-9.7,4-10.6,8.2L87,91.4h74.9L166,72.8L166,72.8z"/>
</g>
</svg>
