<?xml version="1.0" encoding="UTF-8"?>
<svg xmlns="http://www.w3.org/2000/svg" xmlns:xlink="http://www.w3.org/1999/xlink" version="1.1" id="Ebene_1" x="0px" y="0px" viewBox="0 0 266.3 93.9" style="enable-background:new 0 0 266.3 93.9;" xml:space="preserve">
<style type="text/css">
	.st0{fill:#282727;}
	.st1{fill:#E8412C;}
</style>
<g>
	<polygon class="st0" points="91.3,92.5 84.7,75.1 82.6,75.1 82.6,94 83.6,94 83.6,76 83.9,76 90.6,93.4 92,93.4 98.6,76 99,76    99,94 99.9,94 99.9,75.1 97.9,75.1  "></polygon>
	<polygon class="st0" points="104.9,94 115.9,94 115.9,93.1 105.9,93.1 105.9,84.8 114.3,84.8 114.3,83.9 105.9,83.9 105.9,76    115.9,76 115.9,75.1 104.9,75.1  "></polygon>
	<path class="st0" d="M131.7,78c-0.5-0.9-1.1-1.6-2-2.1c-0.8-0.5-1.8-0.8-3-0.8h-7V94l1,0l0-18h6c1.3,0,2.3,0.4,3.2,1.3   c0.8,0.8,1.4,1.9,1.7,3c0.3,1.2,0.4,2.4,0.4,3.7c0,1.3-0.1,2.4-0.3,3.4c-0.2,1-0.5,1.9-0.8,2.8c-0.4,0.9-0.9,1.6-1.6,2.1   c-0.4,0.3-0.9,0.5-1.4,0.6v0.9c0.7-0.1,1.3-0.3,1.8-0.7c0.9-0.5,1.5-1.3,2-2.2c0.5-0.9,0.8-2,1-3.1c0.2-1.1,0.3-2.3,0.3-3.5   c0-1.3-0.1-2.4-0.3-3.5C132.5,79.8,132.2,78.9,131.7,78z"></path>
	<rect x="137.2" y="75.1" class="st0" width="1" height="18.9"></rect>
	<polygon class="st0" points="147.2,75.1 141.4,94 142.4,94 144.2,88.2 144.5,87.3 147.9,76 149.4,76 152.9,87.3 150.2,87.3    150.2,88.2 153.1,88.2 154.9,94 155.9,94 150.1,75.1  "></polygon>
</g>
<g>
	<polygon class="st0" points="101.6,38.4 98.6,38.4 90.3,52.2 85.2,52.3 85.2,38.4 82.6,38.4 82.6,67.9 85.2,67.9 85.2,54.6    90.4,54.6 99,67.9 102.1,67.9 92.6,53.2  "></polygon>
	<polygon class="st0" points="116.8,59.8 122.1,59.8 124.4,67.9 127,67.9 118.6,38.4 112.4,38.4 103.9,67.9 106.5,67.9 108.9,59.8    109.5,57.4 114.3,40.7 116.6,40.7 121.4,57.4 116.8,57.4  "></polygon>
	<polygon class="st0" points="148,65.5 134.4,65.5 134.4,38.4 131.8,38.4 131.8,67.9 148,67.9  "></polygon>
	<polygon class="st0" points="154.8,38.4 152.2,38.4 152.2,67.9 168.4,67.9 168.4,65.5 154.8,65.5  "></polygon>
	<rect x="172.6" y="38.4" class="st0" width="2.6" height="29.6"></rect>
	<polygon class="st0" points="201.2,65.6 200.2,65.6 187.8,38.4 182.7,38.4 182.7,67.9 185.3,67.9 185.3,40.7 186.2,40.7    198.7,67.9 203.8,67.9 203.8,38.4 201.2,38.4  "></polygon>
	<rect x="211.2" y="38.4" class="st0" width="2.6" height="29.6"></rect>
	<path class="st0" d="M225.2,42.4c0.6-0.6,1.4-1.2,2.4-1.5c1-0.4,2.4-0.6,4.1-0.6c1.8,0,4.2,0.3,7.1,0.8l0.1-2.3   c-3-0.6-5.6-0.9-8-0.9c-3.4,0-6,0.9-7.6,2.6c-2.1,2.1-3.1,6.3-3.1,12.7c0,4,0.4,7.2,1.3,9.5c0.5,1.3,1.1,2.3,1.9,3.1   c0.8,0.8,1.8,1.4,3.1,1.9c1.3,0.4,2.9,0.7,5,0.7c2.1,0,4.5-0.3,7.5-0.9l-0.1-2.3c-2.9,0.5-5.4,0.8-7.3,0.8c-2,0-3.5-0.3-4.6-0.8   c-1.1-0.5-1.9-1.4-2.5-2.5c-0.6-1.2-1-2.5-1.2-3.9c-0.2-1.4-0.3-3.6-0.3-6.5c0-2.9,0.3-5.3,0.8-7.2   C224.1,43.9,224.5,43.1,225.2,42.4z"></path>
	<polygon class="st0" points="263.1,38.4 263.1,51.9 247,51.9 247,38.4 244.4,38.4 244.4,67.9 247,67.9 247,54.3 263.1,54.3    263.1,67.9 265.7,67.9 265.7,38.4  "></polygon>
</g>
<g>
	<polygon class="st1" points="43.1,33.5 17.2,59.4 51.7,93.9 73.3,93.9 38.8,59.4 64.7,33.5  "></polygon>
	<polygon class="st1" points="0,17.2 17.2,0 17.2,59.4 0,76.6  "></polygon>
	<polygon class="st1" points="17.2,76.6 0,93.9 0,93.9 17.2,93.9  "></polygon>
</g>
</svg>
