<?xml version="1.0" encoding="UTF-8"?>
<svg xmlns="http://www.w3.org/2000/svg" xmlns:i="http://ns.adobe.com/AdobeIllustrator/10.0/" id="Layer_1" version="1.1" viewBox="0 0 600 160">
  <path d="M91.135,75.967l4.605,17.27h13.432v29.934c-2.878,1.343-8.635,2.303-16.502,2.303-24.754,0-41.639-16.118-41.639-43.366,0-27.823,18.037-42.982,43.558-42.982,12.665,0,20.723,2.303,27.248,5.181l4.797-17.654c-5.565-2.686-17.078-5.565-31.853-5.565-39.72,0-66.776,24.178-66.776,62.171,0,18.037,6.14,33.772,16.886,43.942,11.321,10.937,26.672,15.927,47.011,15.927,15.927,0,30.893-3.838,38.569-6.716v-60.443h-39.337ZM513.283,104.941c.576,15.735,12.665,22.45,26.672,22.45,9.978,0,17.27-1.535,23.985-4.029l3.262,15.159c-7.483,3.07-17.654,5.565-30.317,5.565-28.015,0-44.517-17.461-44.517-43.942,0-23.985,14.583-46.436,42.406-46.436,28.207,0,37.226,23.218,37.226,42.023,0,4.03-.384,7.292-.767,9.21h-57.949ZM551.277,89.59c0-8.059-3.454-21.107-18.037-21.107-13.432,0-18.997,12.28-20.147,21.107h38.185ZM439.214,93.427h.384c2.111-3.454,4.605-7.1,6.908-10.17l21.107-27.823h26.288l-32.045,35.498,36.65,51.233h-26.864l-24.945-38.185-7.292,8.827v29.55h-21.875V15.907h21.683v77.52ZM410.047,139.48c-4.605,2.111-13.624,4.413-24.369,4.413-27.056,0-44.709-17.461-44.709-44.325,0-25.904,17.654-46.052,48.163-46.052,8.059,0,16.118,1.727,21.107,4.03l-3.838,16.502c-3.454-1.727-8.827-3.454-16.502-3.454-16.694,0-26.672,12.28-26.48,28.015,0,17.845,11.705,28.015,26.672,28.015,7.483,0,12.856-1.535,17.27-3.454l2.686,16.311ZM333.101,31.254c0,6.524-4.797,11.897-12.472,11.897-7.292,0-12.089-5.181-12.089-11.897s4.989-11.897,12.28-11.897c7.483.192,12.089,5.181,12.28,11.897M309.882,55.623h21.875v86.54h-21.875V55.623ZM217.01,81.335c0-9.978-.384-18.229-.768-25.712h19.189l1.151,13.048h.576c3.838-6.716,13.24-14.967,27.631-14.967,15.159,0,30.702,9.786,30.702,37.034v51.425h-21.875v-48.93c0-12.472-4.605-21.875-16.502-21.875-8.635,0-14.775,6.14-17.078,12.856-.768,1.727-.959,4.413-.959,6.908v51.042h-21.875v-60.828h-.192ZM203.578,31.253c0,6.524-4.797,11.897-12.472,11.897-7.292,0-12.089-5.181-12.089-11.897s4.989-11.897,12.28-11.897c7.483.192,12.089,5.181,12.28,11.897M180.359,55.622h21.875v86.54h-21.875V55.622ZM143.517,15.902h21.875v126.263h-21.875V15.902Z" style="fill: #0b283d;"></path>
  <metadata></metadata>
</svg>
