<?xml version="1.0" encoding="UTF-8"?>
<svg id="Ebene_1" xmlns="http://www.w3.org/2000/svg" version="1.1" viewBox="0 0 161.7 51.8">
  <!-- Generator: Adobe Illustrator 30.5.1, SVG Export Plug-In . SVG Version: 2.1.4 Build 3)  -->
  <defs>
    <style>
      .st0 {
        fill: #fc0;
      }

      .st1, .st2, .st3 {
        fill-rule: evenodd;
      }

      .st1, .st4 {
        fill: #1d1d1b;
      }

      .st2, .st5 {
        fill: #008bc5;
      }

      .st6, .st3 {
        fill: #e9e4e3;
      }

      .st7 {
        fill: #e30613;
      }
    </style>
  </defs>
  <g>
    <path class="st5" d="M139.8,38.6c.8-1.8.9-3.5.9-5.4V14.4h-27.6v18.7c0,1.9.2,3.6.9,5.4,2.4,5.4,7.1,8.1,12.8,8.1,5.7,0,10.4-2.7,12.8-8.1h0Z"/>
    <path class="st4" d="M139.8,38.6c.8-1.8.9-3.5.9-5.4V14.4h-27.6v18.7c0,1.9.2,3.6.9,5.4,2.4,5.4,7.1,8.1,12.8,8.1,5.7,0,10.4-2.7,12.8-8.1h0ZM140.1,38.8c-2.4,5.5-7.4,8.4-13.2,8.3-5.8,0-10.7-2.7-13.2-8.3-.8-1.9-.9-3.6-1-5.6V14h28.3v19.1c0,2-.1,3.7-1,5.6h0Z"/>
    <path class="st4" d="M135.7,18.3l-.6-1,.6-1h-1.1l-.6-1-.6,1h-1.1l.6,1-.6,1h1.1l.6,1,.6-1h1.1ZM135.9,18.4h-1.3l-.6,1.1-.6-1.1h-1.3l.6-1.1-.6-1.1h1.3l.6-1.1.6,1.1h1.3l-.6,1.1.6,1.1h0Z"/>
    <polygon class="st6" points="135.7 18.3 134.6 18.3 134 19.3 133.4 18.3 132.3 18.3 132.8 17.3 132.3 16.2 133.4 16.2 134 15.2 134.6 16.2 135.7 16.2 135.1 17.3 135.7 18.3 135.7 18.3"/>
    <path class="st4" d="M139.6,24.1l-.6-1,.6-1h-1.1l-.6-1-.6,1h-1.2l.6,1-.6,1h1.2l.6,1,.6-1h1.1ZM139.8,24.3h-1.3l-.6,1.1-.6-1.1h-1.3l.6-1.1-.6-1.1h1.3l.6-1.1.6,1.1h1.3l-.6,1.1.6,1.1h0Z"/>
    <polygon class="st6" points="139.6 24.1 138.5 24.1 137.9 25.2 137.3 24.1 136.2 24.1 136.8 23.1 136.2 22.1 137.3 22.1 137.9 21.1 138.5 22.1 139.6 22.1 139.1 23.1 139.6 24.1 139.6 24.1"/>
    <path class="st4" d="M135.4,29.9l-.6-1,.6-1h-1.1l-.6-1-.6,1h-1.1l.6,1-.6,1h1.1l.6,1,.6-1h1.1ZM135.7,30h-1.3l-.6,1.1-.6-1.1h-1.3l.6-1.1-.6-1.1h1.3l.6-1.1.6,1.1h1.3l-.6,1.1.6,1.1h0Z"/>
    <polygon class="st6" points="135.4 29.9 134.3 29.9 133.7 30.9 133.1 29.9 132 29.9 132.6 28.9 132 27.9 133.1 27.9 133.7 26.9 134.3 27.9 135.4 27.9 134.9 28.9 135.4 29.9 135.4 29.9"/>
    <path class="st4" d="M139.5,36l-.6-1,.6-1h-1.1l-.6-1-.6,1h-1.1l.6,1-.6,1h1.1l.6,1,.6-1h1.1ZM139.7,36.2h-1.3l-.6,1.1-.6-1.1h-1.3l.6-1.1-.6-1.1h1.3l.6-1.1.6,1.1h1.3l-.6,1.1.6,1.1h0Z"/>
    <polygon class="st6" points="139.5 36 138.3 36 137.8 37.1 137.2 36 136 36 136.6 35 136 34 137.2 34 137.8 33 138.3 34 139.5 34 138.9 35 139.5 36 139.5 36"/>
    <path class="st4" d="M128.4,44.6l-.6-1,.6-1h-1.1l-.6-1-.6,1h-1.1l.6,1-.6,1h1.1l.6,1,.6-1h1.1ZM128.6,44.7h-1.3l-.6,1.1-.6-1.1h-1.3l.6-1.1-.6-1.1h1.3l.6-1.1.6,1.1h1.3l-.6,1.1.6,1.1h0Z"/>
    <polygon class="st6" points="128.4 44.6 127.2 44.6 126.6 45.6 126.1 44.6 124.9 44.6 125.5 43.6 124.9 42.6 126.1 42.6 126.6 41.6 127.2 42.6 128.4 42.6 127.8 43.6 128.4 44.6 128.4 44.6"/>
    <path class="st4" d="M118.7,38l-.6-1,.6-1h-1.1l-.6-1-.6,1h-1.1l.6,1-.6,1h1.1l.6,1,.6-1h1.1ZM118.9,38.2h-1.3l-.6,1.1-.6-1.1h-1.3l.6-1.1-.6-1.1h1.3l.6-1.1.6,1.1h1.3l-.6,1.1.6,1.1h0Z"/>
    <polygon class="st6" points="118.7 38 117.5 38 117 39 116.4 38 115.2 38 115.8 37 115.2 36 116.4 36 117 35 117.5 36 118.7 36 118.1 37 118.7 38 118.7 38"/>
    <path class="st4" d="M117.5,28.2l-.6-1,.6-1h-1.1l-.6-1-.6,1h-1.1l.6,1-.6,1h1.1l.6,1,.6-1h1.1ZM117.7,28.3h-1.3l-.6,1.1-.6-1.1h-1.3l.6-1.1-.6-1.1h1.3l.6-1.1.6,1.1h1.3l-.6,1.1.6,1.1h0Z"/>
    <polygon class="st6" points="117.5 28.2 116.3 28.2 115.8 29.2 115.2 28.2 114 28.2 114.6 27.2 114 26.2 115.2 26.2 115.8 25.1 116.3 26.2 117.5 26.2 116.9 27.2 117.5 28.2 117.5 28.2"/>
    <path class="st4" d="M122,18.2l-.6-1,.6-1h-1.2l-.6-1-.6,1h-1.1l.6,1-.6,1h1.1l.6,1,.6-1h1.2ZM122.3,18.3h-1.3l-.6,1.1-.6-1.1h-1.3l.6-1.1-.6-1.1h1.3l.6-1.1.6,1.1h1.3l-.6,1.1.6,1.1h0Z"/>
    <polygon class="st6" points="122 18.2 120.9 18.2 120.3 19.2 119.7 18.2 118.6 18.2 119.2 17.2 118.6 16.1 119.7 16.1 120.3 15.1 120.9 16.1 122 16.1 121.5 17.2 122 18.2 122 18.2"/>
    <path class="st7" d="M131,20.6h-4.3s0,0,0,0c0-.2,0-.4,0-.6,0-.3-.2-.5-.6-.6-.6,0-1,.4-1.5.3-.6-.1-.5-.7-.5-.9,0-.1,0-.2.1-.3,0,0,0,0,0,0,0,0,0-.2,0-.3,0-.2.3-.2.5-.4.2,0,.5-.1.8-.4h4.5s1-.2,1.2,0c0,.3.2.9-.5,1.8.3.3.4.8.4,1.5h0Z"/>
    <path class="st6" d="M119.9,23.9c0-.3,0-.6,0-.9,1.3.5,1.9-.1,2.3-.3.5-.2,1.3-.2,1.8,0,1.4.6,2,.2,2.1-.2,0-.3,0-.8-1.3-.7-.2,0-.2,0-.3-.1,0,0-.1-.5-.1-.7,0,0,0,0,.1-.2.7-.2,1-.1,1.5,0,.3.2.5,0,.7-.3h4.3c-.1,1,.4,1.5.4,1.5-.2,0-.4,0-.6-.2.2.8.2,1.3,0,2h0c0,0-10.9,0-10.9,0h0Z"/>
    <path class="st3" d="M130.8,27s0,0,0,.1c0,.5,0,1.1.3,1.8-.5-.2-1.1-.2-1.4-.2-.7,0-1.1,0-1.6-.5,0,.6-.5.8-1.2.9-.5,0-.9.2-1.2.6,0-.7-.6-.6-.8-1.2-.3.2-.9.5-2.1,0-.7-.2-1.3-.2-1.9,0,.3-.9.7-1.1.9-1.7h0,9Z"/>
    <path class="st7" d="M125.9,30.7h5.6c.9,1,2,1.6,3.2,1.4.8-.2,1.5-.7,1.9-1.4h1.3c-.3.8-.8,1.3-1.5,2-.8.6-2,1-3,.7,0,.3,0,.6,0,.9h-13.8c0,0,0-.2,0-.3,1.4.5,2-.5,3-1.4.9-.9,1.8-1.2,2.8-1.2.6,0,1.6.2,1.9.4-.4-.4-.9-.8-1.4-1.1h0Z"/>
    <path class="st6" d="M133.4,34.1c0,.2-.2.4-.3.5-.8,1.3.2,2.4,1.2,2.6.2,0,.4,0,.6,0h-6.7c.1-.4,0-.8-.4-1.5-.3-.5-.3-1.2-.3-1.2-.4-.1-1-.2-1.6.1-1.3.7-1.1,2.2-.4,2.6h-3.5c0-.2,0-.5,0-.6,0-.3-.5-.5-.7-1.1-.8.2-1.5-.4-1.7-1.5h13.8,0Z"/>
    <path class="st7" d="M128.1,37.4h6.7c.6,0,1.3,0,1.6-.3,0,.4,0,.8-.6,1.2.6.6.6.9.6,1.5-.4-.4-.9-.3-1.4-.1.3.5.4.8.3,1.4-.4-.3-.7-.3-.9-.2h-2.8c0-.1,0-.3,0-.5,0-1-.3-1.5-.6-1.7-.3-.2-1.1-.3-1.2-1-.1.9-1.3,1.2-2.1.2.1-.2.2-.3.2-.5h0Z"/>
    <path class="st6" d="M134.5,40.8c0,0,0,0-.1.1-.2.3.1.4-.2.8-.4,0-.7.6-.5.9.2.3,0,.5-.4.3.1.4,0,.9-.4,1.2-.7.3-.4-.1-.7-.4-.2-.4-.5-.2-.5-.2,0,0-.1.4-.2.5-.2.6-.8.7-.9.2,0-.2-.3-.5-.5-.5-.3-.3.1-.6.3-.7-.2,0-.1-.2-.1-.5,0-.2-.2-.4-.2-.5,0-.4.3-.4.8-.2.2,0,.4,0,.6-.3,0,0,.2-.3.3-.7h2.8,0Z"/>
    <path class="st6" d="M124.4,40.8c0,.2,0,.5-.2.6-.1-.2-.3-.3-.7-.3s-.7.2-.7.3c.1,0,.2.2.2.3-.1.9-.7.5-.9.6-.2.1-.2.4-.6.5-.4,0-.5,0-.5,0-.3.3-1,.6-1.1-.2-.2,0-.4-.2-.6-.4,0,0-.2.2-.4,0,0-.2.1-.5,0-.7-.3-.2-.4-.3-.2-.6,0,0,0,0,0,0h5.8,0Z"/>
    <path class="st7" d="M122,37.4h3.5s0,0,.1,0c.6.2,1.2.3,1.5.2,0,.5-.5.9-.8,1,.3,0,.5,0,.6.6-.3,0-.6,0-.8.2-.2.2-.6.3-.9.1.2.4.2.7,0,1.3-.2-.6-.7-.7-1-.8.2.2.2.5.2.7h-5.8c.1-.2.4,0,.5-.3.1-.8.5-.9.9-.5.6.3,1,.1,1.2-.2.1-.2.6-1.5.8-2.3h0Z"/>
    <path class="st7" d="M114.9,30.7h8.2c-.3.3-.6.7-.6,1.1-.2-.2-.2-.4-.3-.9-.2.6-.6,1.1-1,1.4,0-.4,0-.7,0-1-.2.9-.7,1.3-1.1,1.6.2-.3.2-1.1,0-1.5-.1.6-.7,1.2-.9,1.2,0-.2.2-.7-.3-1.2-.7-.5-1,0-.6.3.4.3.4.5,0,.5-.1,0-.3,0-.4,0-.2.4-.5.4-.5-.3,0-.4-.7-.2-.6.2h.1c.3.4.2.8-.2.7-.1,0-.5,0-.6,0-.4,0-.3-.2-.2-.6,0-.2-.6-.4-.5.2,0,.5-.6.8-.5,0,0-.1-.1-.5-.4-.6-.2-.2,0-.5.2-.5.2,0,.5,0,.7,0,.3,0,.2-.6-.1-.5-.4.2-.7,0-.5-.3,0,0,.1,0,.2-.1h0Z"/>
    <path class="st6" d="M116.9,23.9c.1-.2.2-.5.1-.8-.1-.4.2-1,.2-1.2,0-.7-.8-.7-.7-.1.2.6,0,1.1-.4.7v-.3c-.6-.3-.7-.5-.4-.7.4-.3,0-.6-.3-.4-.3.4-.6.5-.6.3,0-.1,0-.2,0-.5,0,0,0-.2,0-.2h3.4c1.2.5,2.9,1.3,3.9,2.2-.4.2-.9.6-2.1.2,0,.3-.1.6,0,.9h-3Z"/>
    <path class="st7" d="M116.9,23.9h3c0,.3.2.6.6,1-.5.2-.9.8-1.1,1.1,0,0,0,0,0,.1-.4-.2.2-.8-.1-1.3-.2.4-.4.6-.6.8.1-.4,0-.7-.1-1-.2.2-.4.5-.3.9-.4-.4-.5-.6-.5-1.4-.4.3-.7.3-1.1,0,.2,0,.3-.2.4-.3h0Z"/>
    <path class="st7" d="M122.7,19.1c0,.4.3.6.6.8.8.5,1.5,0,2.3,0,.3,0,.7.1,1.1.4,0,0,0,.2,0,.3-.6-.3-1-.3-1.6-.2-.3,0-1,.4-1.7.4-.5,0-.9-.2-1.1-.7-.1-.4,0-.7.3-.9h0Z"/>
    <path class="st0" d="M124.5,15.1c.4-.2.8,0,1.1.4.3-.3.8-.1.8.3-.6.2-.4.9.1.9s.7-.7.2-.9c0-.2.2-.5.6-.5,0-.3.2-.6.4-.7.2.1.4.4.4.7.4,0,.6.4.6.6-.7.2-.5.8.2.8s.8-.7.1-.9c0-.4.5-.6.8-.4.3-.5.7-.5,1.1-.3-.8.8-1,1.6-1,2.2h-4.4c0-.9-.4-1.7-1-2.2h0Z"/>
    <path class="st6" d="M136.6,30.7c.4-.7.5-1.5.2-2.2-.3-.7-.6-1-1.1-1.4h1.7c.1.1.2.3.3.4.2-.2.5-.4.8-.4h.6c.3,0,.6.2.8.5.4.6.4,1.6-.7,1.9.7-1.2-.9-1.6-1-.2,0,.5-.1,1-.3,1.4h-1.3,0Z"/>
    <path class="st7" d="M132.8,23.9h1.6c0,.1.2.3.3.4,1,1.1,1.9,1.6,2.7,2.7h-1.7c-.5-.4-1.2-.9-2.1-1.9-.2-.3-.5-.8-.8-1.2h0Z"/>
    <path class="st6" d="M132.8,23.9c-.1-.2-.2-.3-.4-.3-.3-.1-.6-.2-1.1.2,0-1,.4-1.4,1.3-1.4.2-1,.5-1.4,1-1.8,0,0,0,0,0,0h2.6c-.6.3-1.4.7-1.9,1.3-.6.6-.5,1.4,0,2h-1.6,0Z"/>
    <path class="st7" d="M136.3,20.6h-2.6c.9-.8,2.4-1.2,3.2-1.9.5-.4.5-.7.4-.9-.5-.3-.2-.8,0-.9.5-.2,1.1-.3,1.7.1.5.3.9,1.1,0,2-.6.7-1.9,1.1-2.5,1.4,0,0-.2,0-.3.1h0Z"/>
    <path class="st4" d="M125.7,17.8c.1.1.2.4.5.6-.3,0-.5-.3-.8,0,0-.2.3-.3.3-.5h0Z"/>
    <path class="st4" d="M129.7,18c-.1.2,0,.2.1,0,0,0,.2-.3.6-.5-.4,0-.7.4-.7.5h0Z"/>
    <path class="st4" d="M128.1,32.4c0,0,.2.2.3.2.3,0,.5-.6.5-.6,0,0,.1,0,.1,0,0,.2-.1.4-.3.6,0,.1-.2.2-.3.3-.4.4-.9.9-.9,1.7,0,0-.1,0-.1,0,0-.7.4-1.2.9-1.7,0-.1-.4-.6-.5-.6-.2-.2-.4-.4-.6-.6,0,0,0-.2,0,0,.3.2.6.5.8.7h0Z"/>
    <path class="st7" d="M121.8,27c-1.1.2-2.4.2-3.3-.4.3-.1.7-.3.9-.6.2-.4.6-.9,1.1-1.1-.3-.4-.5-.7-.6-1h10.9c0,.5,0,1,.4,1.9-.2,0-.4-.2-.7-.4.1.4.4.9.3,1.7h-9,0Z"/>
    <path class="st6" d="M124,29.5c0,.6-.5.8-.7,1.1h0s0,0,0,.1h-8.2s0,0,0,0c0,0,0,0,0-.1,0-.5.2-.8.8-.5,0,0,.1.3.5.3.5,0,.9-.3,1.6-.8,1.1-.7,1.8-1.5,2.2-2,0,0,.2-.2.2-.2.5,0,1,0,1.4-.1h0c-.1.6-.6.7-.9,1.7.6-.3,1.1-.3,1.9,0,1.2.4,1.8.2,2.1,0,.1.6.7.5.8,1.2.3-.4.7-.5,1.2-.6.7-.1,1.1-.4,1.2-.9.4.5.9.6,1.6.5.2,0,.4,0,.7,0h0c0,.1,0,.1,0,.1h0s0,0,0,0c0,.2.1.4.3.7,0,0,0,.1.1.2.2.3.4.6.6.8h0c0,0-5.6,0-5.6,0h-.1c-.6-.5-1.3-.8-1.6-.8,0-.2-.1-.4-.1-.4h0Z"/>
    <path class="st7" d="M114.7,20.6s0,0,0-.1c0-.3.1-.5.5-.3.3,0,.5-.3.3-.5-.1,0-.5-.1-.5-.3,0-.3.3-.2.5-.3.2-.1.1-.3.4-.3.2,0,.3.3.2.5,0,.4.4.3.5.1,0-.5-.2-.7.1-.8.2,0,.3.4.6.5.3.1.5,0,.6.1.2.3,0,.4-.3.6,0,0-.1.3.5.7,0,0,.2,0,.2,0,0,0-3.4,0-3.4,0Z"/>
    <path class="st4" d="M118.1,42.3c0,.1,0,.2.1.3,0-.1,0-.2.1-.3h.2c-.1.1-.2.3-.2.6-.1-.2-.3-.4-.3-.6h.1ZM119.4,42.3c.1.1.3.2.4.2,0,0,0,0,0,0,0,.6.6.5,1,.2,0-.1,0-.3,0-.4h.1c0,.1,0,.3,0,.4.1,0,.3,0,.4,0,.2,0,.3-.3.4-.4h.2c-.1,0-.1.1-.2.2h0c.2.3.2.5.1.9.4-.2.7-.5.6-1.1h.1c0,.7-.3,1-.9,1.4.2-.5.2-.7,0-1,0,0-.1.1-.2.2-.2,0-.4,0-.5,0-.2.2-.7.4-.9.2-.3.2-.2.5-.2.8-.7-.2-.8-1-.6-1.5,0,0-.2,0-.3,0h.5ZM129.9,42.3c-.2.2-.3.4-.4.7,0,0,0,.1,0,.2.2-.2.5-.3.8-.3,0-.1,0-.3,0-.4,0,0,0-.2-.1-.2h.1c0,0,0,.1.1.2h0c0,.1,0,.4,0,.4.1,0,.2-.1.3-.1h0c0,.1-.2.2-.3.2-.1.1-.5.4-.3.6.2,0,.4.3.5.5.1.4.6.4.8-.2,0,0,0-.3.1-.4-.3,0,0-.8.4-.9h0c-.2.2-.3.4-.4.5,0,0,0,.2,0,.2,0,0,0,0,0,0,.2,0,.4,0,.5.3.2.3,0,.7.6.4.4-.3.5-.8.4-1.1,0,0,0,0,0,0,.2,0,.3.1.3,0,0,0,0-.2,0-.3v-.4h.1c0,.1,0,.3,0,.4.3,0,.6.2.8.5,0-.3,0-.6,0-.9h.1c.1.4.1.8,0,1.2-.2-.4-.5-.6-.8-.6,0,.2,0,.4-.4.2,0,.4,0,.9-.5,1.1-.2,0-.4.2-.5,0-.2.2-.4.6-.2,1.1-.4-.3-.6-.7-.6-1.1-.2.4-.6.5-.8.2-.3.2-.3.6-.4,1-.4-.6-.6-1.1-.2-1.8-.2-.3,0-.5.2-.7-.4,0-.6,0-.9.4h-.1c0,.1,0,0,0,0,0-.1,0-.3,0-.4,0-.3.2-.5.3-.7h.2,0ZM119.3,42.3c-.2.5,0,1.1.4,1.3,0-.2,0-.6.2-.8,0,0,0-.2-.1-.3-.2,0-.4-.2-.5-.3h0ZM131.7,43.5c-.3.5,0,1.1.2,1.5,0-.4.1-.7.3-.9,0,0,0,0,0,0,0-.1,0-.2-.1-.3,0-.2-.2-.3-.4-.2h0ZM130.1,43.8c-.3.5-.2,1,0,1.3,0-.3.1-.6.4-.8,0,0,0,0,0,0,0-.2-.3-.4-.4-.5h0Z"/>
    <path class="st4" d="M121.5,39.1c-.1.3-.2.6-.3.7-.2.4-.6.6-1.3.3-.4-.4-.8-.3-.9.4,0,.4-.4.2-.6.4-.1.2,0,.4.2.5.2.1,0,.5,0,.7.1.2.2.1.3,0,0-.3.2-.7.8-.8h0c-.5.2-.7.6-.7.8,0,0,0,0,.1.1h-.5s0,0,0,0c0,0-.1,0-.2,0h-.2c0-.1.2-.2.3-.2,0-.2,0-.5,0-.5-.1,0-.2-.2-.3-.2-.4.4-.4.7-.3,1h-.1c-.1-.4,0-.7.4-1.1,0,0,0-.2,0-.3,0,0,0-.1.1-.2-.3-.2-.7-.1-1.1.2,0-.7.8-1.3,1.7-1.1.2-.2.5-.2.8.1.6.3.9.1,1.1-.2,0,0,.1-.3.3-.6h.2ZM126.9,39.1s0,0,0,.1c0,0,0,0,0,0-.6-.2-.9.6-1.6.4.1.4.2.7-.1,1.2,0,0-.1,0-.1,0-.1-.4-.4-.6-.8-.7.2.3.3.9,0,1.2,0,0,0,0,0,0-.1-.2-.2-.3-.6-.3s-.5.1-.6.2c0,0,.1.2.1.3,0,.3-.2.5-.3.6h0c0,0-.1,0-.1,0h0c0,0-.2,0-.3,0h-.3c0,0,.1-.1.2-.1.1,0,.3,0,.4,0,.1,0,.3-.1.4-.5,0-.1,0-.2-.1-.2,0,0,0,0,0,0,0-.1.5-.3.8-.3s.6,0,.7.3c.2-.3.1-.8-.1-1.1,0,0,0,0,0,0,.4,0,.8.2,1,.7.2-.4.2-.7,0-1.1,0,0,0-.1,0,0,.6.3.9-.5,1.6-.4,0,0,0,0,0,0h.1,0ZM131.6,39.1c.1.3.2.7.2,1.2,0,.4,0,.9-.3,1.2-.2.3-.3.3-.6.3h0c-.5-.2-.7-.2-.7.2,0,0,0,.1.1.2h-.1s0,0,0-.1c0,0-.1,0-.2.1h-.2c0,0,.2-.2.3-.2,0-.5.4-.5.9-.3.2,0,.3,0,.5-.3.2-.3.3-.7.3-1.1,0-.6,0-1-.2-1.2h.1,0ZM136.5,39.1c0,.2,0,.4,0,.6,0,0,0,0-.1,0-.4-.3-.8-.3-1.2-.1.3.5.4.7.3,1.4,0,0,0,0-.1,0-.2-.2-.7-.5-.9,0-.2.3.2.4-.2.8.2.2.3.3.4.5h-.1c0-.2-.2-.3-.4-.5-.3,0-.4.3-.4.5h-.1c0,0,0-.2,0-.2.1-.2.3-.3.5-.4.3-.3,0-.4.2-.8.2-.4.7-.2,1,0,0-.5,0-.8-.3-1.2,0,0,0,0,0,0,.5-.2.9-.3,1.4,0,0-.2,0-.3,0-.5h.2ZM120.9,42.3c0,0,0-.1,0-.2h.1c0,0,0,.1,0,.2h-.1ZM119.2,39.9c-.7-.2-1.2.2-1.4.7.3-.2.6-.2,1,0,.1,0,.2,0,.2-.2,0-.2,0-.4.2-.5h0Z"/>
    <path class="st4" d="M115.6,31.4c0,0,0,.2-.2.2-.2,0-.5,0-.7,0-.2,0-.3.2-.1.4.3.1.5.5.4.7,0,.6.4.3.4,0-.1-.7.7-.5.6-.2,0,.2-.2.6.1.5.1-.2.5-.2.6,0,.3,0,.4-.2.1-.4h-.1c0-.1,0-.2,0-.2-.1-.4.6-.7.7-.2h0c0,.7.2.6.4.3.1-.2.3-.2.4,0,.2,0,.4-.1,0-.4-.2-.1-.2-.3-.1-.4h.1c0,0,0,.2,0,.3.3.2.4.5.2.6.1.6-.2,1-.9,1.1.2-.4.3-.5,0-.8-.2.1-.4,0-.4-.6,0-.3-.6-.1-.5.2h.1c.2.3.2.6,0,.8,0,.5,0,.8.4,1.2-.7,0-1.2-.5-1.4-1.2-.3,0-.2-.5-.1-.7,0,0-.5-.3-.4.2,0,.5-.5.8-.6.4-.3.2-.4.5-.5,1h0c-.4-.4-.4-1.5.1-1.9-.1-.2,0-.5.3-.5.2,0,.7,0,.8-.1h.1ZM118.9,31.4h0c.4.3.4.7.3,1.1.2-.2.6-.6.8-1.1h.1c.1.4,0,.9,0,1.3.4-.3.7-.7.9-1.3h.2c0,.2,0,.5,0,.7.3-.2.5-.4.7-.7h.1c-.2.4-.5.7-.8.9,0,0-.1,0-.1,0,0-.3,0-.5,0-.8-.2.8-.7,1.1-1.1,1.4,0,0-.1,0-.1,0,.1-.3.2-.8.1-1.3-.2.5-.7,1-.9,1.1-.1,0,0,0,0,0,0-.2,0-.3,0-.5,0-.2,0-.4-.3-.6,0,0-.1,0-.2,0h.3ZM122.4,31.4c0,0,0,.2,0,.2,0,0,0-.1,0-.2h.1c0,.1-.1.2-.1.3,0,0-.1,0-.1,0-.1,0-.2-.2-.2-.4h.1,0ZM126.3,31.4c.2,0,.5.1.7.2,0,0-.1-.1-.2-.2h.2c.1.1.2.2.3.3h0c-.3,0-1.2-.3-1.9-.3-.9,0-1.8.3-2.7,1.1-.9.8-1.6,1.9-3,1.4.1.8.6,1.8,1.6,1.6,0,0,0,0,0,0,.1.4.4.6.6.9.2.2.1.6,0,.9-.1.5-.3,1.2-.5,1.7h-.1c.2-.5.4-1.2.5-1.7,0-.2,0-.5,0-.6,0-.1-.2-.3-.3-.4-.1-.2-.3-.4-.4-.7-1.1.2-1.7-.9-1.7-1.8,0,0,0,0,0,0,1,.4,1.6,0,2.2-.7.2-.2.4-.5.7-.7.6-.6,1.2-.9,1.8-1.1h1.9,0ZM132.4,31.4c.7.5,1.4.8,2.3.6.4,0,.9-.3,1.2-.6h.2c-.4.3-.9.6-1.4.7-.9.2-1.8-.2-2.5-.7h.2ZM137.6,31.4c-.3.4-.7.8-1.1,1.3-.8.6-2,.9-3,.7,0,.5-.1,1-.4,1.3-.7,1.2.2,2.3,1.1,2.5.6,0,1.8.2,2.2-.2,0,0,.1,0,.1,0,0,.4,0,.8-.6,1.2.3.3.4.6.5.8h-.1c0-.2-.2-.5-.5-.8,0,0,0,0,0,0,.5-.3.6-.6.6-1-.5.4-1.6.2-2.2.2-1-.2-2-1.4-1.2-2.7.3-.4.5-.8.4-1.4,0,0,0,0,0,0,.9.3,2.1,0,2.9-.7.4-.4.8-.8,1.1-1.2h.2ZM126.8,39.1c-.1-.3-.2-.3-.6-.4,0,0,0,0,0-.1.3,0,.8-.5.8-.9-.4,0-1.3,0-1.6-.2-1.3-.7-.3-3.5,2.1-2.8h0c0,0,0,.2,0,.5,0,.2.1.5.2.8.4.7.6,1.3.1,2,.7,1,1.8.6,1.9-.2,0,0,.1,0,.1,0,0,.3.3.5.5.6.3.2.5.2.7.3.1,0,.3.2.4.5h-.1c-.1-.2-.2-.3-.3-.4-.1,0-.4-.2-.7-.3-.2-.1-.4-.3-.5-.5-.3.8-1.4,1-2.1,0,0,0,0,0,0,0,.4-.6.3-1.2-.1-1.8-.2-.3-.3-.8-.3-1.2-2.3-.6-3.1,2.2-1.8,2.6.6.2,1.2.3,1.4.2,0,0,0,0,0,0,0,.4-.4.8-.7,1h0c.2,0,.4.3.4.5h-.1,0ZM117.8,32.6c.1.2.2.4,0,.7.5-.2.6-.5.5-.9,0,0-.1,0-.2,0h0c-.1,0-.2,0-.3,0,0,0,0,.1-.1.2h0ZM116,33c.1.5.5.9,1,1-.2-.3-.2-.7-.2-1.1,0,0,0,0-.1,0h0c-.1,0-.4,0-.5,0h0s0,0,0,0h0ZM114.4,32.1c-.4.3-.4,1.1-.2,1.5,0-.4.2-.7.6-.8h0v-.2c0,0-.1-.4-.4-.5h0Z"/>
    <path class="st4" d="M119.2,26.9c.8.2,1.8.2,2.6,0,0,0,0,0,0,0,0,.3-.2.5-.4.7-.1.2-.3.4-.4.8.5-.2,1.1-.3,1.8,0,1.2.4,1.8.2,2.1,0,0,0,0,0,.1,0,.1.5.6.5.8,1.1.3-.3.7-.5,1.2-.5.7-.1,1.1-.4,1.2-.9,0,0,0,0,.1,0,.4.5.9.6,1.5.5.3,0,.8,0,1.2.1-.3-.6-.3-1.2-.2-1.7,0,0,0-.2,0-.2h.1c0,0,0,.2,0,.3,0,.5,0,1.1.3,1.7,0,0,0,0,0,0-.2,0-.4-.1-.6-.1,0,.2.2.6.4.9.4.6.9,1.2,1.5,1.7h-.2c-.6-.4-1.1-1-1.4-1.6-.2-.3-.3-.7-.4-1-.3,0-.5,0-.6,0-.6,0-1.1,0-1.6-.5-.1.5-.6.8-1.2.9-.5,0-.8.2-1.2.6,0,0-.1,0-.1,0,0-.7-.6-.6-.7-1.1-.4.2-.9.4-2.1,0-.7-.2-1.3-.2-1.8,0-.1,0,0,0,0,0,.1-.5.3-.8.5-1,.1-.2.3-.4.4-.6-.4,0-.9.1-1.3,0,0,0-.2.2-.3.3-.7.7-1.3,1.3-2.1,1.9-.7.5-1.1.8-1.6.8-.2,0-.5-.1-.6-.3-.5-.3-.7,0-.6.4h0c0,.2-.2.3-.3.4-.2.2.1.4.4.2.3-.2.4.1.4.3h-.1s0,0,0-.2c0-.3-.4.2-.8,0-.1,0-.1-.2,0-.3-.3,0-.7,0-.9.2,0-.6.3-1,1.3-1.1.1-.2.4-.3.8,0h0s0,0,0,0c.1.1.3.2.4.2.5,0,.9-.3,1.6-.8.8-.5,1.4-1.2,2.1-1.9.1,0,.2-.2.2-.2-.5,0-1-.1-1.4-.3h.3ZM135.7,26.9s0,0,0,0c.5.4.9.7,1.1,1.4.3.7.1,1.6-.2,2.2-.2.3-.4.5-.6.7h-.2c.3-.2.5-.5.7-.8.4-.7.5-1.5.2-2.1-.3-.7-.6-1-1.1-1.4,0,0-.1-.1-.2-.2h.2,0ZM137.4,26.9c.1.1.2.3.3.4.2-.2.5-.3.8-.4h.6c1.3.3,1.6,2.1.2,2.5,0,0-.1,0,0,0,.6-1.2-.8-1.4-.9-.1,0,.9-.3,1.5-.7,2.1h-.1c.4-.6.6-1.2.7-2.1.1-1.5,1.7-1.1,1.2,0,1.1-.5.8-2-.3-2.2h-.6c-.3,0-.6.2-.8.4,0,0-.1,0-.1,0-.1-.2-.3-.4-.4-.6h.2ZM118.1,31.4c0-.2.4-.3.8,0h-.2c-.2,0-.4,0-.4,0h-.1ZM120,31.4s0,0,0,0c0,0,0,0,.1,0,0,0,0,0,0,0h-.1ZM121,31.4s0-.1,0-.2c0,0,0,0,.1,0,0,0,0,.1,0,.2h-.2,0ZM122,31.4c.1-.2.2-.3.2-.5,0,0,.1,0,.1,0,0,.1,0,.3.1.5h-.1c0,0,0-.2,0-.3,0,0,0,.2-.1.3h-.1,0ZM122.6,31.4c.1-.3.4-.7.7-.9.3-.3.6-.5.7-1,0,0,0,0,.1,0,0,0,.2.2.1.3.4,0,1.1.4,1.7.8.4.2.8.5,1.1.8h-.2c-.3-.2-.6-.5-1-.7-.7-.4-1.4-.8-1.7-.8,0,0,0,0,0,0,0,0,0-.2,0-.2-.1.6-.5.7-.8,1.1-.2.2-.4.5-.5.7h-.1,0ZM124.4,31.4c.3,0,.6-.1,1-.1.3,0,.6,0,.9.1h-1.9ZM115,30.1c-.8,0-1,.3-1.2.8.3-.2.6-.2.9-.1.1,0,.2-.2.2-.3,0-.1,0-.2,0-.3h0Z"/>
    <path class="st4" d="M115.3,22.4c0,0-.2.1-.3.2.3.2.6.2,1,0,0,0,0,0,0,0h0s0-.1,0-.1h.1c.1.2.2.2.3,0,0,0,0,0,0,0h.1s0,0,0,.1c0,.2-.2.2-.4,0-.6.3-.9.3-1.4-.1.1,0,.2,0,.3-.1h.3ZM117.1,22.4h0c0,.2-.1.5,0,.7,0,.4,0,.9-.4,1.1.4.2.6.1.9-.1,0,0,.1,0,.1,0,0,.7,0,.9.4,1.2,0-.4.2-.7.4-.8,0,0,0,0,.1,0,.1.3.2.6.1.9.2-.1.3-.3.5-.6,0,0,0,0,.1,0,.3.5-.2,1,0,1.3,0,0,0,0,0,0,.2-.3.5-.9,1-1.1-.6-.7-.7-1.2-.5-1.9,0,0,0,0,0,0,.7.2,1.2.2,1.9-.1h0c-.1-.2-.3-.3-.5-.4h.2c.1.1.3.2.4.3.6-.3,1.4-.3,2,0,1.4.6,1.9.2,2.1-.2,0,0,0,0,0,0h.1s0,0,0,.1c-.1.5-.8.9-2.2.3-.5-.2-1.2-.3-1.7,0-.3.1-.5.3-.8.4-.4.1-.8.1-1.4,0-.1.6,0,1.1.5,1.8,0,0,0,0,0,0-.5.2-.9.7-1.1,1.1-.1.3-.5.5-.8.6.2,0,.3.2.5.2h-.3c-.1,0-.2-.1-.4-.2,0,0,0,0,0-.1.2,0,.5-.2.7-.4-.3-.3,0-.8,0-1.2-.2.3-.4.5-.6.7,0,0-.1,0,0,0,.1-.3,0-.6,0-.9-.1.2-.3.5-.2.8,0,0,0,0-.1,0-.4-.4-.6-.6-.5-1.3-.4.2-.6.2-1.1,0,0,0,0,0,0-.1.4-.2.5-.6.4-1,0-.2,0-.5,0-.7h.1,0ZM130.9,22.4c0,.5,0,1,0,1.4h0c0,.5,0,1,.4,1.9,0,0,0,0,0,0-.2,0-.3-.1-.5-.2.1.5.2.9.2,1.3h-.1c0-.5,0-1-.3-1.5,0,0,0-.1.1,0,.2.2.3.3.5.4-.4-.9-.4-1.3-.3-1.8.1-.5.1-.9,0-1.4h.1,0ZM132.7,22.4h0s0,0,0,0c-.8,0-1.1.3-1.2,1.2.4-.3.7-.3,1-.2.4.2.9,1.2,1.2,1.6.5.5.9.9,1.2,1.2.3.3.6.5.8.6h-.2c-.2-.2-.4-.3-.7-.5-.4-.3-.8-.7-1.2-1.2-.3-.3-.8-1.4-1.2-1.6-.3-.1-.6-.2-1,.2,0,0-.1,0-.1,0,0-.8.2-1.2.8-1.4h.6,0ZM134.2,22.4c-.2.4-.1.9.2,1.5,0,.1.2.3.3.4.9.9,1.9,1.6,2.7,2.6h-.2c-.8-1-1.7-1.6-2.6-2.5-.5-.5-.8-1.2-.6-1.9h.1Z"/>
    <path class="st4" d="M115.1,22.4c.2-.1.4-.3.5-.5-.1-.2-.1-.4.1-.5.4-.3,0-.5-.2-.3-.2.4-.6.5-.7.3-.3,0-.4.2-.5.6-.3-.2-.4-1.1.3-1.5,0-.3.2-.5.5-.3.2,0,.5-.2.2-.4-.1,0-.5-.1-.6-.3,0,0,0-.2,0-.2-.2-.2-.5-.2-.9-.2.4-.7,1-.7,1.7-.3,0,0,.1,0,.2,0,.4,0,.3.4.3.6,0,.3.2.3.4,0,0-.2,0-.3,0-.5,0-.3.2-.4.4-.3,0,0,0,0,.1.1.2-.2.1-.7,0-1,.6.5.8.6.8,1.4,0,0,0,0,0,0,.2.3,0,.5-.3.7,0,.3.3.5.5.6,1,.4,2.5,1.1,3.6,1.9h-.2c-1-.8-2.5-1.4-3.4-1.8-.2-.1-.6-.4-.6-.7,0,0,0,0,0,0h0c0-.1.2-.2.3-.3,0,0,0-.1,0-.2,0-.1-.2,0-.4,0-.4,0-.6-.6-.7-.5-.2,0-.1.2-.1.4,0,0,0,.2,0,.3h0c-.1.3-.6.4-.6-.1,0-.1,0-.5-.2-.5-.3,0-.2.3-.6.4-.1,0-.3,0-.3.2,0,0,.4.2.5.2.4.2,0,.6-.3.6h0c-.2,0-.5,0-.4.3.1.2.2.3.2.6,0,0,0,.1,0,.2,0,0,.2.2.5-.3h0c.4-.3.9.1.4.5-.2.2-.2.3.2.6h0s.1.3.1.3h-.1v-.2c-.2,0-.2-.1-.3-.2,0,.2-.2.3-.4.4h-.3,0ZM116.5,22.4c0-.1,0-.4,0-.6-.1-.7.8-.7.9,0,0,.1-.1.4-.1.5h-.1c0-.1,0-.2.1-.3,0,0,0-.2,0-.2,0-.6-.7-.6-.6-.1,0,.2.1.5,0,.7h-.1ZM126.1,22.4c0-.3-.1-.7-1.3-.6-.2,0-.3,0-.4-.1-.1-.1-.2-.5-.1-.7h0c0-.1,0-.1.1-.2h0c.7-.2,1.1-.2,1.6,0,.4.2.5,0,.7-.4-.6-.3-.9-.2-1.5-.2-.2,0-.5.1-.7.2-.3,0-.6.2-1,.2-.5,0-.9-.2-1.1-.8-.1-.4,0-.8.4-1,0,.4.2.7.6.9.8.4,1.5,0,2.3,0,.4,0,.8.1,1.1.3,0,0,0,0,0-.2,0-.3-.2-.5-.6-.5-.6,0-1,.4-1.6.3-.5-.1-.6-.6-.5-1,0,0,0-.2.1-.3-.1,0-.1-.2,0-.3,0-.2.3-.3.5-.4.1,0,.2-.1.4-.1.1,0,.3-.1.4-.3,0-.9-.4-1.6-1-2.2.5-.3.9-.1,1.2.4.4-.3.8,0,.9.4-.7.2-.4.8,0,.8s.7-.6.1-.8c0-.4.2-.6.6-.6,0-.3.2-.6.5-.7.3.1.4.4.5.7.4,0,.6.3.6.7-.7.2-.4.7.1.7s.8-.5,0-.7c0-.4.4-.8.8-.5.3-.5.7-.5,1.2-.2-.6.6-1,1.3-1.1,2.1.2,0,1.1-.2,1.2,0,0,.3.2.9-.5,1.8.3.3.4.8.4,1.5h0c0,.5,0,1.1.3,1.4,0,0,0,0,0,0-.2,0-.4,0-.5-.1,0,.1,0,.3,0,.4h-.1c0-.2,0-.3,0-.5,0,0,0,0,.1,0,.1.1.3.2.4.2-.1-.2-.4-.7-.3-1.3,0-.7,0-1.2-.3-1.5-.1.1-.2.2-.3.2h0c0-.1.2-.2.3-.3.7-.9.6-1.5.5-1.7-.1-.2-1,0-1.1,0-.2,0-.3.2-.3.3h-.1c0-.1.1-.2.2-.3h-4.3c-.2.2-.4.3-.7.4-.1,0-.3.1-.4.2,0,0-.1,0-.2.2,0,0,0,.2,0,.2,0,0,.1-.2.2-.2h0c0,.1-.1.2-.2.3-.1.2-.2.5-.1.7,0,.2.1.3.4.4.5.1,1-.3,1.5-.3.5,0,.7.2.7.6,0,0,0,.2,0,.2,0,.2,0,.2,0,.4h0s0,0,0,0c-.2.4-.4.6-.8.4-.5-.2-.9-.3-1.5,0,0,0,0,0,0,.1,0,.2,0,.5.1.6s.1,0,.3,0c1.2-.1,1.4.3,1.4.7h-.1ZM132.1,22.4c.1,0,.3,0,.4,0,.2-.8.4-1.3,1-1.8.8-.6,1.7-1,2.5-1.4.4-.2,1.3-.7,1.1-1.3-.6-.4-.2-.9,0-1,1.5-.6,3.2.7,1.9,2.2-.6.7-2,1.2-2.8,1.5-.8.4-1.8,1-2.2,1.8h-.1c0-.2.2-.4.3-.6.9-1,2.3-1.4,3.4-2,.5-.2.9-.5,1.2-.8,1.2-1.5-.3-2.6-1.7-2-.2.1-.5.5,0,.8h0c.3.7-.7,1.2-1.1,1.5-.9.5-1.8.8-2.6,1.5-.4.3-.7.8-.9,1.7h-.6,0ZM126.7,20.4c0,0,0-.1,0-.2-.5-.4-1.1-.4-1.7-.3-.6.1-1.1.3-1.8,0-.3-.2-.6-.4-.6-.8-.2.2-.3.5-.2.8.3.9,1.3.7,1.9.5.2,0,.5-.2.7-.2.6,0,1-.1,1.6.2h0ZM125.5,15.5c-.2-.4-.6-.6-.9-.5.6.6.9,1.3.9,2.2h4.3c0-.5.2-1.3,1-2.1-.4-.2-.7,0-1,.4-.2-.2-.7-.2-.7.2.7.2.4,1-.2,1s-.9-.7-.2-1c0-.3-.3-.5-.6-.5,0-.2-.1-.5-.4-.7-.2.1-.4.5-.4.7-.3,0-.6,0-.6.4.6.2.5,1-.2,1s-.9-.7-.2-1c-.1-.4-.5-.4-.8-.1h0c0,0,0,0,0,0ZM114.6,20.6c-.5.3-.5.8-.4,1.2,0-.3.2-.5.5-.5,0-.1.1-.3,0-.6,0,0,0,0,0,0h0ZM115.5,18.8c-.6-.4-1.1-.3-1.3,0,.4,0,.6,0,.8.3.1,0,.3,0,.5-.2,0,0,0,0,0-.1h0ZM117.6,19.1c0-.6-.1-.8-.5-1.1,0,.3,0,.6-.2.8.1.1.2.2.4.3,0,0,.2,0,.2,0h0ZM126.9,20.2c0,.1,0,.2,0,.4,0-.1,0-.2,0-.4h0Z"/>
    <path class="st0" d="M115.5,18.8c-.6-.4-1.1-.3-1.3,0,.4,0,.6,0,.8.3.1,0,.3,0,.5-.2,0,0,0,0,0-.1h0Z"/>
    <path class="st0" d="M117.6,19.1c0-.6-.1-.8-.5-1.1,0,.3,0,.6-.2.8.1.1.2.2.4.3,0,0,.2,0,.2,0h0Z"/>
    <path class="st0" d="M114.6,20.6c-.5.3-.5.8-.4,1.2,0-.3.2-.5.5-.5,0-.1.1-.3,0-.6,0,0,0,0,0,0h0Z"/>
    <path class="st0" d="M115.7,22c-.1.2-.3.4-.6.6.3.2.6.2,1,0,0,0,0,0,0,0h0s-.1-.3-.1-.3c0,0-.2-.1-.2-.2h0Z"/>
    <path class="st0" d="M115,30.1c-.8,0-1,.3-1.2.8.3-.2.6-.2.9-.1.1,0,.2-.2.2-.3,0-.1,0-.2,0-.3h0Z"/>
    <path class="st0" d="M114.4,32.1c-.4.3-.4,1.1-.2,1.5,0-.4.2-.7.6-.8h0v-.2c0,0-.1-.4-.4-.5h0Z"/>
    <path class="st0" d="M116,33c.1.5.5.9,1,1-.2-.3-.2-.7-.2-1.1,0,0,0,0-.1,0h0c-.1,0-.4,0-.5,0h0s0,0,0,0h0Z"/>
    <path class="st0" d="M117.8,32.6c.1.2.2.4,0,.7.5-.2.6-.5.5-.9,0,0-.1,0-.2,0h0c-.1,0-.2,0-.3,0,0,0,0,.1-.1.2h0Z"/>
    <path class="st0" d="M119.2,39.9c-.7-.2-1.2.2-1.4.7.3-.2.6-.2,1,0,.1,0,.2,0,.2-.2,0-.2,0-.4.2-.5h0Z"/>
    <path class="st0" d="M118.5,41.3c-.5.5-.4.9-.2,1.3,0-.3.2-.5.5-.6,0-.2,0-.5,0-.5-.1,0-.2-.2-.3-.2h0Z"/>
    <path class="st0" d="M119.3,42.3c-.2.5,0,1.1.4,1.3,0-.2,0-.6.2-.8,0,0,0-.2-.1-.3-.2,0-.4-.2-.5-.3h0Z"/>
    <path class="st0" d="M121.8,42.5c.2.3.2.5.1.8.4-.2.7-.5.6-1.2,0,0-.2,0-.3,0-.2,0-.2,0-.4.3h0Z"/>
    <path class="st0" d="M131.7,43.5c-.3.5,0,1.1.2,1.5,0-.4.1-.7.3-.9,0,0,0,0,0,0,0-.1,0-.2-.1-.3,0-.2-.2-.3-.4-.2h0Z"/>
    <path class="st0" d="M130.1,42.1c-.3.2-.5.4-.6.8,0,0,0,.1,0,.2.2-.2.5-.3.8-.3,0-.1,0-.3,0-.4,0,0-.1-.2-.2-.3h0Z"/>
    <path class="st0" d="M130.1,43.8c-.3.5-.2,1,0,1.3,0-.3.1-.6.4-.8,0,0,0,0,0,0,0-.2-.3-.4-.4-.5h0Z"/>
    <path class="st0" d="M133.8,42.6c.3,0,.6.2.8.5.1-.5,0-.9-.4-1.3-.4.2-.4.5-.4.9h0Z"/>
  </g>
  <path class="st2" d="M158.4,5.8l3.3,1.1C53.8-15.8,14.2,51.8,14.2,51.8H0S40.1-20.7,158.4,5.8h0Z"/>
  <g>
    <polygon class="st1" points="56.1 30.9 61.6 30.9 61.6 32 59.4 32 59.4 39.6 58.3 39.6 58.3 32 56.1 32 56.1 30.9 56.1 30.9"/>
    <path class="st1" d="M61.9,39.6v-8.7h1.1v3.3c.3-.4.9-.7,1.5-.7,1.4,0,2.5.6,2.5,2.6v3.5h-1.1v-3.5c0-1.2-.7-1.6-1.5-1.6s-1.5.7-1.5,1.6v3.5h-1.1,0Z"/>
    <path class="st1" d="M71.5,31.4c.4,0,.7.3.7.7s-.3.7-.7.7-.7-.3-.7-.7.3-.7.7-.7h0ZM69.5,31.4c.4,0,.7.3.7.7s-.3.7-.7.7-.7-.3-.7-.7.3-.7.7-.7h0ZM73,33.6v3.5c0,1.6-1.1,2.6-2.6,2.6s-2.6-1-2.6-2.6v-3.5h1.1v3.5c0,.9.7,1.6,1.5,1.6s1.5-.7,1.5-1.6v-3.5h1.1Z"/>
    <path class="st1" d="M73.9,33.6h1v.7h0c.4-.6.9-.8,1.6-.8h.2v1h-.2c-1.1,0-1.7.7-1.7,2.3v2.8h-1.1v-6h0Z"/>
    <path class="st1" d="M77.7,39.6v-6h1.1v6h-1.1ZM78.3,31.6c.4,0,.7.3.7.7s-.2.7-.7.7-.7-.3-.7-.7.2-.7.7-.7h0Z"/>
    <path class="st1" d="M80.3,39.6v-3.5c0-1.6,1.1-2.6,2.6-2.6s2.6,1,2.6,2.6v3.5h-1.1v-3.5c0-.9-.7-1.6-1.5-1.6s-1.5.7-1.5,1.6v3.5h-1.1,0Z"/>
    <path class="st1" d="M90.6,39.3c-.4.2-1,.4-1.4.4-1.7,0-3.1-1.3-3.1-3s1.2-3.2,3.1-3.2,2.9,1.5,2.9,3v2.7c0,2.2-1.4,3.3-3.1,3.3s-1.3-.1-2-.3l.3-1c.6.2,1.1.3,1.7.3,1,0,2.1-.4,2.1-1.9v-2.8c0-1.3-.9-2.2-1.9-2.2s-1.9,1-1.9,2.2.9,1.9,2,1.9,1-.2,1.4-.5v1.1h0Z"/>
    <path class="st1" d="M94.7,37.6l-.4-.9,3-1.7c-.4-.4-.7-.6-1.4-.6-1.1,0-2,.8-2,2.1s.8,2.1,2,2.1,1.8-.8,2-1.9h1.1c-.1,1.7-1.4,2.9-3.1,2.9s-3.1-1.3-3.1-3.1,1.4-3.1,3.1-3.1,2.3.7,2.9,1.9l-4,2.2h0Z"/>
    <path class="st1" d="M99.7,39.6v-3.5c0-1.6,1.1-2.6,2.6-2.6s2.6,1,2.6,2.6v3.5h-1.1v-3.5c0-.9-.7-1.6-1.5-1.6s-1.5.7-1.5,1.6v3.5h-1.1,0Z"/>
    <path class="st4" d="M91.8,26.2h-3.3v-7.5h-1v8.3h4.1v-.8h.1ZM97.8,27v-.9h-3.7v-3h2.8v-.9h-2.8v-2.7h3.4v-.8c.1,0-4.4,0-4.4,0v8.3s4.7,0,4.7,0ZM104.8,26.5v-3.9h-2.8l.2.8h1.7v2.5c-.2.1-.4.2-.6.2-.2,0-.5,0-.7,0s-.5,0-.8-.1-.5-.2-.7-.3-.4-.3-.5-.5c-.2-.3-.3-.6-.4-1s-.2-.9-.2-1.5c0-.8.1-1.5.3-2.1.1-.3.3-.6.5-.8.2-.2.4-.4.7-.5.3,0,.6-.2.9-.2s.4,0,.6,0c.2,0,.4.1.6.2.2,0,.4.2.6.4l.4-.6c-.3-.3-.7-.5-1-.6s-.8-.2-1.2-.2-.8,0-1.2.2c-.4.1-.7.3-1,.6-.4.4-.8.9-1,1.4-.2.6-.3,1.2-.3,2s0,1.3.2,1.9.4,1,.8,1.4c.3.3.7.6,1.1.8.4.2.9.3,1.4.3s.6,0,.8,0c.3,0,.6-.1.8-.2.2,0,.5-.2.7-.3h0Z"/>
  </g>
</svg>