<?xml version="1.0" encoding="UTF-8"?>
<svg id="Ebene_2" data-name="Ebene 2" xmlns="http://www.w3.org/2000/svg" viewBox="0 0 359.82 248.5">
  <defs>
    <style>
      .cls-1 {
        fill: #08293b;
      }
    </style>
  </defs>
  <path class="cls-1" d="M79.72,238.34c1.84,0,3.38-.34,4.6-1.02,1.23-.68,2.13-1.57,2.73-2.66.59-1.09.89-2.25.89-3.48s-.42-2.49-1.27-3.65c-.85-1.16-2.12-2.05-3.81-2.67l-7.31-2.67c-1.14-.42-2-.91-2.58-1.49-.58-.58-.87-1.39-.87-2.43,0-1.51.46-2.68,1.37-3.53.91-.84,2.07-1.27,3.48-1.27,1.24,0,2.44.36,3.6,1.08,1.16.72,2.18,1.73,3.05,3.02.87,1.3,1.51,2.78,1.91,4.45h.91l-.38-9.03h-.91l-.15,1.25c-.08.56-.33.83-.76.83-.2,0-.43-.06-.68-.19-.25-.13-.51-.27-.76-.43-2.02-1.39-3.86-2.08-5.53-2.08-2.12,0-3.89.53-5.3,1.6-1.41,1.07-2.12,2.71-2.12,4.93,0,1.64.47,3.05,1.42,4.22.95,1.17,2.42,2.13,4.41,2.87l5.76,2.12c1.39.51,2.44,1.09,3.16,1.74.72.65,1.08,1.54,1.08,2.67,0,1.3-.47,2.41-1.42,3.34-.95.93-2.46,1.39-4.53,1.39-1.41,0-2.79-.48-4.13-1.44-1.34-.96-2.46-2.22-3.35-3.79-.9-1.56-1.42-3.2-1.57-4.91h-.91l.26,10.98h.87l.15-1.39c.15-.99.48-1.49.98-1.49.2,0,.83.37,1.89,1.11.76.51,1.65.98,2.67,1.41,1.02.43,2.06.64,3.12.64M97.7,238.14c1.79,0,2.93-.56,3.43-1.69.49-1.12.74-2.46.74-4.01h-.68c0,2.78-.89,4.17-2.69,4.17-.73,0-1.25-.23-1.55-.7-.3-.46-.45-1.04-.45-1.74v-11.32h4.69v-.97h-4.69v-6.67h-1.06v1.25c0,1.37-.32,2.61-.97,3.73-.64,1.12-1.53,1.68-2.67,1.68h-.83v.97h2.8v11.15c0,1.27.37,2.28,1.12,3.02.74.74,1.68,1.11,2.82,1.11M112.77,238.14c1.79,0,3.25-.55,4.37-1.65,1.12-1.1,1.76-2.5,1.91-4.19h-.91c-.28,1.72-.93,2.98-1.95,3.79s-2.12,1.22-3.28,1.22c-1.64,0-2.82-.68-3.54-2.05-.72-1.37-1.08-3.21-1.08-5.52h9.43c.43,0,.73-.04.91-.12.18-.08.27-.25.27-.51,0-1.23-.22-2.43-.66-3.59-.44-1.17-1.15-2.14-2.14-2.9-.98-.76-2.24-1.15-3.79-1.15-1.39,0-2.64.39-3.77,1.16s-2,1.81-2.63,3.09c-.63,1.29-.95,2.67-.95,4.15,0,2.59.71,4.62,2.14,6.08,1.43,1.46,3.31,2.19,5.66,2.19M108.3,228.9c0-1.83.34-3.39,1-4.67.67-1.29,1.65-1.93,2.93-1.93,1.21,0,2.08.64,2.61,1.91.53,1.27.8,2.84.8,4.69h-7.35ZM129.28,238.14c1.03,0,1.98-.27,2.84-.82.86-.54,1.58-1.37,2.16-2.48l.15.04v2.85h5.15v-.83h-1.59c-.3,0-.52-.06-.64-.17-.13-.12-.19-.31-.19-.59v-14.24h-5.15v.83h1.59c.3,0,.52.06.64.18.13.11.19.31.19.59v7.23c0,1.21-.2,2.3-.59,3.28-.39.98-.94,1.76-1.63,2.33-.69.57-1.48.85-2.36.85-1.06,0-1.81-.36-2.25-1.08-.44-.72-.66-1.59-.66-2.61v-11.6h-5.15v.83h1.59c.3,0,.52.06.64.18.13.11.19.31.19.59v9.35c0,1.46.39,2.71,1.16,3.75.77,1.04,2.07,1.56,3.92,1.56M150.41,238.14c1.79,0,3.25-.55,4.37-1.65,1.12-1.1,1.76-2.5,1.91-4.19h-.91c-.28,1.72-.93,2.98-1.95,3.79-1.02.81-2.12,1.22-3.28,1.22-1.64,0-2.82-.68-3.54-2.05-.72-1.37-1.08-3.21-1.08-5.52h9.43c.43,0,.73-.04.91-.12s.27-.25.27-.51c0-1.23-.22-2.43-.66-3.59s-1.15-2.14-2.14-2.9c-.98-.76-2.25-1.15-3.79-1.15-1.39,0-2.64.39-3.77,1.16-1.12.78-2,1.81-2.63,3.09-.63,1.29-.95,2.67-.95,4.15,0,2.59.71,4.62,2.14,6.08,1.43,1.46,3.32,2.19,5.66,2.19M145.94,228.9c0-1.83.34-3.39,1-4.67.67-1.29,1.65-1.93,2.93-1.93,1.21,0,2.08.64,2.61,1.91.53,1.27.8,2.84.8,4.69h-7.35ZM159.65,237.72h7.57v-.83h-1.59c-.3,0-.52-.06-.64-.17-.13-.12-.19-.31-.19-.59v-6.46c0-1.21.21-2.36.64-3.47.43-1.11,1-2.02,1.72-2.71.72-.7,1.47-1.04,2.25-1.04.38,0,.68.06.89.19l.32.5-.17.45-.51.38c-.51.35-.76.77-.76,1.25,0,.42.16.74.49.97.33.23.73.35,1.21.35.61,0,1.1-.24,1.49-.73s.59-.98.59-1.49c0-.88-.3-1.58-.91-2.08-.61-.51-1.39-.77-2.35-.77s-1.86.35-2.7,1.06c-.85.71-1.54,1.66-2.06,2.87l-.15-.03v-3.48h-5.15v.83h1.59c.3,0,.52.06.64.18.13.11.19.31.19.59v12.65c0,.28-.06.47-.19.59-.12.12-.34.17-.64.17h-1.59v.83ZM184.63,238.14c1.19,0,2.29-.36,3.31-1.1,1.02-.73,1.84-1.73,2.44-3,.61-1.27.91-2.69.91-4.24s-.3-2.96-.91-4.24c-.61-1.27-1.42-2.28-2.44-3-1.02-.73-2.13-1.1-3.31-1.1-.98,0-1.87.3-2.65.89-.78.59-1.36,1.3-1.74,2.14l-.15-.04v-11.46h-5.53v.83h1.97c.3,0,.52.06.64.18.13.11.19.31.19.59v23.13h.68l1.59-2.99h.15c.5,1.02,1.18,1.84,2.04,2.47.86.63,1.79.94,2.8.94M184.22,237.16c-.76,0-1.45-.25-2.08-.76-.63-.51-1.13-1.21-1.49-2.1-.37-.89-.55-1.86-.55-2.9v-3.2c0-1.04.18-2.01.55-2.9.37-.89.86-1.59,1.49-2.1.63-.51,1.33-.77,2.08-.77,1.24,0,2.17.64,2.8,1.91.63,1.27.95,3.09.95,5.45s-.32,4.18-.95,5.45c-.63,1.27-1.57,1.91-2.8,1.91M202.73,238.14c1.79,0,3.25-.55,4.37-1.65,1.12-1.1,1.76-2.5,1.91-4.19h-.91c-.28,1.72-.93,2.98-1.95,3.79s-2.12,1.22-3.27,1.22c-1.64,0-2.82-.68-3.54-2.05-.72-1.37-1.08-3.21-1.08-5.52h9.43c.43,0,.73-.04.91-.12.18-.08.26-.25.26-.51,0-1.23-.22-2.43-.66-3.59s-1.15-2.14-2.14-2.9c-.98-.76-2.25-1.15-3.79-1.15-1.39,0-2.65.39-3.77,1.16-1.12.78-2,1.81-2.63,3.09-.63,1.29-.95,2.67-.95,4.15,0,2.59.71,4.62,2.14,6.08,1.43,1.46,3.31,2.19,5.66,2.19M198.27,228.9c0-1.83.33-3.39,1-4.67.67-1.29,1.65-1.93,2.94-1.93,1.21,0,2.08.64,2.61,1.91.53,1.27.8,2.84.8,4.69h-7.34ZM211.97,237.72h7.57v-.83h-1.59c-.3,0-.52-.06-.64-.17-.13-.12-.19-.31-.19-.59v-6.46c0-1.21.21-2.36.64-3.47.43-1.11,1-2.02,1.72-2.71.72-.7,1.47-1.04,2.25-1.04.38,0,.67.06.89.19l.32.5-.17.45-.51.38c-.51.35-.76.77-.76,1.25,0,.42.17.74.49.97.33.23.73.35,1.21.35.61,0,1.1-.24,1.49-.73.39-.49.59-.98.59-1.49,0-.88-.31-1.58-.91-2.08-.61-.51-1.39-.77-2.35-.77s-1.86.35-2.71,1.06-1.53,1.66-2.06,2.87l-.15-.03v-3.48h-5.15v.83h1.59c.3,0,.52.06.64.18.12.11.19.31.19.59v12.65c0,.28-.06.47-.19.59-.13.12-.34.17-.64.17h-1.59v.83ZM232.72,238.14c1.13,0,2.13-.36,2.97-1.1.84-.73,1.46-1.5,1.84-2.31l.19.07c.05,1.04.35,1.86.89,2.45.54.59,1.36.88,2.44.88s1.92-.48,2.37-1.42c.44-.95.66-2.12.66-3.51h-.68c0,.97-.14,1.79-.42,2.47-.28.67-.73,1.01-1.36,1.01-.78,0-1.17-.58-1.17-1.74v-8.54c0-1.69-.61-2.94-1.82-3.73-1.21-.8-2.65-1.2-4.32-1.2-.86,0-1.7.16-2.52.47-.82.31-1.49.78-2.01,1.41-.52.63-.78,1.37-.78,2.22,0,.74.23,1.31.68,1.7.46.39.96.59,1.52.59.48,0,.88-.11,1.19-.32s.47-.55.47-1.04c0-.37-.12-.66-.36-.87-.24-.21-.59-.37-1.04-.49l-.32-.14-.25-.21c-.08-.12-.11-.29-.11-.52,0-.51.35-.97,1.06-1.37.71-.4,1.49-.61,2.35-.61,2.35,0,3.52,1.08,3.52,3.23v2.95l-3.49.59c-1.24.21-2.29.46-3.16.74-.87.29-1.63.77-2.29,1.44-.66.67-.99,1.6-.99,2.78,0,1.53.49,2.59,1.46,3.2.97.6,2.13.9,3.47.9M233.33,236.88c-.61,0-1.15-.19-1.63-.57-.48-.38-.72-1.1-.72-2.17,0-1.25.27-2.21.81-2.9.54-.68,1.42-1.14,2.63-1.37l3.29-.66v3.3c-.51,1.27-1.08,2.32-1.72,3.14s-1.53,1.23-2.67,1.23M252.56,238.14c1.79,0,2.93-.56,3.42-1.69.49-1.12.74-2.46.74-4.01h-.68c0,2.78-.9,4.17-2.69,4.17-.73,0-1.25-.23-1.55-.7-.31-.46-.46-1.04-.46-1.74v-11.32h4.7v-.97h-4.7v-6.67h-1.06v1.25c0,1.37-.32,2.61-.97,3.73-.64,1.12-1.53,1.68-2.67,1.68h-.83v.97h2.8v11.15c0,1.27.37,2.28,1.12,3.02.74.74,1.69,1.11,2.82,1.11M267.63,238.14c1.79,0,3.25-.55,4.37-1.65,1.12-1.1,1.76-2.5,1.91-4.19h-.91c-.28,1.72-.93,2.98-1.95,3.79s-2.12,1.22-3.27,1.22c-1.64,0-2.82-.68-3.54-2.05-.72-1.37-1.08-3.21-1.08-5.52h9.43c.43,0,.73-.04.91-.12.18-.08.26-.25.26-.51,0-1.23-.22-2.43-.66-3.59-.44-1.17-1.15-2.14-2.14-2.9-.99-.76-2.25-1.15-3.79-1.15-1.39,0-2.64.39-3.77,1.16-1.12.78-2,1.81-2.63,3.09-.63,1.29-.95,2.67-.95,4.15,0,2.59.71,4.62,2.14,6.08,1.43,1.46,3.32,2.19,5.66,2.19M263.16,228.9c0-1.83.33-3.39,1-4.67.67-1.29,1.65-1.93,2.93-1.93,1.21,0,2.08.64,2.61,1.91.53,1.27.8,2.84.8,4.69h-7.34ZM276.87,237.72h7.57v-.83h-1.59c-.3,0-.52-.06-.64-.17-.13-.12-.19-.31-.19-.59v-6.46c0-1.21.22-2.36.65-3.47.43-1.11,1-2.02,1.72-2.71.72-.7,1.47-1.04,2.26-1.04.38,0,.67.06.89.19l.32.5-.17.45-.51.38c-.51.35-.76.77-.76,1.25,0,.42.16.74.49.97.33.23.73.35,1.21.35.61,0,1.1-.24,1.5-.73.39-.49.59-.98.59-1.49,0-.88-.31-1.58-.91-2.08-.61-.51-1.39-.77-2.35-.77s-1.86.35-2.71,1.06c-.85.71-1.54,1.66-2.06,2.87l-.15-.03v-3.48h-5.15v.83h1.59c.3,0,.52.06.64.18.12.11.19.31.19.59v12.65c0,.28-.06.47-.19.59-.13.12-.34.17-.64.17h-1.59v.83ZM79.72,238.34c1.84,0,3.38-.34,4.6-1.02,1.23-.68,2.13-1.57,2.73-2.66.59-1.09.89-2.25.89-3.48s-.42-2.49-1.27-3.65c-.85-1.16-2.12-2.05-3.81-2.67l-7.31-2.67c-1.14-.42-2-.91-2.58-1.49-.58-.58-.87-1.39-.87-2.43,0-1.51.46-2.68,1.37-3.53.91-.84,2.07-1.27,3.48-1.27,1.24,0,2.44.36,3.6,1.08,1.16.72,2.18,1.73,3.05,3.02.87,1.3,1.51,2.78,1.91,4.45h.91l-.38-9.03h-.91l-.15,1.25c-.08.56-.33.83-.76.83-.2,0-.43-.06-.68-.19-.25-.13-.51-.27-.76-.43-2.02-1.39-3.86-2.08-5.53-2.08-2.12,0-3.89.53-5.3,1.6-1.41,1.07-2.12,2.71-2.12,4.93,0,1.64.47,3.05,1.42,4.22.95,1.17,2.42,2.13,4.41,2.87l5.76,2.12c1.39.51,2.44,1.09,3.16,1.74.72.65,1.08,1.54,1.08,2.67,0,1.3-.47,2.41-1.42,3.34-.95.93-2.46,1.39-4.53,1.39-1.41,0-2.79-.48-4.13-1.44-1.34-.96-2.46-2.22-3.35-3.79-.9-1.56-1.42-3.2-1.57-4.91h-.91l.26,10.98h.87l.15-1.39c.15-.99.48-1.49.98-1.49.2,0,.83.37,1.89,1.11.76.51,1.65.98,2.67,1.41,1.02.43,2.06.64,3.12.64M97.7,238.14c1.79,0,2.93-.56,3.43-1.69.49-1.12.74-2.46.74-4.01h-.68c0,2.78-.89,4.17-2.69,4.17-.73,0-1.25-.23-1.55-.7-.3-.46-.45-1.04-.45-1.74v-11.32h4.69v-.97h-4.69v-6.67h-1.06v1.25c0,1.37-.32,2.61-.97,3.73-.64,1.12-1.53,1.68-2.67,1.68h-.83v.97h2.8v11.15c0,1.27.37,2.28,1.12,3.02.74.74,1.68,1.11,2.82,1.11M112.77,238.14c1.79,0,3.25-.55,4.37-1.65,1.12-1.1,1.76-2.5,1.91-4.19h-.91c-.28,1.72-.93,2.98-1.95,3.79s-2.12,1.22-3.28,1.22c-1.64,0-2.82-.68-3.54-2.05-.72-1.37-1.08-3.21-1.08-5.52h9.43c.43,0,.73-.04.91-.12.18-.08.27-.25.27-.51,0-1.23-.22-2.43-.66-3.59-.44-1.17-1.15-2.14-2.14-2.9-.98-.76-2.24-1.15-3.79-1.15-1.39,0-2.64.39-3.77,1.16s-2,1.81-2.63,3.09c-.63,1.29-.95,2.67-.95,4.15,0,2.59.71,4.62,2.14,6.08,1.43,1.46,3.31,2.19,5.66,2.19M108.3,228.9c0-1.83.34-3.39,1-4.67.67-1.29,1.65-1.93,2.93-1.93,1.21,0,2.08.64,2.61,1.91.53,1.27.8,2.84.8,4.69h-7.35ZM129.28,238.14c1.03,0,1.98-.27,2.84-.82.86-.54,1.58-1.37,2.16-2.48l.15.04v2.85h5.15v-.83h-1.59c-.3,0-.52-.06-.64-.17-.13-.12-.19-.31-.19-.59v-14.24h-5.15v.83h1.59c.3,0,.52.06.64.18.13.11.19.31.19.59v7.23c0,1.21-.2,2.3-.59,3.28-.39.98-.94,1.76-1.63,2.33-.69.57-1.48.85-2.36.85-1.06,0-1.81-.36-2.25-1.08-.44-.72-.66-1.59-.66-2.61v-11.6h-5.15v.83h1.59c.3,0,.52.06.64.18.13.11.19.31.19.59v9.35c0,1.46.39,2.71,1.16,3.75.77,1.04,2.07,1.56,3.92,1.56M150.41,238.14c1.79,0,3.25-.55,4.37-1.65,1.12-1.1,1.76-2.5,1.91-4.19h-.91c-.28,1.72-.93,2.98-1.95,3.79-1.02.81-2.12,1.22-3.28,1.22-1.64,0-2.82-.68-3.54-2.05-.72-1.37-1.08-3.21-1.08-5.52h9.43c.43,0,.73-.04.91-.12s.27-.25.27-.51c0-1.23-.22-2.43-.66-3.59s-1.15-2.14-2.14-2.9c-.98-.76-2.25-1.15-3.79-1.15-1.39,0-2.64.39-3.77,1.16-1.12.78-2,1.81-2.63,3.09-.63,1.29-.95,2.67-.95,4.15,0,2.59.71,4.62,2.14,6.08,1.43,1.46,3.32,2.19,5.66,2.19M145.94,228.9c0-1.83.34-3.39,1-4.67.67-1.29,1.65-1.93,2.93-1.93,1.21,0,2.08.64,2.61,1.91.53,1.27.8,2.84.8,4.69h-7.35ZM159.65,237.72h7.57v-.83h-1.59c-.3,0-.52-.06-.64-.17-.13-.12-.19-.31-.19-.59v-6.46c0-1.21.21-2.36.64-3.47.43-1.11,1-2.02,1.72-2.71.72-.7,1.47-1.04,2.25-1.04.38,0,.68.06.89.19l.32.5-.17.45-.51.38c-.51.35-.76.77-.76,1.25,0,.42.16.74.49.97.33.23.73.35,1.21.35.61,0,1.1-.24,1.49-.73s.59-.98.59-1.49c0-.88-.3-1.58-.91-2.08-.61-.51-1.39-.77-2.35-.77s-1.86.35-2.7,1.06c-.85.71-1.54,1.66-2.06,2.87l-.15-.03v-3.48h-5.15v.83h1.59c.3,0,.52.06.64.18.13.11.19.31.19.59v12.65c0,.28-.06.47-.19.59-.12.12-.34.17-.64.17h-1.59v.83ZM184.63,238.14c1.19,0,2.29-.36,3.31-1.1,1.02-.73,1.84-1.73,2.44-3,.61-1.27.91-2.69.91-4.24s-.3-2.96-.91-4.24c-.61-1.27-1.42-2.28-2.44-3-1.02-.73-2.13-1.1-3.31-1.1-.98,0-1.87.3-2.65.89-.78.59-1.36,1.3-1.74,2.14l-.15-.04v-11.46h-5.53v.83h1.97c.3,0,.52.06.64.18.13.11.19.31.19.59v23.13h.68l1.59-2.99h.15c.5,1.02,1.18,1.84,2.04,2.47.86.63,1.79.94,2.8.94M184.22,237.16c-.76,0-1.45-.25-2.08-.76-.63-.51-1.13-1.21-1.49-2.1-.37-.89-.55-1.86-.55-2.9v-3.2c0-1.04.18-2.01.55-2.9.37-.89.86-1.59,1.49-2.1.63-.51,1.33-.77,2.08-.77,1.24,0,2.17.64,2.8,1.91.63,1.27.95,3.09.95,5.45s-.32,4.18-.95,5.45c-.63,1.27-1.57,1.91-2.8,1.91M202.73,238.14c1.79,0,3.25-.55,4.37-1.65,1.12-1.1,1.76-2.5,1.91-4.19h-.91c-.28,1.72-.93,2.98-1.95,3.79s-2.12,1.22-3.27,1.22c-1.64,0-2.82-.68-3.54-2.05-.72-1.37-1.08-3.21-1.08-5.52h9.43c.43,0,.73-.04.91-.12.18-.08.26-.25.26-.51,0-1.23-.22-2.43-.66-3.59s-1.15-2.14-2.14-2.9c-.98-.76-2.25-1.15-3.79-1.15-1.39,0-2.65.39-3.77,1.16-1.12.78-2,1.81-2.63,3.09-.63,1.29-.95,2.67-.95,4.15,0,2.59.71,4.62,2.14,6.08,1.43,1.46,3.31,2.19,5.66,2.19M198.27,228.9c0-1.83.33-3.39,1-4.67.67-1.29,1.65-1.93,2.94-1.93,1.21,0,2.08.64,2.61,1.91.53,1.27.8,2.84.8,4.69h-7.34ZM211.97,237.72h7.57v-.83h-1.59c-.3,0-.52-.06-.64-.17-.13-.12-.19-.31-.19-.59v-6.46c0-1.21.21-2.36.64-3.47.43-1.11,1-2.02,1.72-2.71.72-.7,1.47-1.04,2.25-1.04.38,0,.67.06.89.19l.32.5-.17.45-.51.38c-.51.35-.76.77-.76,1.25,0,.42.17.74.49.97.33.23.73.35,1.21.35.61,0,1.1-.24,1.49-.73.39-.49.59-.98.59-1.49,0-.88-.31-1.58-.91-2.08-.61-.51-1.39-.77-2.35-.77s-1.86.35-2.71,1.06-1.53,1.66-2.06,2.87l-.15-.03v-3.48h-5.15v.83h1.59c.3,0,.52.06.64.18.12.11.19.31.19.59v12.65c0,.28-.06.47-.19.59-.13.12-.34.17-.64.17h-1.59v.83ZM232.72,238.14c1.13,0,2.13-.36,2.97-1.1.84-.73,1.46-1.5,1.84-2.31l.19.07c.05,1.04.35,1.86.89,2.45.54.59,1.36.88,2.44.88s1.92-.48,2.37-1.42c.44-.95.66-2.12.66-3.51h-.68c0,.97-.14,1.79-.42,2.47-.28.67-.73,1.01-1.36,1.01-.78,0-1.17-.58-1.17-1.74v-8.54c0-1.69-.61-2.94-1.82-3.73-1.21-.8-2.65-1.2-4.32-1.2-.86,0-1.7.16-2.52.47-.82.31-1.49.78-2.01,1.41-.52.63-.78,1.37-.78,2.22,0,.74.23,1.31.68,1.7.46.39.96.59,1.52.59.48,0,.88-.11,1.19-.32s.47-.55.47-1.04c0-.37-.12-.66-.36-.87-.24-.21-.59-.37-1.04-.49l-.32-.14-.25-.21c-.08-.12-.11-.29-.11-.52,0-.51.35-.97,1.06-1.37.71-.4,1.49-.61,2.35-.61,2.35,0,3.52,1.08,3.52,3.23v2.95l-3.49.59c-1.24.21-2.29.46-3.16.74-.87.29-1.63.77-2.29,1.44-.66.67-.99,1.6-.99,2.78,0,1.53.49,2.59,1.46,3.2.97.6,2.13.9,3.47.9M233.33,236.88c-.61,0-1.15-.19-1.63-.57-.48-.38-.72-1.1-.72-2.17,0-1.25.27-2.21.81-2.9.54-.68,1.42-1.14,2.63-1.37l3.29-.66v3.3c-.51,1.27-1.08,2.32-1.72,3.14s-1.53,1.23-2.67,1.23M252.56,238.14c1.79,0,2.93-.56,3.42-1.69.49-1.12.74-2.46.74-4.01h-.68c0,2.78-.9,4.17-2.69,4.17-.73,0-1.25-.23-1.55-.7-.31-.46-.46-1.04-.46-1.74v-11.32h4.7v-.97h-4.7v-6.67h-1.06v1.25c0,1.37-.32,2.61-.97,3.73-.64,1.12-1.53,1.68-2.67,1.68h-.83v.97h2.8v11.15c0,1.27.37,2.28,1.12,3.02.74.74,1.69,1.11,2.82,1.11M267.63,238.14c1.79,0,3.25-.55,4.37-1.65,1.12-1.1,1.76-2.5,1.91-4.19h-.91c-.28,1.72-.93,2.98-1.95,3.79s-2.12,1.22-3.27,1.22c-1.64,0-2.82-.68-3.54-2.05-.72-1.37-1.08-3.21-1.08-5.52h9.43c.43,0,.73-.04.91-.12.18-.08.26-.25.26-.51,0-1.23-.22-2.43-.66-3.59-.44-1.17-1.15-2.14-2.14-2.9-.99-.76-2.25-1.15-3.79-1.15-1.39,0-2.64.39-3.77,1.16-1.12.78-2,1.81-2.63,3.09-.63,1.29-.95,2.67-.95,4.15,0,2.59.71,4.62,2.14,6.08,1.43,1.46,3.32,2.19,5.66,2.19M263.16,228.9c0-1.83.33-3.39,1-4.67.67-1.29,1.65-1.93,2.93-1.93,1.21,0,2.08.64,2.61,1.91.53,1.27.8,2.84.8,4.69h-7.34ZM276.87,237.72h7.57v-.83h-1.59c-.3,0-.52-.06-.64-.17-.13-.12-.19-.31-.19-.59v-6.46c0-1.21.22-2.36.65-3.47.43-1.11,1-2.02,1.72-2.71.72-.7,1.47-1.04,2.26-1.04.38,0,.67.06.89.19l.32.5-.17.45-.51.38c-.51.35-.76.77-.76,1.25,0,.42.16.74.49.97.33.23.73.35,1.21.35.61,0,1.1-.24,1.5-.73.39-.49.59-.98.59-1.49,0-.88-.31-1.58-.91-2.08-.61-.51-1.39-.77-2.35-.77s-1.86.35-2.71,1.06c-.85.71-1.54,1.66-2.06,2.87l-.15-.03v-3.48h-5.15v.83h1.59c.3,0,.52.06.64.18.12.11.19.31.19.59v12.65c0,.28-.06.47-.19.59-.13.12-.34.17-.64.17h-1.59v.83Z"/>
  <g>
    <path class="cls-1" d="M43.98,185.51h75.42v-7.75h-18.74c-4.68,0-7.01-2.18-7.01-6.52v-72.33h78.55v72.33c0,4.34-2.35,6.52-7.03,6.52h-18.72v7.75h75.42v-7.75h-18.72c-4.68,0-7.03-2.18-7.03-6.52V27.53c0-4.36,2.35-6.54,7.03-6.54h-11.97v-7.74h-44.72v7.74h18.72c4.68,0,7.03,2.18,7.03,6.54v63.63h-78.55V27.53c0-4.36,2.33-6.54,7.01-6.54h18.74v-7.74H43.98v7.74h18.72c4.68,0,7.01,2.18,7.01,6.54v143.7c0,4.34-2.33,6.52-7.01,6.52h-18.72v7.75Z"/>
    <path class="cls-1" d="M146.4,185.51h74.11v-7.75h-17.42c-4.68,0-7.01-2.18-7.01-6.52v-58.31l21.58-20.32,42.41,74.02c.51.66.94,1.58,1.29,2.78.35,1.21.52,2.3.52,3.27,0,1.3-.69,2.46-2.09,3.51-1.38,1.04-3.04,1.57-4.93,1.57h-17.44v7.75h78.55v-7.75h-8.59c-5.19,0-9.18-.77-11.96-2.3-2.78-1.53-5.3-4.31-7.55-8.35l-53.04-90.71,43.7-41.13c9.87-9.5,17.67-14.27,23.41-14.27h10.39v-7.74h-68.65v7.74h7.01c3.28,0,6.06.97,8.32,2.9,2.26,1.95,3.39,4.36,3.39,7.26s-.52,5.49-1.57,7.75c-1.04,2.26-2.69,4.51-4.94,6.77l-59.81,56.85V27.53c0-2.26.57-3.91,1.69-4.97,1.12-1.03,2.9-1.57,5.33-1.57h17.42v-7.74h-74.11v7.74h18.74c2.43,0,4.21.54,5.33,1.57,1.12,1.06,1.69,2.72,1.69,4.97v143.7c0,4.34-2.33,6.52-7.01,6.52h-18.74v7.75Z"/>
  </g>
</svg>