<?xml version="1.0" encoding="UTF-8" standalone="no"?>
<svg xmlns:svg="http://www.w3.org/2000/svg" xmlns="http://www.w3.org/2000/svg" id="svg4863" version="1.1" width="1024" height="451" viewBox="-6.377952 -6.377952 511.322214 225.354304">
  <defs id="defs4860"></defs>
  <ellipse transform="rotate(-76.714204)" class="st0" cx="-79.035736" cy="127.88475" rx="105.04533" ry="105.04502" id="ellipse4671" style="fill:#ffffff;stroke-width:0.99996316"></ellipse>
  <path class="st1" d="m 106.2993,2.5 c 57.2351,0 103.7992,46.5641 103.7992,103.7992 0,57.2351 -46.5641,103.7992 -103.7992,103.7992 C 49.0642,210.0984 2.5,163.5343 2.5,106.2992 2.5,49.0641 49.0642,2.5 106.2993,2.5 m 0,-2.5 C 47.5918,0 0,47.5917 0,106.2992 c 0,58.7075 47.5918,106.2992 106.2992,106.2992 58.7074,0 106.2992,-47.5918 106.2992,-106.2992 C 212.5984,47.5918 165.0067,0 106.2993,0 Z" id="path4673" style="fill:#0f225a"></path>
  <path id="polygon4677" d="m 59.12296,57.81154 v 81.90821 h 14.80078 v -6.28321 c 2.8967,2.7411 5.81059,4.71197 8.74219,5.91797 2.9316,1.208 6.09725,1.81446 9.49805,1.81446 7.6374,0 14.24095,-2.95368 19.81445,-8.85938 3.6842,-3.9064 6.16351,-8.43831 7.41211,-13.59961 1.2641,5.092 3.74353,9.73771 7.39063,13.59961 5.5797,5.9058 12.19329,8.85938 19.83789,8.85938 3.406,0 6.56707,-0.60646 9.48437,-1.81446 2.9161,-1.206 5.82491,-3.17697 8.72461,-5.91797 v 6.28321 h 14.80078 V 80.626 h -14.80078 v 6.49804 c -2.645,-2.6488 -5.52718,-4.63598 -8.64258,-5.95898 -3.1174,-1.3246 -6.45025,-1.98633 -10.00195,-1.98633 -7.7155,0 -14.27483,2.90686 -19.67383,8.72266 -3.5404,3.8157 -5.89563,8.41002 -7.11133,13.64062 -1.2137,-5.2604 -3.59563,-9.80752 -7.14843,-13.64062 -5.3939,-5.8158 -11.9411,-8.72266 -19.6504,-8.72266 -3.5466,0 -6.87498,0.66544 -9.98828,1.99414 -3.1123,1.3287 -6.0065,3.32107 -8.6875,5.98047 V 57.81154 Z M 37.87101,80.39358 v 59.32421 H 52.67374 V 80.39358 Z M 89.47843,92.7549 c 4.6299,0 8.46355,1.62023 11.50195,4.85742 3.0363,3.23801 4.55469,7.38783 4.55469,12.45313 0,5.0997 -1.54697,9.29589 -4.63867,12.58789 -3.0918,3.2909 -6.89587,4.9375 -11.41797,4.9375 -4.6637,0 -8.53532,-1.61847 -11.60742,-4.85547 -3.0753,-3.2381 -4.61328,-7.47906 -4.61328,-12.72656 0,-5.1346 1.53798,-9.29456 4.61328,-12.47656 3.0721,-3.1847 6.94372,-4.77735 11.60742,-4.77735 z m 59.74024,0 c 4.7028,0 8.58976,1.59275 11.66406,4.77735 3.0743,3.1821 4.61133,7.34196 4.61133,12.47656 0,5.2475 -1.53713,9.48846 -4.61133,12.72656 -3.0742,3.237 -6.94258,4.85547 -11.60938,4.85547 -4.5201,0 -8.32627,-1.6465 -11.41797,-4.9375 -3.0928,-3.292 -4.63867,-7.48819 -4.63867,-12.58789 0,-5.0653 1.51934,-9.21502 4.55664,-12.45313 3.0383,-3.23699 6.85232,-4.85742 11.44532,-4.85742 z" style="fill:#0f225a"></path>
  <path class="st2" d="m 34.841,65.1861 c 0,-5.4868 4.4492,-9.9349 9.9365,-9.9349 5.4852,0 9.9345,4.4481 9.9345,9.9349 0,5.4878 -4.4492,9.9359 -9.9345,9.9359 -5.4873,0 -9.9365,-4.4482 -9.9365,-9.9359 z" id="path4679" style="fill:#e84c0a"></path>
  <path id="path4689" d="m 416.06828,79.88381 c -5.4315,0 -10.82227,2.67392 -10.82227,8.73242 0,5.474 4.80546,6.85404 9.56836,7.89844 4.7629,1.0444 9.52734,1.75431 9.52734,5.84961 0,4.3031 -3.97055,5.43164 -7.56445,5.43164 -4.5118,0 -8.68945,-2.1734 -8.68945,-7.1875 h -3.76172 c 0,7.2709 5.64262,10.5293 12.32812,10.5293 5.4315,0 11.65821,-2.54724 11.65821,-8.89844 0,-5.8498 -4.7645,-7.52258 -9.5293,-8.60938 -4.8035,-1.0859 -9.56836,-1.62768 -9.56836,-5.30468 0,-3.8857 3.34285,-5.09961 6.68555,-5.09961 4.0962,0 6.93658,1.83916 7.39648,6.10156 h 3.76172 c -0.2511,-6.5599 -4.89023,-9.44336 -10.99023,-9.44336 z m -174.86133,0.71094 v 19.05273 c 0,7.9395 4.55388,11.49024 12.24218,11.49024 7.4389,0 11.74024,-3.96814 11.74024,-11.49024 V 80.59475 h -3.96875 v 19.05273 c 0,5.2652 -2.75739,8.14844 -7.77149,8.14844 -5.2634,0 -8.27343,-2.88314 -8.27343,-8.14844 V 80.59475 Z m 32.59765,0 v 29.83398 h 3.76172 V 86.48537 h 0.084 l 15.58593,23.94336 h 4.34571 V 80.59475 h -3.76172 v 24.1914 h -0.084 l -15.71093,-24.1914 h -4.21875 z m 32.68164,0 v 29.83398 h 3.97071 V 80.59475 Z m 9.65625,0 10.5293,29.83398 h 4.51172 l 10.61523,-29.83398 h -4.13867 l -8.60742,25.86328 h -0.082 l -8.52344,-25.86328 z m 31.13672,0 v 29.83398 h 20.72461 v -3.34375 H 351.24796 V 96.76467 h 15.50196 v -3.34375 h -15.50196 v -9.48438 h 16.63086 v -3.34179 z m 27.83399,0 v 29.83398 h 3.96875 V 97.68459 h 9.69336 c 3.845,0 4.5533,2.46427 4.9707,5.38867 0.5855,2.9244 -0.0405,6.14397 1.08789,7.35547 h 4.42969 c -1.6714,-2.0472 -1.50656,-5.30802 -1.75586,-8.23242 -0.2936,-2.9254 -1.00241,-5.47408 -4.47071,-6.14258 v -0.084 c 3.59391,-1.0028 5.18165,-3.9686 5.18165,-7.5625 0,-4.763 -3.46691,-7.8125 -9.06641,-7.8125 z m 60.47461,0 v 29.83398 h 3.9707 V 80.59475 Z m 9.77929,0 v 3.34179 h 9.94532 v 26.49219 h 3.96875 V 83.93654 h 9.94531 v -3.34179 z m 26.28907,0 11.5332,17.63281 v 12.20117 h 3.96875 V 98.22756 l 11.4082,-17.63281 h -4.51367 l -8.73242,14.20703 -8.94141,-14.20703 z m -92.57422,3.34179 h 9.86133 c 3.7176,0 5.30664,2.17326 5.30664,5.09766 0,4.3455 -3.17694,5.30664 -6.89454,5.30664 h -8.27343 z m -104.53711,39.56055 c -4.907,0 -7.54102,3.76872 -7.54102,8.38672 0,4.6392 2.41003,8.29883 7.36133,8.29883 4.015,0 6.49178,-2.41026 6.89258,-6.38086 h -2.11914 c -0.2013,2.6317 -1.80505,4.5957 -4.59375,4.5957 -3.8155,0 -5.42188,-3.03352 -5.42188,-6.66992 0,-3.3233 1.60514,-6.44727 5.39844,-6.44727 2.207,0 4.01584,1.13948 4.46094,3.39258 h 2.11914 c -0.4912,-3.3908 -3.23424,-5.17578 -6.55664,-5.17578 z m -16.3125,0.20117 c -2.074,0 -3.1875,0.97992 -3.1875,2.85352 v 1.71875 h -1.94141 v 1.67383 h 1.94141 v 9.85742 h 1.89453 v -9.85742 h 2.23047 v -1.67383 h -2.23047 v -1.60547 c 0,-1.0038 0.53502,-1.29492 1.44922,-1.29492 0.3361,0 0.73601,0.0446 1.07031,0.15625 V 123.876 c -0.3565,-0.1108 -0.87016,-0.17774 -1.22656,-0.17774 z m 104.34961,0.17774 v 2.32031 h 1.89648 V 123.876 Z m 35.30273,0 v 15.92578 h 11.06445 v -1.7832 h -8.94335 v -5.50977 h 8.27539 v -1.78516 h -8.27539 v -5.0625 h 8.87695 V 123.876 Z m 21.9336,0 v 5.93359 h -0.0449 c -0.8477,-1.3611 -2.54271,-1.80664 -3.72461,-1.80664 -3.5237,0 -5.26367,2.7441 -5.26367,6 0,3.2568 1.7627,6.06836 5.3086,6.06836 1.5846,0 3.05548,-0.55858 3.67968,-1.83008 h 0.0449 v 1.56055 h 1.89648 V 123.876 Z m 49.34374,0 v 2.32031 h 1.89649 V 123.876 Z m -113.18359,0.9375 v 3.45703 h -1.96484 v 1.67383 h 1.96484 v 7.33789 c 0,2.1192 0.77899,2.51953 2.74219,2.51953 h 1.44922 v -1.67188 h -0.86914 c -1.182,0 -1.42774,-0.15754 -1.42774,-1.02734 v -7.1582 h 2.29688 v -1.67383 h -2.29688 v -3.45703 z m 106.57813,0 v 3.45703 h -1.96289 v 1.67383 h 1.96289 v 7.33789 c 0,2.1192 0.77898,2.51953 2.74218,2.51953 h 1.45118 v -1.67188 h -0.8711 c -1.182,0 -1.42773,-0.15754 -1.42773,-1.02734 v -7.1582 h 2.29883 v -1.67383 h -2.29883 v -3.45703 z m -216.33204,3.18945 c -3.6558,0 -5.5957,2.65422 -5.5957,6.04492 0,3.3677 1.93991,6.02344 5.5957,6.02344 3.6585,0 5.59961,-2.65574 5.59961,-6.02344 0,-3.3907 -1.9411,-6.04492 -5.59961,-6.04492 z m 42.53516,0 c -3.6567,0 -5.59766,2.65422 -5.59766,6.04492 0,3.3677 1.94096,6.02344 5.59766,6.02344 3.6585,0 5.59961,-2.65574 5.59961,-6.02344 0,-3.3907 -1.94111,-6.04492 -5.59961,-6.04492 z m 13.00977,0 c -3.6567,0 -5.59756,2.65422 -5.59766,6.04492 0,3.3677 1.94096,6.02344 5.59766,6.02344 3.6585,0 5.59961,-2.65574 5.59961,-6.02344 0,-3.3907 -1.94111,-6.04492 -5.59961,-6.04492 z m 13.72461,0 c -1.5846,0 -3.05744,0.55662 -3.68164,1.82813 h -0.043 v -1.56055 h -1.89649 v 15.94922 h 1.89649 v -5.95703 h 0.043 c 0.8477,1.3611 2.54271,1.80859 3.7246,1.80859 3.52381,0 5.26563,-2.74515 5.26563,-6.00195 0,-3.2568 -1.76269,-6.06641 -5.30859,-6.06641 z m 12.54101,0 c -3.1451,0 -5.41992,2.5428 -5.41992,6 0.1108,3.5246 1.85055,6.06836 5.53125,6.06836 2.5874,0 4.41809,-1.38463 4.92969,-3.92773 h -1.87305 c -0.3343,1.495 -1.42783,2.2539 -2.99023,2.2539 -2.519,0 -3.65635,-1.78351 -3.58985,-3.79101 h 8.63086 c 0.1108,-2.7887 -1.13725,-6.60352 -5.21875,-6.60352 z m 13.38867,0 c -2.0518,-0.0665 -3.32408,0.84782 -4.23828,2.69922 h -0.043 v -2.43164 h -1.78515 v 11.53125 h 1.89453 v -5.12891 c 0,-2.9217 1.11537,-4.66211 4.17187,-4.66211 z m 6.33985,0 c -2.5652,0 -4.77217,1.00222 -4.88477,3.85742 h 1.89649 c 0.0886,-1.6945 1.27025,-2.18555 2.87695,-2.18555 1.2041,0 2.56445,0.26893 2.56445,1.91993 0,1.4276 -1.78286,1.29256 -3.88086,1.69336 -1.9613,0.3795 -3.90234,0.93737 -3.90234,3.54687 0,2.2974 1.7164,3.23633 3.8125,3.23633 1.6068,0 3.01345,-0.55796 4.06055,-1.78516 0,1.2493 0.62476,1.78516 1.60546,1.78516 0.6021,0 1.02703,-0.1121 1.36133,-0.3125 v -1.47266 c -0.2456,0.0895 -0.42497,0.11133 -0.58007,0.11133 -0.60211,0 -0.60157,-0.40292 -0.60157,-1.29492 v -5.93164 c 0,-2.6991 -2.25232,-3.16797 -4.32812,-3.16797 z m 36.01758,0 c -3.1451,0 -5.41993,2.5428 -5.41993,6 0.1108,3.5246 1.85055,6.06836 5.53125,6.06836 2.5873,0 4.41809,-1.38463 4.92969,-3.92773 h -1.87305 c -0.3343,1.495 -1.42783,2.2539 -2.99023,2.2539 -2.5191,0 -3.65634,-1.78351 -3.58984,-3.79101 h 8.63086 c 0.1108,-2.7887 -1.13725,-6.60352 -5.21875,-6.60352 z m 58.48632,0 c -3.6585,0 -5.4414,2.72159 -5.4414,6.17969 0,3.4351 1.87284,5.88867 5.39843,5.88867 2.8995,0 4.66114,-1.67348 5.08594,-4.48438 h -1.9414 c -0.2456,1.7407 -1.33967,2.81055 -3.16797,2.81055 -2.4101,0 -3.36914,-2.09654 -3.36914,-4.21484 0,-2.3427 0.84929,-4.50782 3.59179,-4.50782 1.5624,0 2.56557,0.84913 2.85547,2.29883 h 1.96289 c -0.2678,-2.7434 -2.36501,-3.9707 -4.97461,-3.9707 z m 12.07227,0 c -2.5634,0 -4.77217,1.00222 -4.88477,3.85742 h 1.89649 c 0.0886,-1.6945 1.2722,-2.18555 2.8789,-2.18555 1.2041,0 2.56446,0.26893 2.56446,1.91993 0,1.4276 -1.78481,1.29256 -3.88282,1.69336 -1.96129,0.3795 -3.90234,0.93737 -3.90234,3.54687 0,2.2974 1.71835,3.23633 3.81445,3.23633 1.6068,0 3.0115,-0.55796 4.0586,-1.78516 0,1.2493 0.62672,1.78516 1.60742,1.78516 0.6021,0 1.02703,-0.1121 1.36133,-0.3125 v -1.47266 c -0.2456,0.0895 -0.42498,0.11133 -0.58008,0.11133 -0.6021,0 -0.60156,-0.40292 -0.60156,-1.29492 v -5.93164 c 0,-2.6991 -2.25428,-3.16797 -4.33008,-3.16797 z m 24.83594,0 c -3.6568,0 -5.59766,2.65422 -5.59766,6.04492 0,3.3677 1.94096,6.02344 5.59766,6.02344 3.6585,0 5.59961,-2.65574 5.59961,-6.02344 0,-3.3907 -1.94111,-6.04492 -5.59961,-6.04492 z m 13.61523,0 c -1.651,0 -2.94475,0.6681 -3.74805,2.0957 h -0.0449 v -1.82812 h -1.7832 v 11.53125 h 1.89648 v -6.51367 c 0,-2.074 1.11471,-3.61329 3.41211,-3.61329 1.4498,10e-6 2.3418,0.91492 2.3418,2.32032 v 7.80664 h 1.89453 v -7.58399 c 0,-2.4757 -0.93625,-4.21484 -3.96875,-4.21484 z m -130.20898,0.26758 v 11.53125 h 1.89648 v -11.53125 z m 3.92773,0 4.2832,11.53125 h 2.0293 l 4.2168,-11.53125 h -1.98633 l -3.14453,9.61328 h -0.0449 l -3.23242,-9.61328 z m 58.33399,0 v 7.58398 c 0,2.4766 0.9364,4.2168 3.9707,4.2168 1.6511,0 2.94269,-0.67006 3.74609,-2.09766 h 0.0449 v 1.82813 h 1.78321 0.002 v -11.53125 h -1.89648 v 6.51367 c 0,2.074 -1.11471,3.61328 -3.41211,3.61328 -1.4498,0 -2.3418,-0.91491 -2.3418,-2.32031 v -7.80664 z m 44.31835,0 v 11.53125 h 1.89649 v -11.53125 z m -222.9375,1.40429 c 1.9853,0 3.59376,1.56225 3.59376,4.37305 0,2.7877 -1.60846,4.34961 -3.59376,4.34961 -1.98539,0 -3.58789,-1.56191 -3.58789,-4.34961 0,-2.8108 1.6026,-4.37305 3.58789,-4.37305 z m 42.53516,0 c 1.9853,0 3.5918,1.56225 3.5918,4.37305 0,2.7877 -1.6065,4.34961 -3.5918,4.34961 -1.9854,0 -3.58994,-1.56191 -3.58984,-4.34961 0,-2.8108 1.60454,-4.37305 3.58984,-4.37305 z m 13.00977,0 c 1.9853,0 3.59179,1.56225 3.59179,4.37305 0,2.7877 -1.60649,4.34961 -3.59179,4.34961 -1.9853,0 -3.58985,-1.56191 -3.58985,-4.34961 0,-2.8108 1.60455,-4.37305 3.58985,-4.37305 z m 13.45703,0 c 2.4544,0 3.56846,2.09822 3.56836,4.26172 0,2.2531 -0.87159,4.46094 -3.45899,4.46094 -2.6095,0 -3.63281,-2.09679 -3.63281,-4.37109 0,-2.1645 0.98034,-4.35157 3.52344,-4.35157 z m 12.69726,0 c 1.8745,0 3.23552,1.45072 3.32422,3.25782 h -6.625 c 0.133,-1.7619 1.31548,-3.25782 3.30078,-3.25782 z m 55.74414,0 c 1.8745,0 3.23552,1.45072 3.32422,3.25782 h -6.62304 c 0.1329,-1.7619 1.31352,-3.25782 3.29882,-3.25782 z m 32.58204,0 c 2.6096,0 3.63671,2.09775 3.63671,4.37305 0,2.1635 -0.98229,4.34961 -3.52539,4.34961 -2.4526,0 -3.56836,-2.09832 -3.56836,-4.26172 0,-2.2522 0.86964,-4.46094 3.45704,-4.46094 z m 62.92578,0 c 1.9853,0 3.59375,1.56225 3.59375,4.37305 0,2.7877 -1.60845,4.34961 -3.59375,4.34961 -1.9854,0 -3.58995,-1.56191 -3.58985,-4.34961 0,-2.8108 1.60455,-4.37305 3.58985,-4.37305 z m -128.98047,4.17188 v 1.94141 c 0,1.048 -1.02654,2.60937 -3.52344,2.60937 -1.1598,0 -2.23047,-0.44591 -2.23047,-1.69531 0,-1.4055 1.06996,-1.85172 2.31836,-2.07422 1.2706,-0.2235 2.69865,-0.24565 3.43555,-0.78125 z m 106.57812,0 v 1.94141 c 0,1.048 -1.02653,2.60937 -3.52343,2.60937 -1.1598,0 -2.23243,-0.44591 -2.23243,-1.69531 0,-1.4055 1.07192,-1.85172 2.32032,-2.07422 1.2706,-0.2235 2.69864,-0.24565 3.43554,-0.78125 z" style="fill:#0f225a"></path>
</svg>
