<?xml version="1.0" encoding="UTF-8"?>
<svg xmlns="http://www.w3.org/2000/svg" id="Ebene_1" data-name="Ebene 1" viewBox="0 0 1532.552 393.154">
  <path d="M187.786,125.201l19.529-110.679h65.106l-53.389,303.822h-65.102l2.601-15.623c-17.074,14.469-39.057,21.699-65.971,21.699-32.986,0-57.148-12.001-72.482-36.022-15.05-24.016-19.533-51.937-13.453-83.769,5.779-30.092,19.378-55.701,40.797-76.828,21.988-21.699,49.044-32.551,81.164-32.551,27.78,0,48.178,9.982,61.2,29.95ZM112.264,262.789c14.757,0,27.704-4.625,38.844-13.892,11.136-9.254,18.299-21.553,21.486-36.891l.865-4.341c2.024-15.623-.865-27.993-8.681-37.109-7.811-9.116-19.094-13.67-33.851-13.67-15.343,0-28.649,4.847-39.932,14.54-11.282,9.698-18.379,22.498-21.269,38.409-2.894,15.916-.364,28.72,7.598,38.414,7.954,9.698,19.6,14.54,34.939,14.54Z" style="fill: #474a4c; stroke-width: 0px;"></path>
  <path d="M368.365,324.42c-25.751,0-47.02-6.218-63.801-18.663-32.986-25.458-44.996-60.33-36.026-104.603,6.081-29.515,20.687-54.538,43.842-75.088,23.141-20.541,51.933-30.815,86.37-30.815,34.726,0,60.907,12.587,78.559,37.761,17.94,24.89,24.016,52.812,18.233,83.769-5.211,29.231-19.822,54.547-43.837,75.958-23.732,21.122-51.507,31.681-83.339,31.681ZM430.866,209.836c2.894-15.334.506-27.704-7.159-37.109-7.669-9.4-18.592-14.105-32.768-14.105s-26.55,4.705-37.113,14.105c-10.563,9.405-17.292,21.774-20.177,37.109-2.61,15.343-.293,27.713,6.942,37.109,7.23,9.409,17.94,14.109,32.116,14.109s26.763-4.7,37.761-14.109c10.998-9.396,17.798-21.766,20.399-37.109Z" style="fill: #474a4c; stroke-width: 0px;"></path>
  <path d="M659.554,163.828h-44.703l-13.457,76.823c-1.731,8.681.506,14.256,6.729,16.71,6.223,2.463,17.864,3.116,34.939,1.957l-10.412,59.025c-38.782,4.341-65.909.142-81.381-12.587-15.485-12.729-20.478-34.428-14.975-65.106l13.457-76.823h-34.726l11.282-62.501h34.291l7.377-41.232,68.581-19.533-10.852,60.765h45.142l-11.291,62.501Z" style="fill: #474a4c; stroke-width: 0px;"></path>
  <path d="M850.994,8.446l-10.852,62.501c-26.91-2.024-42.253,8.104-46.008,30.38h40.367l-10.852,62.501h-40.362l-27.349,154.516h-65.102l27.34-154.516h-29.08l10.852-62.501h29.084c5.49-32.116,18.508-56.132,39.057-72.048,20.545-15.911,48.183-22.857,82.904-20.834Z" style="fill: #494c4e; stroke-width: 0px;"></path>
  <path d="M900.449,318.344h-65.11l24.309-138.454L890.898,1.5h65.102l-31.681,181.426-23.869,135.418Z" style="fill: #494c4e; stroke-width: 0px;"></path>
  <path d="M1408.151,217.647l50.783-116.32h71.617l-107.639,217.017h-60.77l-14.318-114.15-50.783,114.15h-65.106l-31.25-217.017h65.102l13.457,116.32,51.653-116.32h62.936l14.318,116.32Z" style="fill: #494c4e; stroke-width: 0px;"></path>
  <g>
    <path d="M1017.002,369.656l21.184-46.72c-.052-.008-.105-.016-.157-.024-.126.338-.246.677-.396,1.011l-20.63,45.733Z" style="fill: #13a9d2; stroke-width: 0px;"></path>
    <path d="M969.768,247.946c3.594-6.721,12.242-9.204,19.368-5.99,7.713,3.479,11.145,12.553,7.665,20.265l-14.542,32.128c.019.021.038.042.058.062l-2.976,6.501c-3.55,7.868-.232,17.561,7.819,20.674,8.391,3.244,16.391.244,21.391-9.756,4-8,13.392-12.13,21.26-8.58,7.535,3.399,11.047,12.028,8.217,19.663.052.008.105.016.157.024l-21.184,46.72-.023.05c-3.549,7.868-.126,17.087,7.646,20.593,7.772,3.506,16.949-.03,20.499-7.898l23.327-51.443.006-.002s.003-.009.005-.013l10.814-23.971c3.64-8.071,13.135-11.662,21.207-8.021,7.931,3.578,12.085,11.242,8.07,20.879-5,12,1,19,7.543,21.591,7.868,3.549,17.125.048,20.673-7.82,0,0,28.784-56.771,36.784-77.771,6.099-16.009,10.055-25.934,12.392-39.048,5.784-30.957-.292-58.879-18.233-83.769-17.651-25.174-43.832-37.761-78.557-37.761-34.438,0-63.229,10.275-86.371,30.815-17.139,15.211-27.296,32.821-37.363,53.002-5.868,11.762-28.364,65.813-28.364,65.813-3.55,7.868-.692,18.219,7.496,20.948,15,5,21-10,25.216-17.884ZM1024.051,209.836c2.885-15.335,9.613-27.704,20.176-37.109,10.563-9.4,22.933-14.105,37.113-14.105s25.099,4.705,32.769,14.105c7.664,9.405,10.053,21.774,7.158,37.109-2.6,15.343-9.399,27.713-20.398,37.109-10.998,9.409-23.586,14.109-37.762,14.109s-24.885-4.7-32.115-14.109c-7.235-9.396-9.551-21.766-6.942-37.109Z" style="fill: #13a9d2; stroke-width: 0px;"></path>
    <path d="M1108.333,354.682c-8.743-3.944-19.029-.054-22.973,8.69-3.945,8.743-.054,19.029,8.69,22.973h0c8.744,3.944,19.029.054,22.973-8.69,3.945-8.743.053-19.029-8.69-22.973Z" style="fill: #13a9d2; stroke-width: 0px;"></path>
    <path d="M989.325,354.99c.779-7.261-3.103-14.514-10.122-17.68-8.743-3.944-19.029-.054-22.972,8.69-3.945,8.743-.054,19.029,8.69,22.973,7.018,3.166,15.024,1.275,19.952-4.114,1.211-1.324,2.242-2.852,3.021-4.576.778-1.725,1.239-3.509,1.431-5.293Z" style="fill: #13a9d2; stroke-width: 0px;"></path>
  </g>
  <path d="M1528.609,290.723c0,15.752-12.364,28.116-28.454,28.116-15.921,0-28.624-12.364-28.624-28.116,0-15.413,12.703-27.777,28.624-27.777,16.09,0,28.454,12.364,28.454,27.777ZM1478.644,290.723c0,12.364,9.146,22.188,21.68,22.188,12.195,0,21.172-9.823,21.172-22.019,0-12.363-8.977-22.356-21.341-22.356s-21.511,9.993-21.511,22.188ZM1495.751,305.29h-6.436v-27.777c2.54-.508,6.098-.847,10.67-.847,5.251,0,7.622.847,9.654,2.032,1.524,1.186,2.71,3.388,2.71,6.098,0,3.049-2.371,5.42-5.759,6.436v.339c2.711,1.017,4.234,3.049,5.082,6.775.847,4.234,1.354,5.928,2.032,6.944h-6.944c-.847-1.017-1.355-3.558-2.202-6.775-.508-3.049-2.201-4.403-5.759-4.403h-3.049v11.179ZM1495.921,289.538h3.049c3.557,0,6.436-1.186,6.436-4.065,0-2.54-1.862-4.233-5.928-4.233-1.693,0-2.879.169-3.557.338v7.961Z" style="fill: #474a4c; stroke-width: 0px;"></path>
</svg>
