<?xml version="1.0" encoding="UTF-8"?>
<svg xmlns="http://www.w3.org/2000/svg" xmlns:xlink="http://www.w3.org/1999/xlink" version="1.1" id="Layer_1" x="0px" y="0px" viewBox="0 0 604.31 252.34" style="enable-background:new 0 0 604.31 252.34;" xml:space="preserve">
<style type="text/css">
	.st0{fill:#003864;}
	.st1{fill:#42B6E7;}
	.st2{fill:#FFFFFF;}
</style>
<g>
	<g>
		<path class="st0" d="M221.47,72.02c2.03,2.97,3.05,6.4,3.05,10.3c0,6.78-2.18,11.97-6.54,15.56c-4.36,3.59-10.49,5.38-18.38,5.38    h-21.58h-4.82V41.92l-10.38-1.16v-9.07h34.95c8.06,0,14.25,1.6,18.58,4.79s6.49,8.05,6.49,14.57c0,3.34-0.89,6.32-2.68,8.95    c-1.79,2.62-4.35,4.62-7.69,6C216.44,67.05,219.44,69.05,221.47,72.02z M185.94,41.96v19.81h11.94c3.9,0,6.92-0.87,9.07-2.6    c2.15-1.74,3.22-4.18,3.22-7.32c0-3.47-1-5.99-3-7.54c-2-1.56-5.13-2.33-9.39-2.33H185.94z M208.67,90.11    c2.11-1.95,3.17-4.55,3.17-7.79c0-7.47-3.9-11.21-11.7-11.21h-14.2v21.92h13.66C203.53,93.03,206.56,92.06,208.67,90.11z"></path>
		<path class="st0" d="M248.93,31.57c1.24,1.23,1.87,2.79,1.87,4.69c0,1.87-0.62,3.41-1.87,4.62c-1.25,1.21-2.93,1.82-5.06,1.82    c-2.13,0-3.82-0.6-5.06-1.79c-1.25-1.2-1.87-2.74-1.87-4.64c0-1.9,0.62-3.47,1.87-4.69c1.25-1.23,2.93-1.84,5.06-1.84    C245.99,29.73,247.68,30.34,248.93,31.57z M237.72,103.26V50.07h12.24v53.18H237.72z"></path>
		<path class="st0" d="M308.97,80.5h-34.65c0.23,2.72,0.93,5.13,2.11,7.23c1.18,2.1,2.78,3.74,4.79,4.92s4.37,1.77,7.05,1.77    c5.5,0,9.93-2.16,13.27-6.49l6.54,6.34c-1.93,2.85-4.62,5.23-8.06,7.13c-3.44,1.9-7.6,2.85-12.48,2.85    c-5.18,0-9.7-1.12-13.57-3.37c-3.87-2.24-6.83-5.32-8.9-9.22c-2.06-3.9-3.1-8.27-3.1-13.12v-2.02c0-5.47,1.05-10.28,3.15-14.43    c2.1-4.14,4.98-7.35,8.65-9.61c3.67-2.26,7.8-3.39,12.39-3.39c5.01,0,9.22,1.1,12.63,3.29c3.41,2.2,5.96,5.27,7.64,9.22    c1.69,3.95,2.53,8.53,2.53,13.74V80.5z M296.88,70.72c-0.16-3.44-1.1-6.27-2.8-8.48c-1.7-2.21-4.36-3.32-7.96-3.32    c-3.21,0-5.8,1.11-7.77,3.34c-1.97,2.23-3.23,5.36-3.78,9.39h22.31V70.72z"></path>
		<path class="st0" d="M344.19,93.62v9.44c-2.36,0.79-5.01,1.18-7.96,1.18c-4.33,0-7.73-1.2-10.22-3.59    c-2.49-2.39-3.74-6.21-3.74-11.45V59.12h-8.65v-9.04h8.65V37.1h12.24v12.98h9.34v9.04h-9.34v29.25c0,2.23,0.46,3.74,1.38,4.55    c0.92,0.8,2.29,1.2,4.13,1.2C341.32,94.11,342.71,93.95,344.19,93.62z"></path>
		<path class="st0" d="M425.02,53.83C428,57,429.5,62,429.5,68.85v34.41h-12.24V68.8c0-3.64-0.78-6.17-2.33-7.59    c-1.56-1.43-3.89-2.14-7-2.14c-2.56,0-4.69,0.69-6.41,2.06c-1.72,1.38-2.94,3.23-3.66,5.55l0.05,1.13v35.44h-12.24V68.95    c0-3.57-0.79-6.11-2.38-7.62c-1.59-1.51-3.92-2.26-7-2.26c-4.69,0-8.01,1.92-9.98,5.75v38.44h-12.24V50.07h11.5l0.39,5.6    c1.8-2.13,3.99-3.76,6.56-4.89c2.57-1.13,5.5-1.7,8.77-1.7c3.34,0,6.26,0.66,8.75,1.99c2.49,1.33,4.41,3.37,5.75,6.12    c1.8-2.56,4.08-4.55,6.83-5.97c2.75-1.43,5.92-2.14,9.49-2.14C417.73,49.09,422.04,50.67,425.02,53.83z"></path>
		<path class="st0" d="M486.93,102.42v0.84h-12.48c-0.53-1.15-0.98-2.8-1.38-4.96c-1.67,1.8-3.67,3.24-6,4.33    c-2.33,1.08-4.96,1.62-7.91,1.62c-3.47,0-6.59-0.69-9.34-2.06c-2.75-1.38-4.9-3.28-6.44-5.7c-1.54-2.42-2.31-5.14-2.31-8.16    c0-5.67,2.11-10.01,6.32-13.02c4.21-3.01,10.18-4.52,17.92-4.52h7.37v-3.44c0-2.82-0.77-5.02-2.31-6.61    c-1.54-1.59-3.82-2.38-6.83-2.38c-1.8,0-3.39,0.31-4.77,0.93c-1.38,0.62-2.44,1.47-3.19,2.56c-0.75,1.08-1.13,2.29-1.13,3.64    H442.2c0-2.85,0.91-5.53,2.73-8.04c1.82-2.51,4.41-4.52,7.77-6.05c3.36-1.52,7.2-2.29,11.53-2.29c4.06,0,7.65,0.69,10.76,2.06    c3.11,1.38,5.55,3.44,7.3,6.19s2.63,6.11,2.63,10.08v23.44C484.92,95.72,485.59,99.57,486.93,102.42z M468.33,92.64    c1.98-1.21,3.43-2.67,4.35-4.37v-9.93h-6.39c-4.26,0-7.49,0.77-9.68,2.31c-2.2,1.54-3.29,3.7-3.29,6.49    c0,2.16,0.72,3.92,2.16,5.28c1.44,1.36,3.46,2.04,6.05,2.04C464.08,94.46,466.34,93.85,468.33,92.64z"></path>
		<path class="st0" d="M538.1,53.78c2.93,3.13,4.4,8.18,4.4,15.16v34.31h-12.24V68.85c0-3.54-0.76-6.05-2.29-7.54    c-1.52-1.49-3.86-2.24-7-2.24c-2.29,0-4.34,0.56-6.14,1.67c-1.8,1.11-3.24,2.67-4.33,4.67v37.85h-12.24V50.07h11.5l0.39,6.14    c1.9-2.29,4.16-4.05,6.78-5.28c2.62-1.23,5.5-1.84,8.65-1.84C531,49.09,535.17,50.66,538.1,53.78z"></path>
		<path class="st0" d="M595.34,53.78c2.93,3.13,4.4,8.18,4.4,15.16v34.31H587.5V68.85c0-3.54-0.76-6.05-2.29-7.54    c-1.52-1.49-3.86-2.24-7-2.24c-2.29,0-4.34,0.56-6.14,1.67c-1.8,1.11-3.24,2.67-4.33,4.67v37.85H555.5V50.07h11.5l0.39,6.14    c1.9-2.29,4.16-4.05,6.78-5.28c2.62-1.23,5.5-1.84,8.65-1.84C588.24,49.09,592.41,50.66,595.34,53.78z"></path>
	</g>
</g>
<g>
	<g>
		<path class="st0" d="M204.87,173.83v0.36h-6.17l-9.38-17.51h-10.06v17.51h-5.76v-43.22h14.31c4.89,0,8.64,1.11,11.25,3.34    c2.61,2.23,3.92,5.44,3.92,9.63c0,2.67-0.73,5.01-2.18,7.02c-1.45,2.01-3.48,3.52-6.07,4.53L204.87,173.83z M187.95,152.04    c1.98,0,3.66-0.36,5.05-1.07s2.43-1.68,3.13-2.91c0.7-1.23,1.05-2.6,1.05-4.13c0-2.61-0.77-4.65-2.32-6.11s-3.9-2.2-7.06-2.2    h-8.55v16.42H187.95z"></path>
		<path class="st0" d="M235.95,159.64h-21.73c0.06,2,0.47,3.81,1.25,5.43s1.87,2.9,3.28,3.84c1.41,0.94,3.07,1.41,4.97,1.41    c1.86,0,3.47-0.38,4.82-1.13c1.36-0.75,2.57-1.83,3.64-3.24l3.35,2.61c-1.19,1.82-2.77,3.31-4.75,4.47    c-1.98,1.16-4.43,1.74-7.36,1.74s-5.51-0.66-7.75-1.99c-2.24-1.33-3.96-3.17-5.18-5.52c-1.22-2.35-1.83-5.03-1.83-8.01v-1.28    c0-3.34,0.65-6.27,1.96-8.77c1.31-2.5,3.03-4.42,5.18-5.74c2.15-1.33,4.45-1.99,6.9-1.99c2.99,0,5.47,0.67,7.44,2    c1.97,1.34,3.43,3.18,4.38,5.54c0.95,2.36,1.42,5.08,1.42,8.16V159.64z M230.4,154.77c-0.16-2.51-0.84-4.62-2.03-6.31    s-3.08-2.54-5.65-2.54c-2.22,0-4.06,0.81-5.54,2.42c-1.47,1.61-2.4,3.89-2.78,6.84h16V154.77z"></path>
		<path class="st0" d="M268.04,164.03c-0.1,1.88-0.74,3.65-1.93,5.3c-1.19,1.65-2.75,2.97-4.67,3.96c-1.93,0.99-4,1.48-6.22,1.48    c-3.11,0-5.73-0.72-7.88-2.15c-2.15-1.43-3.75-3.36-4.82-5.79c-1.07-2.42-1.6-5.12-1.6-8.09v-1.25c0-2.97,0.53-5.66,1.6-8.09    c1.07-2.42,2.68-4.35,4.82-5.79c2.15-1.43,4.77-2.15,7.88-2.15c2.45,0,4.64,0.5,6.54,1.51c1.91,1.01,3.41,2.4,4.5,4.17    s1.68,3.75,1.78,5.95h-5.25c-0.1-1.33-0.48-2.54-1.13-3.64c-0.65-1.1-1.53-1.96-2.64-2.6c-1.11-0.63-2.37-0.95-3.8-0.95    c-2.12,0-3.83,0.55-5.14,1.65c-1.31,1.1-2.24,2.51-2.79,4.24c-0.55,1.73-0.83,3.63-0.83,5.68v1.25c0,3.29,0.68,6.04,2.03,8.25    c1.36,2.22,3.6,3.32,6.72,3.32c1.29,0,2.49-0.27,3.61-0.82c1.12-0.54,2.03-1.3,2.75-2.26c0.71-0.96,1.12-2.03,1.22-3.22H268.04z"></path>
		<path class="st0" d="M299.47,153.14v21.05h-5.55v-21.1c0-2.45-0.53-4.23-1.59-5.34c-1.06-1.11-2.66-1.66-4.79-1.66    c-1.7,0-3.23,0.47-4.59,1.4c-1.36,0.93-2.43,2.18-3.22,3.74v22.98h-5.55v-45.59h5.55v17.28c1.17-1.4,2.55-2.49,4.16-3.25    s3.36-1.14,5.28-1.14C296.04,141.47,299.47,145.36,299.47,153.14z"></path>
		<path class="st0" d="M321.29,174.19c-1.27,0.4-2.68,0.59-4.24,0.59c-2.24,0-4.03-0.67-5.39-2.02c-1.36-1.35-2.03-3.53-2.03-6.56    v-19.95h-5.85v-4.19h5.85v-7.81h5.55v7.81h6v4.19h-6v19.98c0,1.52,0.32,2.55,0.95,3.07c0.63,0.52,1.49,0.79,2.58,0.79    c0.42,0,0.87-0.03,1.37-0.1c0.49-0.07,0.89-0.14,1.19-0.22L321.29,174.19z"></path>
		<path class="st0" d="M330.24,156.76c-1.95-1.42-2.92-3.39-2.92-5.91c0-1.7,0.5-3.27,1.48-4.69s2.39-2.56,4.2-3.41    c1.81-0.85,3.88-1.28,6.22-1.28c2.49,0,4.67,0.45,6.53,1.34s3.28,2.09,4.26,3.61s1.47,3.2,1.47,5.06h-5.55    c0-0.91-0.27-1.79-0.8-2.64s-1.31-1.55-2.33-2.09c-1.02-0.54-2.21-0.82-3.58-0.82c-1.44,0-2.64,0.22-3.59,0.67    s-1.65,1.03-2.09,1.75c-0.45,0.72-0.67,1.5-0.67,2.33c0,0.85,0.2,1.56,0.61,2.12c0.41,0.56,1.14,1.07,2.2,1.53    c1.06,0.46,2.59,0.9,4.59,1.34c2.69,0.61,4.88,1.34,6.56,2.17c1.68,0.83,2.93,1.85,3.76,3.06c0.82,1.21,1.23,2.67,1.23,4.39    c0,1.86-0.51,3.51-1.54,4.94c-1.03,1.44-2.48,2.55-4.36,3.35c-1.88,0.8-4.06,1.2-6.53,1.2c-2.73,0-5.09-0.49-7.08-1.47    c-1.99-0.98-3.5-2.27-4.53-3.87s-1.54-3.31-1.54-5.14h5.55c0.08,1.42,0.49,2.59,1.25,3.49c0.75,0.9,1.69,1.55,2.81,1.94    c1.12,0.4,2.3,0.59,3.55,0.59c1.44,0,2.69-0.2,3.73-0.61c1.04-0.41,1.83-0.96,2.36-1.66c0.53-0.7,0.8-1.5,0.8-2.39    c0-0.89-0.19-1.66-0.56-2.32c-0.38-0.65-1.1-1.26-2.17-1.81c-1.07-0.55-2.61-1.04-4.63-1.45    C335.07,159.29,332.19,158.19,330.24,156.76z"></path>
		<path class="st0" d="M383.04,170.67c0.2,1.2,0.47,2.21,0.83,3.04v0.48h-5.79c-0.34-0.77-0.59-1.89-0.77-3.35    c-1.11,1.19-2.44,2.14-3.99,2.86s-3.26,1.08-5.12,1.08c-2.14,0-4.03-0.42-5.68-1.26s-2.93-1.98-3.83-3.43    c-0.9-1.44-1.35-3.05-1.35-4.81c0-2.28,0.59-4.2,1.77-5.79c1.18-1.58,2.85-2.78,5.02-3.58c2.17-0.8,4.72-1.2,7.67-1.2h5.4v-2.55    c0-1.96-0.58-3.5-1.74-4.62c-1.16-1.12-2.83-1.68-5-1.68c-1.33,0-2.51,0.23-3.56,0.7c-1.05,0.47-1.87,1.09-2.45,1.87    c-0.58,0.78-0.88,1.63-0.88,2.54h-5.55c0-1.56,0.53-3.08,1.6-4.54c1.07-1.46,2.57-2.66,4.51-3.58s4.16-1.38,6.65-1.38    c2.37,0,4.46,0.4,6.25,1.2c1.79,0.8,3.19,2.01,4.2,3.62c1.01,1.61,1.51,3.59,1.51,5.92v14.96    C382.75,168.31,382.85,169.47,383.04,170.67z M372.55,169.36c1.1-0.45,2.04-1.03,2.83-1.77c0.79-0.73,1.4-1.52,1.81-2.37v-6.65    h-4.51c-3.17,0-5.59,0.5-7.27,1.5c-1.68,1-2.52,2.48-2.52,4.44c0,1.05,0.24,1.99,0.71,2.82c0.47,0.83,1.17,1.49,2.08,1.97    s2.02,0.73,3.33,0.73C370.27,170.03,371.45,169.81,372.55,169.36z"></path>
		<path class="st0" d="M415.98,153.14v21.05h-5.55v-21.1c0-2.45-0.53-4.23-1.59-5.34c-1.06-1.11-2.66-1.66-4.79-1.66    c-1.7,0-3.23,0.47-4.59,1.4c-1.36,0.93-2.43,2.18-3.22,3.74v22.98h-5.55v-32.12h5.25l0.18,3.95c1.17-1.44,2.56-2.56,4.19-3.35    c1.62-0.79,3.41-1.19,5.37-1.19C412.54,141.47,415.98,145.36,415.98,153.14z"></path>
		<path class="st0" d="M463.69,142.07l-9.32,32.12h-3.68h-0.8l-7.78-24.25l-7.6,24.25h-3.53h-0.95l-9.32-32.12h5.52l6.29,23.84    l7.45-23.84h3.65h0.83l7.57,24.37l6.17-24.37H463.69z"></path>
		<path class="st0" d="M492.83,170.67c0.2,1.2,0.47,2.21,0.83,3.04v0.48h-5.79c-0.34-0.77-0.59-1.89-0.77-3.35    c-1.11,1.19-2.44,2.14-3.99,2.86s-3.26,1.08-5.12,1.08c-2.14,0-4.03-0.42-5.68-1.26s-2.93-1.98-3.83-3.43    c-0.9-1.44-1.35-3.05-1.35-4.81c0-2.28,0.59-4.2,1.77-5.79c1.18-1.58,2.85-2.78,5.02-3.58c2.17-0.8,4.72-1.2,7.67-1.2h5.4v-2.55    c0-1.96-0.58-3.5-1.74-4.62c-1.16-1.12-2.83-1.68-5-1.68c-1.33,0-2.51,0.23-3.56,0.7c-1.05,0.47-1.87,1.09-2.45,1.87    c-0.58,0.78-0.88,1.63-0.88,2.54h-5.55c0-1.56,0.53-3.08,1.6-4.54c1.07-1.46,2.57-2.66,4.51-3.58s4.16-1.38,6.65-1.38    c2.37,0,4.46,0.4,6.25,1.2c1.79,0.8,3.19,2.01,4.2,3.62c1.01,1.61,1.51,3.59,1.51,5.92v14.96    C492.53,168.31,492.63,169.47,492.83,170.67z M477.24,131.2c0.57,0.59,0.86,1.35,0.86,2.26c0,0.89-0.29,1.63-0.86,2.21    c-0.57,0.58-1.38,0.88-2.4,0.88s-1.83-0.29-2.4-0.88c-0.57-0.58-0.86-1.32-0.86-2.21c0-0.91,0.29-1.66,0.86-2.26    s1.38-0.89,2.4-0.89S476.67,130.61,477.24,131.2z M482.33,169.36c1.1-0.45,2.04-1.03,2.83-1.77c0.79-0.73,1.4-1.52,1.81-2.37    v-6.65h-4.51c-3.17,0-5.59,0.5-7.27,1.5c-1.68,1-2.52,2.48-2.52,4.44c0,1.05,0.24,1.99,0.71,2.82c0.47,0.83,1.17,1.49,2.08,1.97    s2.02,0.73,3.33,0.73C480.05,170.03,481.24,169.81,482.33,169.36z M490.02,131.26c0.58,0.59,0.88,1.35,0.88,2.26    c0,0.89-0.29,1.63-0.88,2.21c-0.58,0.58-1.39,0.88-2.42,0.88c-1.03,0-1.83-0.29-2.39-0.88c-0.56-0.58-0.85-1.32-0.85-2.21    c0-0.91,0.28-1.66,0.85-2.26c0.56-0.59,1.36-0.89,2.39-0.89C488.63,130.37,489.44,130.67,490.02,131.26z"></path>
		<path class="st0" d="M501.51,174.19v-45.59h5.55v45.59H501.51z"></path>
		<path class="st0" d="M528.77,174.19c-1.27,0.4-2.68,0.59-4.24,0.59c-2.24,0-4.03-0.67-5.39-2.02c-1.36-1.35-2.03-3.53-2.03-6.56    v-19.95h-5.85v-4.19h5.85v-7.81h5.55v7.81h6v4.19h-6v19.98c0,1.52,0.32,2.55,0.95,3.07c0.63,0.52,1.49,0.79,2.58,0.79    c0.42,0,0.87-0.03,1.37-0.1c0.49-0.07,0.89-0.14,1.19-0.22L528.77,174.19z"></path>
		<path class="st0" d="M560.25,159.64h-21.73c0.06,2,0.47,3.81,1.25,5.43c0.77,1.62,1.86,2.9,3.28,3.84    c1.42,0.94,3.07,1.41,4.97,1.41c1.86,0,3.47-0.38,4.82-1.13c1.36-0.75,2.57-1.83,3.64-3.24l3.35,2.61    c-1.19,1.82-2.77,3.31-4.75,4.47c-1.98,1.16-4.43,1.74-7.36,1.74c-2.93,0-5.51-0.66-7.75-1.99s-3.96-3.17-5.18-5.52    c-1.22-2.35-1.83-5.03-1.83-8.01v-1.28c0-3.34,0.65-6.27,1.96-8.77c1.31-2.5,3.03-4.42,5.18-5.74c2.15-1.33,4.45-1.99,6.9-1.99    c2.99,0,5.47,0.67,7.44,2c1.97,1.34,3.43,3.18,4.38,5.54c0.95,2.36,1.42,5.08,1.42,8.16V159.64z M554.7,154.77    c-0.16-2.51-0.84-4.62-2.03-6.31c-1.2-1.69-3.08-2.54-5.66-2.54c-2.22,0-4.06,0.81-5.54,2.42c-1.47,1.61-2.4,3.89-2.78,6.84h16    V154.77z"></path>
		<path class="st0" d="M175.81,220.89c-2.38-1.99-3.56-4.58-3.56-7.76c0-2.24,0.61-4.25,1.83-6.03c1.22-1.78,2.94-3.18,5.17-4.2    c2.23-1.02,4.78-1.53,7.67-1.53c3.15,0,5.87,0.6,8.18,1.81c2.31,1.21,4.07,2.81,5.28,4.81c1.22,2,1.83,4.15,1.83,6.44h-5.79    c0-2.53-0.8-4.57-2.4-6.1s-3.97-2.3-7.09-2.3c-2.91,0-5.12,0.64-6.62,1.93c-1.5,1.29-2.26,2.98-2.26,5.08    c0,1.23,0.35,2.31,1.04,3.24c0.69,0.93,1.77,1.77,3.24,2.52c1.46,0.75,3.39,1.46,5.79,2.14c3.32,0.93,6.02,2,8.09,3.21    c2.07,1.21,3.6,2.63,4.6,4.26c1,1.63,1.5,3.57,1.5,5.8c0,2.32-0.62,4.35-1.85,6.1c-1.24,1.75-2.99,3.1-5.27,4.05    c-2.28,0.95-4.93,1.42-7.96,1.42c-2.75,0-5.38-0.51-7.88-1.53c-2.5-1.02-4.54-2.52-6.1-4.5c-1.56-1.98-2.35-4.34-2.35-7.09h5.76    c0,1.9,0.48,3.48,1.44,4.75c0.96,1.27,2.24,2.21,3.83,2.82s3.36,0.92,5.3,0.92c2.95,0,5.23-0.61,6.86-1.84    c1.62-1.23,2.43-2.91,2.43-5.05c0-1.41-0.29-2.58-0.88-3.52c-0.58-0.94-1.61-1.79-3.07-2.55s-3.57-1.54-6.32-2.33    C181.66,224.54,178.18,222.88,175.81,220.89z"></path>
		<path class="st0" d="M223.81,245.19c-1.27,0.4-2.68,0.59-4.24,0.59c-2.24,0-4.03-0.67-5.39-2.02c-1.36-1.35-2.03-3.53-2.03-6.56    v-19.95h-5.85v-4.19h5.85v-7.81h5.55v7.81h6v4.19h-6v19.98c0,1.52,0.32,2.55,0.95,3.07c0.63,0.52,1.49,0.79,2.58,0.79    c0.42,0,0.87-0.03,1.37-0.1c0.49-0.07,0.89-0.14,1.19-0.22L223.81,245.19z"></path>
		<path class="st0" d="M255.07,230.64h-21.73c0.06,2,0.47,3.81,1.25,5.43s1.87,2.9,3.28,3.84c1.41,0.94,3.07,1.41,4.97,1.41    c1.86,0,3.47-0.38,4.82-1.13c1.36-0.75,2.57-1.83,3.64-3.24l3.35,2.61c-1.19,1.82-2.77,3.31-4.75,4.47    c-1.98,1.16-4.43,1.74-7.36,1.74s-5.51-0.66-7.75-1.99c-2.24-1.33-3.96-3.17-5.18-5.52c-1.22-2.35-1.83-5.03-1.83-8.01v-1.28    c0-3.34,0.65-6.27,1.96-8.77c1.31-2.5,3.03-4.42,5.18-5.74c2.15-1.33,4.45-1.99,6.9-1.99c2.99,0,5.47,0.67,7.44,2    c1.97,1.34,3.43,3.18,4.38,5.54c0.95,2.36,1.42,5.08,1.42,8.16V230.64z M249.52,225.77c-0.16-2.51-0.84-4.62-2.03-6.31    s-3.08-2.54-5.65-2.54c-2.22,0-4.06,0.81-5.54,2.42c-1.47,1.61-2.4,3.89-2.78,6.84h16V225.77z"></path>
		<path class="st0" d="M286.66,213.07v32.12h-5.28l-0.09-3.18c-2.14,2.51-5.27,3.77-9.41,3.77c-3.31,0-5.89-0.97-7.75-2.91    c-1.86-1.94-2.79-4.97-2.79-9.08v-20.72h5.55v20.78c0,2.67,0.55,4.56,1.65,5.65c1.1,1.1,2.51,1.65,4.23,1.65    c4.16,0,6.94-1.55,8.34-4.66v-23.42H286.66z"></path>
		<path class="st0" d="M320.85,230.64h-21.73c0.06,2,0.47,3.81,1.25,5.43s1.87,2.9,3.28,3.84c1.41,0.94,3.07,1.41,4.97,1.41    c1.86,0,3.47-0.38,4.82-1.13c1.36-0.75,2.57-1.83,3.64-3.24l3.35,2.61c-1.19,1.82-2.77,3.31-4.75,4.47    c-1.98,1.16-4.43,1.74-7.36,1.74c-2.93,0-5.51-0.66-7.75-1.99c-2.24-1.33-3.96-3.17-5.18-5.52c-1.22-2.35-1.83-5.03-1.83-8.01    v-1.28c0-3.34,0.65-6.27,1.96-8.77c1.31-2.5,3.03-4.42,5.18-5.74c2.15-1.33,4.45-1.99,6.9-1.99c2.99,0,5.47,0.67,7.44,2    c1.97,1.34,3.43,3.18,4.38,5.54c0.95,2.36,1.42,5.08,1.42,8.16V230.64z M315.3,225.77c-0.16-2.51-0.84-4.62-2.03-6.31    s-3.08-2.54-5.65-2.54c-2.22,0-4.06,0.81-5.54,2.42c-1.47,1.61-2.4,3.89-2.78,6.84h16V225.77z"></path>
		<path class="st0" d="M341.97,212.61c0.53,0.09,0.9,0.18,1.1,0.28v5.08c-0.85-0.16-1.75-0.24-2.7-0.24c-1.82,0-3.34,0.41-4.56,1.22    s-2.13,1.95-2.75,3.41v22.83h-5.55v-32.12h5.4l0.12,3.65c0.83-1.35,1.88-2.39,3.15-3.13s2.75-1.11,4.45-1.11    C340.99,212.47,341.44,212.52,341.97,212.61z"></path>
		<path class="st0" d="M369.58,214.51c1.88,1.36,3.31,3.27,4.29,5.73c0.98,2.46,1.47,5.34,1.47,8.62v0.62    c0,3.15-0.49,5.95-1.47,8.42c-0.98,2.46-2.41,4.39-4.29,5.79c-1.88,1.4-4.12,2.09-6.71,2.09c-4.06,0-7.19-1.41-9.41-4.24    l-0.27,3.65h-5.08v-45.59h5.55v16.92c2.2-2.69,5.24-4.04,9.14-4.04C365.44,212.47,367.7,213.15,369.58,214.51z M369.79,228.86    c0-3.52-0.67-6.37-2-8.53c-1.34-2.17-3.46-3.25-6.37-3.25c-1.88,0-3.46,0.45-4.73,1.35c-1.28,0.9-2.28,2.12-3.01,3.67v14.04    c0.75,1.52,1.78,2.74,3.07,3.65s2.88,1.37,4.74,1.37c2.79,0,4.87-1.08,6.25-3.25c1.38-2.17,2.06-4.97,2.06-8.42V228.86z"></path>
		<path class="st0" d="M408.14,230.64h-21.73c0.06,2,0.47,3.81,1.25,5.43c0.77,1.62,1.86,2.9,3.28,3.84    c1.42,0.94,3.07,1.41,4.97,1.41c1.86,0,3.47-0.38,4.82-1.13c1.36-0.75,2.57-1.83,3.64-3.24l3.35,2.61    c-1.19,1.82-2.77,3.31-4.75,4.47c-1.98,1.16-4.43,1.74-7.36,1.74c-2.93,0-5.51-0.66-7.75-1.99s-3.96-3.17-5.18-5.52    c-1.22-2.35-1.83-5.03-1.83-8.01v-1.28c0-3.34,0.65-6.27,1.96-8.77c1.31-2.5,3.03-4.42,5.18-5.74c2.15-1.33,4.45-1.99,6.9-1.99    c2.99,0,5.47,0.67,7.44,2c1.97,1.34,3.43,3.18,4.38,5.54c0.95,2.36,1.42,5.08,1.42,8.16V230.64z M402.59,225.77    c-0.16-2.51-0.84-4.62-2.03-6.31c-1.2-1.69-3.08-2.54-5.66-2.54c-2.22,0-4.06,0.81-5.54,2.42c-1.47,1.61-2.4,3.89-2.78,6.84h16    V225.77z"></path>
		<path class="st0" d="M429.4,212.61c0.53,0.09,0.9,0.18,1.1,0.28v5.08c-0.85-0.16-1.75-0.24-2.7-0.24c-1.82,0-3.34,0.41-4.56,1.22    s-2.13,1.95-2.75,3.41v22.83h-5.55v-32.12h5.4l0.12,3.65c0.83-1.35,1.88-2.39,3.15-3.13s2.75-1.11,4.45-1.11    C428.42,212.47,428.86,212.52,429.4,212.61z"></path>
		<path class="st0" d="M459.41,241.67c0.2,1.2,0.47,2.21,0.83,3.04v0.48h-5.79c-0.34-0.77-0.59-1.89-0.77-3.35    c-1.11,1.19-2.44,2.14-3.99,2.86s-3.26,1.08-5.12,1.08c-2.14,0-4.03-0.42-5.68-1.26s-2.93-1.98-3.83-3.43    c-0.9-1.44-1.35-3.05-1.35-4.81c0-2.28,0.59-4.2,1.77-5.79c1.18-1.58,2.85-2.78,5.02-3.58c2.17-0.8,4.72-1.2,7.67-1.2h5.4v-2.55    c0-1.96-0.58-3.5-1.74-4.62c-1.16-1.12-2.83-1.68-5-1.68c-1.33,0-2.51,0.23-3.56,0.7c-1.05,0.47-1.87,1.09-2.45,1.87    c-0.58,0.78-0.88,1.63-0.88,2.54h-5.55c0-1.56,0.53-3.08,1.6-4.54c1.07-1.46,2.57-2.66,4.51-3.58s4.16-1.38,6.65-1.38    c2.37,0,4.46,0.4,6.25,1.2c1.79,0.8,3.19,2.01,4.2,3.62c1.01,1.61,1.51,3.59,1.51,5.92v14.96    C459.11,239.31,459.21,240.47,459.41,241.67z M448.91,240.36c1.1-0.45,2.04-1.03,2.83-1.77c0.79-0.73,1.4-1.52,1.81-2.37v-6.65    h-4.51c-3.17,0-5.59,0.5-7.27,1.5c-1.68,1-2.52,2.48-2.52,4.44c0,1.05,0.24,1.99,0.71,2.82c0.47,0.83,1.17,1.49,2.08,1.97    s2.02,0.73,3.33,0.73C446.63,241.03,447.82,240.81,448.91,240.36z"></path>
		<path class="st0" d="M481.34,245.19c-1.27,0.4-2.68,0.59-4.24,0.59c-2.24,0-4.03-0.67-5.39-2.02c-1.36-1.35-2.03-3.53-2.03-6.56    v-19.95h-5.85v-4.19h5.85v-7.81h5.55v7.81h6v4.19h-6v19.98c0,1.52,0.32,2.55,0.95,3.07c0.63,0.52,1.49,0.79,2.58,0.79    c0.42,0,0.87-0.03,1.37-0.1c0.49-0.07,0.89-0.14,1.19-0.22L481.34,245.19z"></path>
		<path class="st0" d="M512.49,230.64h-21.73c0.06,2,0.47,3.81,1.25,5.43c0.77,1.62,1.86,2.9,3.28,3.84    c1.42,0.94,3.07,1.41,4.97,1.41c1.86,0,3.47-0.38,4.82-1.13c1.36-0.75,2.57-1.83,3.64-3.24l3.35,2.61    c-1.19,1.82-2.77,3.31-4.75,4.47c-1.98,1.16-4.43,1.74-7.36,1.74c-2.93,0-5.51-0.66-7.75-1.99s-3.96-3.17-5.18-5.52    c-1.22-2.35-1.83-5.03-1.83-8.01v-1.28c0-3.34,0.65-6.27,1.96-8.77c1.31-2.5,3.03-4.42,5.18-5.74c2.15-1.33,4.45-1.99,6.9-1.99    c2.99,0,5.47,0.67,7.44,2c1.97,1.34,3.43,3.18,4.38,5.54c0.95,2.36,1.42,5.08,1.42,8.16V230.64z M506.94,225.77    c-0.16-2.51-0.84-4.62-2.03-6.31c-1.2-1.69-3.08-2.54-5.66-2.54c-2.22,0-4.06,0.81-5.54,2.42c-1.47,1.61-2.4,3.89-2.78,6.84h16    V225.77z"></path>
		<path class="st0" d="M533.33,212.61c0.53,0.09,0.9,0.18,1.1,0.28v5.08c-0.85-0.16-1.75-0.24-2.7-0.24c-1.82,0-3.34,0.41-4.56,1.22    s-2.13,1.95-2.75,3.41v22.83h-5.55v-32.12h5.4l0.12,3.65c0.83-1.35,1.88-2.39,3.15-3.13s2.75-1.11,4.45-1.11    C532.35,212.47,532.79,212.52,533.33,212.61z"></path>
	</g>
</g>
<rect x="3.4" y="4.74" class="st0" width="125.93" height="125.93"></rect>
<rect x="26.55" y="31.85" class="st1" width="77.36" height="15.25"></rect>
<rect x="41.51" y="59.8" class="st2" width="62.4" height="15.25"></rect>
<rect x="41.51" y="87.76" class="st2" width="62.4" height="15.25"></rect>
</svg>
