<?xml version="1.0" encoding="UTF-8"?>
<svg xmlns="http://www.w3.org/2000/svg" xmlns:i="http://ns.adobe.com/AdobeIllustrator/10.0/" id="Ebene_1" version="1.1" viewBox="0 0 283.464 239.528">
  <polygon points="0 239.512 45.06 201.221 283.465 201.221 283.465 0 0 .001 0 239.512" style="fill: #008244;"></polygon>
  <path d="M43.95,39.174h97.098l.509,30.644h-6.18c-2.033-10.023-4.572-16.482-7.619-19.369-3.331-3.114-9.906-4.673-19.725-4.673-1.469,0-3.641.114-6.519.339v102.868c0,4.223,4.092,6.334,12.274,6.334-1.3,0,.903-.055,6.603-.168v6.771h-56.971v-6.771h7.704c7.9,0,11.85-2.309,11.85-6.932V46.115h-3.302c-10.723,0-17.833,1.326-21.333,3.978-3.95,2.935-6.715,9.51-8.295,19.725h-6.943l.848-30.644Z" style="fill: #fff;"></path>
  <path d="M130.891,155.317c5.023-.789,8.408-2.059,10.157-3.809,1.242-1.297,2.821-4.572,4.739-9.82l37.418-102.853h14.9l33.603,106.58c1.129,3.668,2.512,6.123,4.148,7.365,1.299,1.016,3.924,1.975,7.873,2.877v6.603h-44.779v-6.943h3.131c6.828.453,10.244-1.268,10.244-5.16,0-2.482-1.535-8.687-4.607-18.617-1.865-6.041-3.928-12.675-6.186-19.903h-35.354c-3.045,8.387-7.133,21.106-12.264,38.157.508,2.947,2.033,4.732,4.57,5.354.961.285,3.473.34,7.535.17v6.603h-35.131v-6.603ZM199.469,104.526l-14.924-48.457-16.238,48.457h31.162Z" style="fill: #fff;"></path>
  <metadata></metadata>
</svg>
