<?xml version="1.0" encoding="UTF-8"?>
<svg xmlns="http://www.w3.org/2000/svg" xmlns:xlink="http://www.w3.org/1999/xlink" id="layer" version="1.1" viewBox="0 0 600.1 145.432">
  <path id="a" d="M233.4,41.959h32.9v6.2h.2c3.3-4.5,7.9-7,12.7-7h.5v15.3c-1.4-.1-2.6-.2-3.3-.2-6.7,0-10.1,4.3-10.1,10.1v20h-14.1v-32.9h-18.9v16.3c0,2.9.6,5,3.3,5,1,0,2.8-.3,4.3-1l3.5,10.4c-3.1,1.7-6.2,3-12.4,3-7.6,0-13-4.7-13-14.8V27.659l14.2-1.5.2,15.8ZM196.9,42.059h14.1v44.4h-14.1v-44.4ZM196.9,19.259h14.1v13.8h-14.1v-13.8ZM33.1,20.259c10.2,0,19.8,4.7,26.1,12.8l-11.2,9.8c-3.4-4.8-8.9-7.6-14.8-7.6-4.9,0-9.5,1.9-13,5.4-3.4,3.5-5.4,8.1-5.4,13,0,10.2,8.2,18.4,18.3,18.4,5.8,0,11.3-2.8,14.7-7.5l11.3,9.8c-6.3,8-15.8,12.6-26,12.7C14.8,87.059,0,72.159,0,53.759c0-8.8,3.5-17.3,9.7-23.6,6.2-6.4,14.6-9.9,23.4-9.9M64.1,42.059h14.1v6.2h.2c3.2-4.5,7.8-7,12.7-7h.5v15.3c-1.4-.1-2.6-.2-3.3-.2-6.7,0-10.1,4.3-10.1,10.1v20h-14.1v-44.4ZM137.9,63.759c0,1.3-.2,3.4-.3,4.3h-30.1c.9,5.1,5.1,7.7,10.6,7.7,3.6-.1,7.3-1.5,10.3-4.8l8.1,8.3c-3.7,4.6-9.8,8-19.9,8-13.4,0-23.1-9.3-23.1-23,0-13.4,9.4-22.9,22.8-22.9,12.5-.1,21.6,9.2,21.6,22.4M116.1,52.459c-4.3,0-7.6,2.6-8.5,7.1h16.5c-.9-4.3-3.7-7.1-8-7.1M162.4,86.859c-12.2,0-20.8-9.3-20.8-23,0-13.6,8.8-23.1,20.1-23.1,5,0,9.5,1.9,12.6,5.5h.1v-27.1h14.2v66.8h-13.5v-4.7h-.2c-2.9,3.7-7,5.6-12.5,5.6M165.3,74.359c5.5,0,9.7-4.1,9.7-10.4,0-6.1-4-10.5-9.7-10.5-5.3,0-9.5,4.2-9.5,10.5,0,6.2,4,10.4,9.5,10.4M345.6,18.759c5.9,0,10.4,2.4,11.9,3.5l-2.6,10.3c-1.9-1-4.2-1.6-5.5-1.6-2.5,0-4.2,1.3-4.2,4.8v6.4h8.4v11.4h-8.4v32.9h-14.2v-32.9h0v-18.4h0c0-11.1,5.7-16.4,14.6-16.4M380.1,87.059c-14.3,0-23.9-9.5-23.9-23s9.7-23.1,23.9-23.1c13.9,0,23.8,9.3,23.8,23.1,0,13.7-9.9,23-23.8,23M380,74.559c5.3,0,9.6-4.4,9.6-10.4,0-6.2-4.1-10.5-9.6-10.5-5.7,0-9.7,4.4-9.7,10.5.1,5.9,4.1,10.4,9.7,10.4M325.7,63.759c0,1.3-.2,3.4-.3,4.3h-30c.9,5.1,5.1,7.7,10.6,7.7,3.6-.1,7.3-1.5,10.3-4.8l8.1,8.3c-3.7,4.6-9.8,8-19.9,8-13.4,0-23.1-9.3-23.1-23,0-13.4,9.4-22.9,22.7-22.9,12.5-.1,21.6,9.2,21.6,22.4M303.9,52.459c-4.3,0-7.6,2.6-8.5,7.1h16.6c-.9-4.3-3.8-7.1-8.1-7.1M409.4,42.059h14.1v6.2h.2c3.2-4.5,7.9-7,12.7-7h.5v15.3c-1.4-.1-2.6-.2-3.3-.2-6.7,0-10.1,4.3-10.1,10.1v20h-14.1v-44.4ZM441.9,41.859h14.1l.1,5.3c3.4-4,7.8-6.1,12.5-6.1,5.6,0,10.2,2,13,6.6,3.5-4.5,8.8-6.6,14.9-6.6,9.3,0,15.6,5.3,15.6,19.3v25.9h-14.1v-22.6c0-5.8-1.5-10-6.4-10-4.1,0-7.4,3.4-7.4,10.3v22.2h-14.2v-22.6c0-5.8-1.7-10-6.4-10-4.4,0-7.7,3.4-7.7,10.3v22.2h-14.1l.1-44.2Z" style="fill: #009fe3;"></path>
  <path id="b" d="M554.8,2.759c9.3-4.1,20-3.6,29,1.3l-6.4,13.4c-5-3-11.2-3.4-16.6-1.1-4.5,2-8,5.6-9.7,10.1-1.8,4.5-1.7,9.6.2,14.1s5.6,8,10.1,9.8,9.6,1.7,14-.2c5.3-2.3,9.3-7.1,10.5-12.8l14.2,4.4c-2.6,9.8-9.5,17.9-18.8,22-16.8,7.3-36.3-.4-43.6-17.3-3.5-8.1-3.7-17.3-.4-25.5,3.1-8,9.4-14.6,17.5-18.2M538.6,75.959h57.7v11.5h-57.7v-11.5Z" style="fill: #66c5ed;"></path>
  <g>
    <path d="M6.574,145.106v-28.835h18.438v5.117h-12.833v6.904h10.275v5.036h-10.275v6.701h13.686v5.076H6.574Z" style="fill: #9d9d9d;"></path>
    <path d="M53.116,145.106h-6.742l-6.458-9.869h-3.33v9.869h-5.645v-28.835h10.924c3.331,0,5.834.873,7.514,2.62,1.678,1.746,2.518,4.067,2.518,6.965,0,4.494-1.977,7.392-5.929,8.69l7.148,10.56ZM36.586,121.349v8.854h3.98c1.732,0,3.072-.399,4.021-1.198.947-.799,1.421-1.889,1.421-3.27,0-1.354-.454-2.423-1.36-3.208-.908-.785-2.187-1.178-3.838-1.178h-4.224Z" style="fill: #9d9d9d;"></path>
    <path d="M57.461,145.106v-28.835h19.128v5.117h-13.483v7.676h11.25v5.117h-11.25v10.925h-5.645Z" style="fill: #9d9d9d;"></path>
    <path d="M92.59,145.432c-3.52,0-6.335-1.076-8.447-3.229-2.112-2.153-3.168-5.165-3.168-9.037v-16.895h5.727v16.529c0,2.14.521,3.886,1.563,5.239,1.042,1.354,2.483,2.03,4.325,2.03,1.787,0,3.235-.649,4.345-1.949,1.11-1.3,1.665-3.072,1.665-5.32v-16.529h5.727v16.895c0,3.791-1.036,6.782-3.107,8.976s-4.948,3.29-8.63,3.29Z" style="fill: #9d9d9d;"></path>
    <path d="M132.472,145.106h-6.742l-6.458-9.869h-3.33v9.869h-5.645v-28.835h10.924c3.331,0,5.834.873,7.514,2.62,1.678,1.746,2.518,4.067,2.518,6.965,0,4.494-1.977,7.392-5.929,8.69l7.148,10.56ZM115.942,121.349v8.854h3.98c1.732,0,3.072-.399,4.021-1.198.947-.799,1.421-1.889,1.421-3.27,0-1.354-.454-2.423-1.36-3.208-.908-.785-2.187-1.178-3.838-1.178h-4.224Z" style="fill: #9d9d9d;"></path>
    <path d="M142.097,145.106v-23.718h-7.96v-5.117h21.646v5.117h-8.001v23.718h-5.686Z" style="fill: #9d9d9d;"></path>
  </g>
</svg>
