<?xml version="1.0" encoding="UTF-8"?>
<svg xmlns="http://www.w3.org/2000/svg" xmlns:i="http://ns.adobe.com/AdobeIllustrator/10.0/" id="Ebene_1" version="1.1" viewBox="0 0 388.006 276.308">
  <g>
    <path d="M87.97,276.251l-3.463-65.329c-.364-6.762-.364-12.424-.364-14.059h-.372c-.542,2.556-1.456,7.297-3.284,14.059l-17.15,65.329h-13.33l-16.971-65.329c-1.456-5.662-2.92-11.874-3.284-14.059h-.364v4.562c0,2.734,0,6.197-.186,9.496l-3.648,65.329H0l10.588-125.561h26.282l17.699,63.516c1.828,6.925,2.742,12.587,3.106,14.965h.364c.364-2.556,1.278-9.125,2.92-14.965l17.707-63.516h26.282l10.767,125.561h-27.745Z" style="fill: #212d39;"></path>
    <path d="M131.297,276.308v-125.561h29.202v125.561h-29.202Z" style="fill: #212d39;"></path>
    <path d="M223.116,173.188v103.12h-29.202v-103.12h-18.064v-22.44h65.336v22.44h-18.071Z" style="fill: #212d39;"></path>
    <path d="M298.713,173.188v103.12h-29.202v-103.12h-18.064v-22.44h65.336v22.44h-18.071Z" style="fill: #212d39;"></path>
    <path d="M331.972,276.308v-125.561h56.033v22.44h-26.832v28.652h22.997v21.727h-22.997v30.302h26.832v22.44h-56.033Z" style="fill: #212d39;"></path>
  </g>
  <path d="M293.595,45.52c0-9.949-4.78-16.538-14.083-16.538-2.584,0-4.91.388-6.977,1.292v32.172c1.68.387,3.488.646,5.426.646,9.561,0,15.634-7.235,15.634-17.572Z" style="fill: #212d39;"></path>
  <path d="M112.969,45.52c0-9.949-4.78-16.538-14.083-16.538-2.584,0-4.91.388-6.977,1.292v32.172c1.68.387,3.488.646,5.426.646,9.561,0,15.634-7.235,15.634-17.572Z" style="fill: #212d39;"></path>
  <path d="M.04,0v129.485h387.739V0H.04ZM64.207,30.608h-23.292v27.847h20.69v10.28h-20.69v30.319h23.292v10.54H26.732V20.068h37.476v10.54ZM114.175,109.593l-11.191-25.504c-2.602-5.856-6.116-12.752-11.321-14.964v40.469h-13.923V23.711c5.855-3.253,13.143-4.945,20.69-4.945,17.046,0,28.237,9.239,28.237,25.765,0,12.232-7.807,20.82-19.388,23.682v.26c4.034,3.383,7.157,9.239,9.629,14.314l13.013,26.806h-15.745ZM178.978,30.608h-23.162v27.847h20.56v10.28h-20.56v40.859h-14.183V20.068h37.346v10.54ZM242.738,85.13c0,16.135-10.28,25.895-25.504,25.895s-25.504-9.759-25.504-25.895V20.068h14.053v65.583c0,8.068,3.774,13.403,11.841,13.403s11.972-5.335,11.972-13.403V20.068h13.142v65.062ZM296.088,109.593l-11.191-25.504c-2.602-5.856-6.116-12.752-11.321-14.964v40.469h-13.923V23.711c5.856-3.253,13.143-4.945,20.69-4.945,17.046,0,28.237,9.239,28.237,25.765,0,12.232-7.807,20.82-19.388,23.682v.26c4.034,3.383,7.157,9.239,9.629,14.314l13.013,26.806h-15.745ZM360.891,30.608h-14.704v78.985h-14.184V30.608h-14.834v-10.54h43.722v10.54Z" style="fill: #212d39;"></path>
  <metadata></metadata>
</svg>
